<?xml version="1.0" standalone="no"?>
<!DOCTYPE svg PUBLIC "-//W3C//DTD SVG 1.1//EN" "http://www.w3.org/Graphics/SVG/1.1/DTD/svg11.dtd" >
<svg>
    <metadata>
        Created by FontForge 20110222 at Wed Mar 18 14:39:36 2015
        By www-data
        Copyright (c) 1992 Corel Corporation. All Rights Reserved.
    </metadata>
    <defs>
        <font id="Brochure-Normal" horiz-adv-x="559">
            <font-face
                    font-family="Brochure"
                    font-weight="400"
                    font-stretch="normal"
                    units-per-em="1000"
                    panose-1="2 0 5 6 9 0 0 2 0 4"
                    ascent="800"
                    descent="-200"
                    x-height="664"
                    cap-height="830"
                    bbox="-156 -268 1170 1006"
                    underline-thickness="50"
                    underline-position="-50"
                    unicode-range="U+0020-2122"
            />
            <missing-glyph horiz-adv-x="500"
            />
            <glyph glyph-name=".notdef" horiz-adv-x="500"
            />
            <glyph glyph-name=".null" horiz-adv-x="0"
            />
            <glyph glyph-name="nonmarkingreturn" horiz-adv-x="279"
            />
            <glyph glyph-name="space" unicode=" " horiz-adv-x="279"
            />
            <glyph glyph-name="space" unicode="&#xa0;" horiz-adv-x="279"
            />
            <glyph glyph-name="exclam" unicode="!" horiz-adv-x="293"
                   d="M201 215q-3 0 -4.5 0.5t-3.5 5.5q1 8 7 25t13.5 41t14.5 55.5t10 67.5q4 43 8 79t9 69.5t12 67t16 71.5q18 72 52.5 103.5t76.5 33.5q18 0 31 -9t22 -22t13.5 -28.5t3.5 -28.5q-2 -44 -23 -92t-49.5 -94.5t-58.5 -89.5t-50 -77q-38 -65 -55.5 -101t-24.5 -52.5t-9.5 -20
t-10.5 -4.5zM168 131q42 -3 57 -19.5t13 -43.5q-1 -18 -9.5 -31.5t-21.5 -23t-28.5 -14t-30.5 -3.5q-13 1 -26.5 4t-24.5 10t-17.5 17.5t-5.5 25.5q0 15 6 29.5t18 25.5t29.5 17.5t40.5 5.5z"/>
            <glyph glyph-name="quotedbl" unicode="&#x22;" horiz-adv-x="324"
                   d="M434 672q-2 2 -2 4t-2 4v23q0 20 -7 36.5t-9 35.5q2 5 2 6.5v3.5q0 20 19 33.5t47 13.5q18 0 33.5 -13.5t15.5 -31.5q0 -10 -6 -19.5t-15 -18t-19 -17t-18 -17.5q-11 -12 -18 -27.5t-17 -17.5q-2 2 -3 2h-1zM289 672q-2 2 -6 10q0 5 1 10t1 13q0 20 -7.5 39t-7.5 41
q0 20 19 33.5t47 13.5q17 0 33 -13.5t16 -31.5q0 -10 -6 -19.5t-15 -18t-19 -17t-17 -17.5q-11 -12 -18.5 -27.5t-16.5 -17.5q-2 2 -3 2h-1z"/>
            <glyph glyph-name="numbersign" unicode="#" horiz-adv-x="574"
                   d="M355 529q-17 -47 -36.5 -101t-39.5 -117h209q24 53 44 107.5t34 110.5h-211zM232 660q35 6 69.5 7t69.5 1l39 154q11 -17 16.5 -32.5t5.5 -37.5q1 -12 -2.5 -26.5t-8 -26.5t-8 -21t-3.5 -10h195l34 150q11 -16 19 -31t6 -35q0 -26 -5.5 -45t-15.5 -41h29t29 -2
q17 2 31.5 2t29.5 2l-35 -137q-32 -3 -64 -2.5t-67 -1.5q-25 -54 -45 -106.5t-33 -111.5q13 0 26 -1t26 -3q26 2 48 3t44 3l-41 -141q-22 -3 -38.5 -4.5t-32.5 -2.5t-33.5 -1h-39.5l-36 -156q-11 16 -18 32t-7 36q0 13 2.5 28t6 28t6.5 22.5t5 11.5h-188l-35 -154
q-9 14 -16.5 28.5t-8.5 33.5q-1 13 2.5 29t8.5 29.5t9 23t5 10.5q-15 2 -29.5 2h-31.5q-14 0 -29 -0.5t-29 -3.5l43 141q17 2 30.5 3t29.5 1h55q12 28 23.5 58.5t21 60t17 56.5t12.5 47q-14 0 -26.5 1t-26.5 1q-29 0 -72 -6z"/>
            <glyph glyph-name="dollar" unicode="$" horiz-adv-x="516"
                   d="M287 -4q-1 -12 -2.5 -20.5t-4 -15.5t-5 -13t-5.5 -15q-8 10 -16 24t-10 28q2 2 2 6q-15 0 -40 2.5t-48.5 10.5t-41 23t-18.5 40q2 2 2 3v1q3 75 14.5 119.5t24.5 67.5t24 30t13 8q-1 -2 -4 -16.5t-6.5 -36t-6.5 -45.5t-3 -45q0 -35 8 -59.5t21 -40t29 -23.5t32 -11
q4 42 15.5 79t26.5 72t31 70.5t31 73.5q-23 37 -44.5 71.5t-38.5 67t-27 64.5t-10 64q1 49 18 86t42.5 65t57.5 46.5t62.5 29.5t57 16t42.5 5q0 6 3.5 18.5t7.5 18.5q12 -3 19 -15t7 -24q19 -2 38 -7t34 -13.5t24.5 -19.5t8.5 -24q-5 -65 -19.5 -103t-29.5 -58
q-18 -24 -39 -31q3 12 7 28.5t7 35.5t5.5 39t2.5 38q0 32 -8.5 57t-28.5 31q-5 -78 -36 -152t-68 -137q8 -15 28.5 -42.5t42.5 -62.5t38.5 -76.5t17.5 -86.5q-2 -49 -19.5 -86t-44 -64t-58 -45t-62.5 -29t-58 -16t-43 -6zM430 535q20 66 39 135t33 137q-48 -9 -79.5 -48
t-33.5 -93q0 -46 13.5 -77t27.5 -54zM404 170q-1 17 -4 31.5t-8 29t-12 30t-15 34.5q-22 -66 -37.5 -135t-32.5 -137q19 4 39 17t35.5 32.5t25.5 44t9 53.5z"/>
            <glyph glyph-name="percent" unicode="%" horiz-adv-x="633"
                   d="M672 826q5 -1 9 -5t7 -12t3 -22q0 -5 -1 -10.5t-1 -10.5q-6 -39 -32.5 -84t-64 -95.5t-81 -105.5t-83.5 -114q-42 -62 -72.5 -112.5t-55 -96t-47.5 -89t-50 -89.5q-3 12 -6 23q-2 10 -4.5 20.5t-3.5 19.5q2 5 2 6.5v3.5q20 49 45.5 86.5t58 77t72 88t86.5 118t101.5 167
t117.5 236.5zM443 814q-17 -2 -34 -19t-33 -42.5t-30.5 -56.5t-25 -62.5t-17.5 -60t-8 -48.5q-2 -31 7 -56.5t26 -27.5l2 -2q16 0 33 20.5t32.5 51.5t29 69t23.5 74.5t15.5 67t5.5 46.5q0 7 -1 15.5t-4 15.5t-8 11.5t-13 3.5zM502 725q-2 -62 -25.5 -120.5t-58 -103t-74 -71
t-71.5 -24.5q-10 1 -22.5 5.5t-23.5 16t-18.5 30.5t-7.5 48q1 56 22 112t54 101t74 73t83 28q28 0 48 -24t20 -71zM652 404q-16 0 -33 -15t-33.5 -40t-31.5 -57t-26.5 -65t-19 -65t-8.5 -57q-2 -25 7 -47.5t28 -22.5q14 -1 30 16.5t32 45.5t30 64t25 71t17.5 66.5t6.5 51.5
v15q0 12 -3.5 25.5t-20.5 13.5zM711 322q0 -65 -24.5 -124t-60 -104t-75 -71t-69.5 -25q-11 0 -24 5t-24 17t-18 32t-6 50q1 56 22 112t55 100.5t75.5 72t82.5 27.5q18 0 30.5 -9.5t20.5 -23.5t11.5 -30t3.5 -29z"/>
            <glyph glyph-name="ampersand" unicode="&#x26;" horiz-adv-x="721"
                   d="M541 785q-41 -50 -57.5 -104t-22.5 -107q0 -1 11 4.5t26.5 17t33.5 29t33.5 40t26 50.5t10.5 60q0 17 -5.5 23.5t-16.5 6.5q-12 0 -24 -7.5t-15 -12.5zM465 86q-22 44 -36.5 82.5t-23 75t-12 72.5t-4.5 75q2 28 3 57.5t3 61.5q-36 -27 -64 -66q-25 -33 -46 -83t-23 -117
q-1 -33 7 -66t23.5 -59.5t40 -43.5t56.5 -18l4 2q22 0 38.5 6.5t33.5 20.5zM672 764q0 -32 -15.5 -59.5t-38.5 -50.5t-50 -41t-50 -30t-39 -18.5t-16 -5.5q5 -106 28.5 -192t82.5 -160q31 74 48 152t17 159q0 10 -1 21.5t-1 24.5q16 -12 29 -29q11 -14 20 -34t9 -46
q2 -56 -13 -105t-34 -87q-22 -44 -50 -81q2 -3 10 -9t20 -12t26.5 -11t29.5 -5q23 -1 43.5 10t36.5 25q18 16 33 37q1 -4 -5.5 -22t-19.5 -43t-31.5 -53.5t-41.5 -52.5t-49.5 -40t-55.5 -16q-40 0 -66.5 23.5t-48.5 58.5q-7 -9 -25.5 -23t-44 -27t-56.5 -22.5t-62 -9.5
q-42 0 -77.5 17t-61 45.5t-39.5 66t-13 78.5q1 50 14.5 92t35 76t48.5 60.5t55 47.5q66 48 149 76q7 43 19 83q11 35 29 72.5t46 65.5q28 26 56 43t59 17q29 0 45 -20.5t16 -45.5z"/>
            <glyph glyph-name="quotesingle" unicode="'" horiz-adv-x="238"
                   d="M332 693q-22 2 -41.5 17t-19.5 38q1 18 8.5 32.5t20.5 25t29 16.5t34 6q26 0 46.5 -17t20.5 -43q0 -23 -14 -42t-34 -32.5t-42.5 -21t-40.5 -8.5q-8 2 -13.5 3.5t-8.5 4.5q13 1 21.5 3t13.5 4.5t9.5 6t10.5 7.5z"/>
            <glyph glyph-name="parenleft" unicode="(" horiz-adv-x="414"
                   d="M107 88q-1 42 8.5 99.5t30 122.5t52.5 134t76.5 134t101.5 122t128 99q31 17 59.5 25t65.5 8q12 0 23.5 -1t23.5 -1l-8 -19q-12 3 -25 3q-29 0 -57.5 -21.5t-56.5 -50.5q-32 -35 -66.5 -89t-67.5 -120t-62.5 -141t-52.5 -151.5t-37 -152t-16 -141.5q0 -28 7.5 -47
t20.5 -30.5t30.5 -16.5t36.5 -5q9 0 16.5 1t13.5 1l-2 -12q-60 -9 -104.5 6.5t-74.5 49.5t-46 84t-18 110z"/>
            <glyph glyph-name="parenright" unicode=")" horiz-adv-x="398"
                   d="M498 576q1 -43 -8.5 -100.5t-29.5 -123t-52 -134.5t-76.5 -133.5t-101.5 -121.5t-128 -98q-32 -19 -63 -26t-72 -7h-37l7 20q6 -2 12 -3t14 -1q29 0 58 22t55 50q32 36 66.5 90t67.5 120.5t63 141t52.5 151t37 151.5t16.5 141q0 55 -29 77t-69 22q-8 0 -14.5 -0.5
t-12.5 -0.5l2 11q59 9 103.5 -6t74.5 -49t46 -83.5t18 -109.5z"/>
            <glyph glyph-name="asterisk" unicode="*" horiz-adv-x="430"
                   d="M465 844q9 -4 17 -11q7 -6 12.5 -15t5.5 -21q0 -5 -1 -9t-3 -9q-10 -20 -23.5 -41t-26.5 -39q-15 -21 -32 -41l191 37v-11q0 -8 -2 -17t-8.5 -17t-18.5 -12.5t-33 -2.5q-20 2 -42 4.5t-42 4.5q-23 2 -45 4l119 -146q-5 -2 -11 -4q-5 -2 -11.5 -3.5t-14.5 -2.5
q-12 2 -22.5 7.5t-16.5 21.5q-1 2 -8.5 22t-16.5 43l-24 60l-62 -183q-11 6 -20 13q-8 6 -13.5 14.5t-5.5 19.5q1 13 15 36.5t31.5 46.5t31.5 40t15 17l-191 -33q1 18 7 32q5 12 17 21.5t35 7.5q19 -2 41.5 -5.5t42.5 -6.5l46 -8l-127 149q6 5 14.5 8t17.5 3q23 0 35 -15
q11 -13 22 -34t21 -42.5t17 -40.5t10 -28z"/>
            <glyph glyph-name="plus" unicode="+" horiz-adv-x="621"
                   d="M406 379l82 264h67l-84 -264h259l-19 -65h-258l-84 -265h-66l84 265h-260l19 65h260z"/>
            <glyph glyph-name="comma" unicode="," horiz-adv-x="207"
                   d="M131 2q-20 2 -34.5 13.5t-14.5 31.5q0 26 22 43t48 17q24 0 39.5 -13t15.5 -35q0 -18 -11 -32.5t-27.5 -25t-34.5 -16.5t-32 -6q-13 0 -16 3q14 0 25 7t20 13z"/>
            <glyph glyph-name="hyphen" unicode="-" horiz-adv-x="434"
                   d="M191 410h354l-57 -131h-355z"/>
            <glyph glyph-name="hyphen" unicode="&#xad;" horiz-adv-x="434"
                   d="M191 410h354l-57 -131h-355z"/>
            <glyph glyph-name="period" unicode="." horiz-adv-x="221"
                   d="M174 111q20 0 38 -14.5t18 -33.5q0 -14 -7.5 -26t-19 -20.5t-26 -13.5t-27.5 -5q-22 0 -39 14.5t-17 34.5q0 13 7 24.5t18.5 20t25.5 13.5t29 6z"/>
            <glyph glyph-name="slash" unicode="/" horiz-adv-x="338"
                   d="M551 785q-4 -41 -32.5 -89t-67 -97.5t-78.5 -97.5t-66 -89q-42 -65 -72.5 -116.5t-56.5 -99.5t-50.5 -98.5t-55.5 -113.5q-4 9 -7 18l-4 16t-2 15q0 30 22 72t57 92t78 107.5t85 119.5q22 34 51.5 81t61 101t64.5 111t63 111q3 -2 6.5 -10.5t3.5 -24.5v-8z"/>
            <glyph glyph-name="zero" unicode="0" horiz-adv-x="537"
                   d="M512 775q-15 -16 -37 -50.5t-46.5 -81t-48.5 -102t-43.5 -114.5t-31 -117.5t-10.5 -110.5q1 -32 8.5 -56t19.5 -40.5t26 -25t28 -9.5q33 -2 64.5 32t59.5 90.5t52 129t41.5 147.5t28 146t12.5 125q0 15 -3 29t-9.5 25.5t-16.5 18.5t-24 7t-32 -9.5t-38 -33.5zM457 811
q22 10 51 18.5t60 8.5q26 0 49.5 -8.5t41.5 -28.5t28.5 -54.5t11.5 -86.5q1 -70 -16.5 -147t-48.5 -151.5t-73 -142t-90 -119t-99.5 -82.5t-101.5 -32q-20 0 -46.5 11t-50 36.5t-40 67.5t-16.5 104q0 47 10.5 103.5t30.5 115t49 116.5t67 109.5t84 93.5t99 68z"/>
            <glyph glyph-name="one" unicode="1" horiz-adv-x="396"
                   d="M174 408q-5 23 -9.5 41.5t-6.5 40.5q2 5 2 7.5v4.5q1 19 13 45.5t31.5 55.5t45.5 59.5t55 57t59 48t58 33.5q21 9 40 14t37 8t37 4t42 1l-271 -828h-166l263 775q-28 -24 -58 -52.5t-60 -70t-58.5 -100.5t-53.5 -144z"/>
            <glyph glyph-name="two" unicode="2" horiz-adv-x="523"
                   d="M66 -6q12 65 31 126q8 25 18.5 52.5t23.5 53t28.5 48t33.5 39.5q34 32 69 59t67 53t60.5 53t50 59t34.5 71t14 89q0 15 -2.5 31.5t-10 31t-21.5 24.5t-36 11q-40 1 -71.5 -23.5t-55 -61t-38 -79t-19.5 -78.5q-11 17 -19 31.5t-6 36.5q2 46 26 85t61 67t83.5 42.5
t94.5 12.5q37 -2 70 -9t58.5 -22.5t40.5 -41.5t15 -66q0 -85 -45 -163.5t-125 -132.5q-31 -21 -59.5 -32.5t-57 -21l-58.5 -19.5t-63 -27q-47 -25 -71.5 -66t-47.5 -92q42 8 77 11.5t67 3.5q40 0 79.5 -2t92.5 -3q34 -2 56.5 11.5t36.5 36t21.5 50.5t12.5 56l12 -14
q-3 -28 -8 -58q-5 -26 -11.5 -57t-15.5 -63q-14 -45 -29.5 -69.5t-32.5 -36t-34.5 -13.5t-34.5 -2q-38 0 -68.5 3.5t-58.5 7.5t-54.5 7.5t-57.5 3.5q-26 0 -56 -3t-67 -11z"/>
            <glyph glyph-name="three" unicode="3" horiz-adv-x="533"
                   d="M600 307q-5 -68 -31 -125t-68.5 -98.5t-98.5 -65.5t-121 -26q-34 -1 -68.5 7t-62.5 27.5t-46 52.5t-18 81q0 28 4 49.5t13 38.5t22.5 31t32.5 28h28q-1 0 -10 -14t-19.5 -40t-19 -62.5t-8.5 -81.5q0 -20 7.5 -38.5t21 -32.5t32 -22t39.5 -8q33 0 70.5 30t69 78
t52.5 106.5t22 115.5q0 25 -12 40t-31 23.5t-41 11.5t-43 3q-11 0 -19 -0.5t-15 -0.5q-8 -1 -14 -1l15 33q57 -3 103.5 17t79 59t50.5 94.5t19 122.5q0 7 -1.5 19t-7.5 23.5t-18.5 20.5t-34.5 10q-23 0 -41.5 -7.5t-33.5 -20.5t-28.5 -29t-25.5 -33q-14 -19 -27 -44.5
t-23 -48.5t-16 -40t-7 -18q-7 17 -13 28.5t-4 32.5q2 40 22.5 76t56 63t83.5 42t105 14q36 -1 66.5 -6t53 -19t35.5 -38t13 -62q0 -51 -14.5 -89t-37.5 -66t-53 -47t-61 -31q-73 -28 -166 -31l-9 -7h41q31 0 69 -4.5t70.5 -18t53.5 -38t18 -64.5z"/>
            <glyph glyph-name="four" unicode="4" horiz-adv-x="486"
                   d="M529 801q21 9 48.5 14t52.5 7.5t42 3l17 0.5l-158 -471h10t10 -1q20 1 35.5 3.5t34.5 7.5l-51 -135q-22 -5 -39.5 -6t-40.5 -1l-70 -221h-170l84 227l-254 13q19 42 50.5 95.5t70 111t82.5 114t87.5 104.5t84.5 83.5t74 50.5zM213 363q20 -7 49.5 -9t57.5 -4q17 2 29.5 2
h23.5l148 421q-99 -89 -173.5 -190.5t-134.5 -219.5z"/>
            <glyph glyph-name="five" unicode="5" horiz-adv-x="518"
                   d="M432 355q0 31 -6 48t-16.5 25t-25 9.5t-30.5 1.5q-24 2 -52.5 -6.5t-53.5 -19.5q-29 -12 -59 -28l6 47l135 394q28 -5 52.5 -8t48.5 -5t49 -3t55 -1q41 0 73.5 3.5t73.5 11.5l-61 -131q-41 -16 -74 -22.5t-76 -6.5q-41 0 -72 5t-69 19q-14 -32 -24 -55.5t-21 -54.5
q-6 -15 -12.5 -34.5t-12 -36.5t-9 -29t-3.5 -13q1 1 20 12t47.5 23t63 21t68.5 8q57 -2 88 -20.5t46 -44.5t18 -54t3 -49q-2 -78 -31 -146.5t-77.5 -118.5t-111.5 -79t-132 -29q-29 0 -59 8.5t-54 28t-39.5 51.5t-15.5 80q0 35 10 61.5t23 45t24.5 28.5t14.5 12h26
q-1 0 -9.5 -8t-18 -26.5t-17.5 -48.5t-8 -75q0 -55 22.5 -89.5t65.5 -35.5q40 -1 79 29t69.5 78t49.5 107t19 116v5z"/>
            <glyph glyph-name="six" unicode="6" horiz-adv-x="549"
                   d="M277 111q1 -17 2.5 -32.5t6.5 -27.5t14.5 -20t25.5 -11q15 -3 33.5 12t37.5 43t37 65.5t32.5 79.5t23 85.5t8.5 83.5q0 22 -8.5 46t-24.5 30q-32 12 -58 -3t-47 -46t-37 -72.5t-26.5 -84t-15.5 -80t-6 -60.5q2 -4 2 -8zM656 563l4.5 17.5t10.5 43.5t11.5 56t8.5 56
q2 34 -15.5 58t-46.5 24h-2q-38 -1 -74 -30.5t-68 -73.5t-59 -95.5t-46 -95t-30 -72.5t-10 -29q0 1 13 16.5t37 34.5t58.5 34t76.5 14q52 0 88 -34.5t35 -95.5q-2 -76 -31 -147.5t-76 -127t-107.5 -89t-126.5 -33.5q-38 0 -72.5 17.5t-59.5 48t-38.5 71t-9.5 86.5
q4 65 20.5 133.5t46 135.5t73.5 130.5t104 119.5q25 23 54.5 41.5t60 31.5t61.5 20t60 7q65 0 94 -35.5t29 -89.5q0 -18 -5 -38.5t-11.5 -39t-12 -31.5t-6.5 -14z"/>
            <glyph glyph-name="seven" unicode="7" horiz-adv-x="494"
                   d="M541 672q-30 0 -55 3t-48.5 7t-48.5 7t-55 2q-32 0 -57.5 -2t-57.5 -7l47 129q22 5 38.5 11t39.5 6q34 0 64 -3t59 -7t59.5 -6.5t65.5 -0.5q19 1 42 3.5t43 5t33.5 4.5t14.5 2q0 -2 -7 -26t-23 -60.5t-41.5 -80t-61.5 -83.5q-32 -34 -61.5 -89t-55 -118t-46.5 -127.5
t-36 -117.5t-23.5 -87t-8.5 -37h-195q19 76 40.5 136.5t47.5 111t57 94t69.5 86.5t85 87.5t102.5 97.5q18 17 30.5 32t26.5 35q-23 -3 -42 -5.5t-42 -2.5z"/>
            <glyph glyph-name="eight" unicode="8" horiz-adv-x="549"
                   d="M404 424q-23 2 -45 -13.5t-42 -43.5t-37.5 -64.5t-30 -75t-19.5 -76.5t-7 -69q0 -19 5.5 -32.5t14 -22.5t17.5 -13t15 -4q40 -2 73.5 28.5t58.5 79t39 108t15 114.5q0 40 -12.5 60.5t-44.5 23.5zM361 514q0 -12 2 -24.5t7.5 -23t16 -17t27.5 -6.5q36 0 66 33.5t51 82
t32.5 101.5t10.5 92q0 35 -13 48t-34 13q-20 0 -39.5 -14.5t-38 -39t-34.5 -56t-28 -65t-19 -66t-7 -58.5zM520 824q32 -1 64.5 -4.5t59 -16.5t43 -37t16.5 -65q0 -73 -30 -130t-93 -96q-11 -7 -31 -15.5t-40.5 -16t-35.5 -12.5t-16 -5l12 -1.5t29.5 -7t37.5 -15t36.5 -25
t26.5 -39t8 -55.5q-5 -81 -37 -142t-103 -96q-38 -19 -85.5 -31t-96.5 -14q-37 1 -71 10.5t-59.5 31.5t-40.5 56.5t-14 85.5q1 42 12.5 75t29.5 58t40.5 43t46.5 30q55 29 125 38q-34 16 -60 38q-23 19 -40.5 46t-15.5 64q2 55 23.5 101.5t58 80t87.5 51t113 15.5z"/>
            <glyph glyph-name="nine" unicode="9" horiz-adv-x="557"
                   d="M154 145q1 -43 12 -66.5t26.5 -34.5t32 -13.5t27.5 -3.5q28 -1 54 14.5t48.5 42.5t41.5 61.5t35 70.5q37 84 65 194q0 -1 -14 -17.5t-38 -35.5t-55 -34.5t-65 -13.5q-35 1 -59 14.5t-38.5 35t-20 49.5t-3.5 59q4 71 32.5 139t75 121.5t108 85t130.5 29.5
q38 -2 71.5 -13.5t58.5 -35t38 -58t10 -81.5q-3 -33 -10.5 -77t-20.5 -94t-31 -102.5t-42 -103.5t-53.5 -97.5t-65.5 -83.5q-25 -26 -54 -45t-60 -31.5t-62.5 -18.5t-59.5 -7q-41 0 -70.5 17.5t-49.5 43.5t-30 57t-11 58l2 4v2q1 51 16.5 79t34.5 41q22 15 49 17
q-1 0 -10 -16t-19 -41t-18.5 -54.5t-7.5 -56.5zM588 748v16q0 19 -7 35.5t-36 16.5q-22 0 -43.5 -17t-41.5 -45.5t-36.5 -65.5t-29.5 -77t-20.5 -79.5t-8.5 -72.5v-10.5t-2 -12.5q1 -10 3 -20t7 -18t14.5 -14t24.5 -7q25 -3 48 17t43 53.5t35.5 75.5t26.5 83.5t17 77.5t6 56
v8z"/>
            <glyph glyph-name="colon" unicode=":" horiz-adv-x="264"
                   d="M184 129q13 1 26.5 -4t24 -13t17 -19.5t6.5 -24.5q-1 -18 -8.5 -31.5t-20.5 -22.5t-29 -13.5t-34 -4.5q-13 0 -26 4.5t-23 12t-16.5 18.5t-6.5 24q2 32 28.5 52t61.5 22zM256 334q13 0 25.5 -5t22.5 -13t16 -19t6 -24q-1 -17 -9.5 -32t-21.5 -25.5t-29.5 -16.5t-33.5 -6
q-14 0 -27.5 4.5t-24.5 12t-17.5 18.5t-6.5 24q1 16 10 30.5t23 25.5t31.5 17.5t35.5 8.5z"/>
            <glyph glyph-name="semicolon" unicode=";" horiz-adv-x="262"
                   d="M123 -16q9 2 15.5 6t11.5 10q-11 1 -22 5t-19.5 10.5t-14 16.5t-4.5 23q0 17 7.5 31t20 24.5t28.5 16.5t32 6q28 0 49 -17.5t21 -43.5q0 -22 -14 -40.5t-34.5 -32t-43.5 -21t-41 -7.5q-15 0 -21 6q8 0 14 2zM250 338q25 0 46 -16.5t20 -40.5q0 -18 -8 -34t-21.5 -28
t-30 -19t-33.5 -7q-28 0 -50.5 17.5t-22.5 45.5q0 16 8 31t22 26t32 18t38 7z"/>
            <glyph glyph-name="semicolon" unicode="&#x37e;" horiz-adv-x="262"
                   d="M123 -16q9 2 15.5 6t11.5 10q-11 1 -22 5t-19.5 10.5t-14 16.5t-4.5 23q0 17 7.5 31t20 24.5t28.5 16.5t32 6q28 0 49 -17.5t21 -43.5q0 -22 -14 -40.5t-34.5 -32t-43.5 -21t-41 -7.5q-15 0 -21 6q8 0 14 2zM250 338q25 0 46 -16.5t20 -40.5q0 -18 -8 -34t-21.5 -28
t-30 -19t-33.5 -7q-28 0 -50.5 17.5t-22.5 45.5q0 16 8 31t22 26t32 18t38 7z"/>
            <glyph glyph-name="less" unicode="&#x3c;" horiz-adv-x="646"
                   d="M816 658l-25 -72l-570 -242l424 -231l-22 -64l-498 265l20 67z"/>
            <glyph glyph-name="equal" unicode="=" horiz-adv-x="535"
                   d="M646 387h-505l17 58h506zM602 246h-506l19 59h506z"/>
            <glyph glyph-name="greater" unicode="&#x3e;" horiz-adv-x="643"
                   d="M756 385l-22 -67l-668 -265l22 64l570 231l-422 242l24 72z"/>
            <glyph glyph-name="question" unicode="?" horiz-adv-x="467"
                   d="M232 564q-5 17 -9 28.5t-4 28.5q-1 8 5 27t19 42t34 48t50.5 45.5t68.5 33.5t88 13q34 0 65.5 -7.5t56 -25.5t39.5 -47t15 -72q0 -57 -25 -104.5t-63 -85t-83 -65t-85 -42.5q-57 -23 -89 -49.5t-48 -50.5q-18 -28 -23 -56h-19q6 25 10.5 50.5t10.5 49t15 43t24 34.5
q27 29 66 60.5t74.5 68.5t61 81.5t25.5 98.5q0 40 -20.5 67t-55.5 27q-24 0 -43.5 -8.5t-36 -22.5t-30.5 -32t-27 -37q-16 -22 -28 -46.5t-21 -45.5q-11 -25 -18 -49zM195 131q13 1 26.5 -3.5t24 -12t17.5 -17.5t7 -22q-2 -35 -29 -58.5t-61 -23.5q-28 0 -50.5 16.5
t-22.5 42.5q0 16 7 30t19 24.5t28 16.5t34 7z"/>
            <glyph glyph-name="at" unicode="@" horiz-adv-x="869"
                   d="M371 178q-37 8 -55.5 38.5t-20.5 72.5q3 54 29 106q26 49 69 91t91.5 71t96.5 42.5t85 4.5q12 -3 20.5 -8t13.5 -14.5t8.5 -24.5t6.5 -37l49 74h97q-44 -75 -94 -159.5t-95 -161.5q-8 -13 -15 -28t-9 -26q2 -6 4 -11t10 -7q25 -9 62.5 11t76.5 56t73.5 82t53.5 91
q29 72 29 129q0 51 -23 88t-60 61.5t-82 36.5t-89 12q-61 0 -120 -18t-112.5 -50.5t-99 -76.5t-79.5 -96.5t-54.5 -111t-22.5 -118.5q1 -48 16 -90t43.5 -74.5t68.5 -54t91 -29.5q11 -2 24 -2t26 -2q52 1 105.5 14.5t101.5 36t86.5 52.5t60.5 63h74q-46 -59 -100.5 -100.5
t-112.5 -68.5t-117.5 -39.5t-116.5 -12.5q-14 0 -25.5 1t-23.5 1q-62 7 -111.5 30.5t-84 61t-53 87t-19.5 108.5q2 40 9.5 81t24.5 83q31 80 89 150t131.5 122.5t155 82.5t159.5 30q52 0 106.5 -15.5t98 -45.5t71.5 -75.5t28 -105.5q0 -57 -23 -119q-23 -60 -64 -114.5
t-91.5 -96t-107 -66t-110.5 -24.5q-22 0 -37.5 21t-17.5 47q3 18 6 30q-11 -10 -28 -25t-38.5 -30t-47.5 -25.5t-54 -11.5q-10 2 -19 3t-18 3zM414 209q5 -2 10.5 -2t11.5 -2q25 1 50.5 16.5t49 39.5t44.5 53t39 55q25 38 45 80t20 76q0 20 -12.5 35.5t-32.5 15.5
q-21 0 -45.5 -14t-49.5 -36t-47.5 -48.5t-39.5 -51.5q-28 -40 -50 -86.5t-24 -83.5q2 -17 9.5 -29.5t21.5 -17.5z"/>
            <glyph glyph-name="A" unicode="A" horiz-adv-x="506"
                   d="M387 338q6 39 10.5 69t8 55.5t6 50t5.5 52.5t6.5 63.5t8.5 82.5q-32 -53 -56 -95.5t-45 -84.5t-43 -87.5t-50 -103.5zM-18 0q0 1 6 7.5t14.5 16.5t17 20.5t13.5 19.5q33 56 68.5 121t71.5 133t71.5 134t68 124t62 103.5t53.5 72.5q20 23 47.5 38.5t52.5 25.5q29 11 60 18
q-13 -146 -25 -287q-5 -60 -11 -124.5t-12.5 -127.5t-12.5 -122t-11 -107q-1 -9 0 -20t3 -22l4 -24h-197q23 72 35 147t20 158h-160q-19 -42 -39.5 -83.5t-37.5 -81t-29 -75t-15 -65.5h-118z"/>
            <glyph glyph-name="B" unicode="B" horiz-adv-x="543"
                   d="M223 35h12t15 -2q25 2 47.5 6.5t44.5 15.5t42.5 40.5t37.5 70t28.5 87.5t14.5 93q1 19 -6.5 31.5t-20 20t-28.5 10t-33 2.5q-11 0 -20 -1t-17 -1zM350 449q17 0 30 0.5t25 2t23.5 5.5t24.5 12q21 11 43 40t40 69t30 86.5t12 91.5q0 26 -17 34.5t-40 8.5q-10 0 -18.5 -1
t-15.5 -3l-16 -4zM39 0q8 14 12.5 22t7 13.5l5 11t6.5 14.5q7 15 20 49.5t29 82t35 105t38.5 117t38 118t34 109.5t26.5 90t16 59v14v21h257q32 0 61.5 -2.5t51.5 -11.5t35 -27t13 -49q-2 -70 -25 -120t-56.5 -84t-72 -54t-71.5 -30.5t-55.5 -13.5t-24.5 -2h16q13 0 32.5 -1
t41.5 -4.5t43.5 -10.5t37.5 -18.5t25 -28.5t5 -41q-12 -77 -33 -135t-55 -98t-81 -63.5t-110 -31.5q-9 0 -21.5 -1t-29.5 -1q-38 0 -98 1t-154 1z"/>
            <glyph glyph-name="C" unicode="C" horiz-adv-x="516"
                   d="M287 -2q-38 2 -68 22.5t-51 53t-32 74.5t-11 88q0 49 13 110.5t41 127t70.5 131t102.5 122.5q54 51 118.5 77t121.5 26q31 0 52.5 -5.5t35.5 -14t20.5 -18t6.5 -17.5q0 -26 -10 -58t-22.5 -60t-24 -47.5t-13.5 -19.5l-18 -6q0 1 5.5 16t12 37t12 47.5t5.5 47.5
q0 35 -19.5 61.5t-48.5 26.5q-32 -1 -66 -27.5t-66.5 -71.5t-61.5 -104.5t-51.5 -126.5t-37 -136.5t-16.5 -134.5q-2 -27 3 -55.5t16 -51t29 -37t44 -14.5q28 0 53 20t46.5 50.5t38 66t28.5 66t17.5 50.5l5.5 20q5 -12 10.5 -22t5.5 -25q0 -16 -12 -44t-33.5 -61t-50 -66.5
t-61.5 -60.5t-69 -43t-71 -14z"/>
            <glyph glyph-name="D" unicode="D" horiz-adv-x="596"
                   d="M688 387q-26 -94 -53 -158.5t-55 -107.5t-58.5 -67t-63.5 -36.5t-69 -16.5t-76 -7q-17 0 -36.5 -1t-40.5 -1q-35 0 -69 1t-62 3q-33 2 -62 4q8 16 14.5 29.5t14.5 31.5q10 19 30 73t45.5 125t52.5 151.5t51 154.5t41.5 133t23.5 87v16v29q1 0 26 0.5t60.5 0.5t76 0.5
t74.5 0.5q38 0 72.5 -3t62 -13.5t46 -30t24.5 -53.5q4 -29 -2.5 -72t-18 -91t-25.5 -96t-24 -86zM229 29q4 0 10 -1q5 -1 12 -1.5t15 -1.5q19 2 40.5 5t41.5 11q31 13 62 58.5t59.5 109.5t53 139.5t43.5 148t30.5 136t14.5 103.5q1 19 -5 31.5t-17 19.5t-26 9.5t-30 2.5
q-11 0 -20 -1t-17 -2q-9 -2 -16 -3z"/>
            <glyph glyph-name="E" unicode="E" horiz-adv-x="543"
                   d="M234 43h12q6 0 14 -0.5t19 -1.5q22 1 48.5 2.5t53 5.5t50 11t38.5 18q14 10 29 31.5t28.5 48t25.5 54t21 51t14 38t5 15.5q3 -3 6 -7q2 -5 4.5 -12t2.5 -20q-1 -39 -10 -79t-22.5 -75t-30 -62t-34.5 -40q-9 -6 -29.5 -10.5t-49.5 -6.5t-64.5 -3t-73.5 -1q-63 0 -126 -1
t-126 -1q0 1 3.5 7.5t9 16.5t11 21t9.5 20q9 19 28 71.5t43.5 123t51 150t49.5 152.5t40.5 130.5t22.5 84.5v6q0 12 -1 24t-1 23q31 0 55.5 -1t55.5 -1h24.5t26.5 -2h94q33 0 63 -1.5t52 -6.5t34 -13.5t11 -23.5q-10 -75 -23.5 -116.5t-27 -61t-24.5 -24t-15 -5.5
q8 20 15 43q5 20 10 45.5t6 54.5q1 27 -10 44t-28.5 26t-39.5 12.5t-43 3.5q-13 0 -24 -0.5t-19 -1.5q-10 -1 -18 -2l-117 -346h10.5t11.5 -2q22 2 41 6.5t39 15.5q20 9 36.5 34.5t28.5 51.5q14 31 25 68q5 -8 9 -14t4 -19v-8q-3 -31 -15.5 -76.5t-29 -92.5t-34 -89.5
t-30.5 -67.5q-6 -11 -16 -14t-15 -6q9 24 16 48q6 20 11.5 42.5t5.5 40.5q0 15 -7.5 25t-19 15t-25.5 7t-26 2q-8 0 -13.5 -0.5t-9.5 -0.5q-4 -1 -8 -1z"/>
            <glyph glyph-name="F" unicode="F" horiz-adv-x="453"
                   d="M35 -6q5 12 15 29.5t18 35.5q10 20 29.5 73.5t44 124.5t51 151.5t49.5 154.5t40.5 133t24.5 87v14q0 11 -1 17.5t-1 15.5h291q28 0 52.5 -2t42 -7t26.5 -14t8 -24q-11 -76 -26.5 -119t-29 -64.5t-23.5 -26.5t-11 -5q8 22 15 48q6 21 11 48t7 55q1 26 -9.5 42.5
t-28.5 25.5t-40.5 12.5t-44.5 3.5q-15 0 -27.5 -1t-22.5 -2q-11 -2 -20 -3l-118 -350h10.5t11.5 -2q22 2 41 6.5t39 15.5q22 11 40 37t32 52q16 31 28 67q0 -4 1 -6.5t2.5 -5.5t2.5 -8.5t1 -14.5q-1 -19 -6.5 -47t-14 -60t-20 -65.5t-24 -64.5t-24.5 -56t-22 -41
q-11 -17 -17.5 -19.5t-9.5 -2.5q1 0 5.5 13.5t10 33.5t10.5 43t7 43q1 17 -6 27.5t-18.5 16t-25.5 7.5t-28 2q-7 0 -12.5 -0.5t-10.5 -0.5q-5 -1 -10 -1q-32 -100 -57 -180q-11 -34 -21 -67.5t-18 -60.5t-13 -45t-5 -22q-2 -14 -3 -24.5t-1 -22.5h-51.5t-45.5 2
q-23 -2 -46 -2h-54z"/>
            <glyph glyph-name="G" unicode="G" horiz-adv-x="574"
                   d="M230 -14q-25 0 -47.5 13.5t-39.5 38.5t-27 61.5t-9 82.5q1 66 20 142.5t51.5 150t76 137.5t91.5 107q41 35 77 57t68 34t61.5 16t58.5 4q31 0 49.5 -3t29 -8.5t14 -12.5t3.5 -15q1 -26 -6 -57.5t-17 -60.5t-21 -51.5t-18 -29.5l-34 -20q1 0 7.5 16.5t13.5 40.5t12.5 51.5
t5.5 48.5q-2 35 -17.5 55.5t-44.5 22.5q-40 2 -77.5 -27.5t-70.5 -80.5t-60.5 -116.5t-48.5 -135.5t-34.5 -138t-17.5 -123q-3 -40 10.5 -67t44.5 -27q23 0 46 23t44 56.5t39 73t31 73t20 56l7 22.5l155 20q-40 -108 -73.5 -210t-59.5 -214q-28 17 -50 38q-19 17 -34 41
t-14 50q0 9 1.5 19.5t3.5 20t3.5 16t1.5 7.5q-30 -56 -66 -99q-15 -19 -33 -36.5t-38.5 -31.5t-42.5 -22.5t-45 -8.5z"/>
            <glyph glyph-name="H" unicode="H" horiz-adv-x="629"
                   d="M348 402q-10 -32 -22.5 -69.5t-25 -75.5t-24 -74t-20.5 -64.5t-14.5 -48t-5.5 -23.5q-2 -14 -3 -24t-1 -21q-97 0 -197 -6q9 18 16 32.5t15 32.5q10 20 30.5 74.5t46.5 127t54 155t52.5 157.5t42.5 134.5t24 87.5v16v21q27 -3 54.5 -4.5t55.5 -3.5q22 2 41 3t39 1
q-6 -13 -13.5 -23t-12.5 -24q-24 -64 -40 -108t-26.5 -74.5t-17 -49.5t-11 -34t-9 -28.5t-11.5 -31.5q25 -5 50 -7.5t50 -2.5t50 2.5t51 5.5q4 14 17 52.5t28 87.5t30.5 101.5t24.5 94.5v16v21q23 -2 47.5 -2t48.5 -2q25 2 49.5 2h47.5q-5 -13 -12.5 -23t-12.5 -24
q-25 -64 -52 -142t-54 -158.5t-51.5 -156.5t-43.5 -136.5t-30 -98.5t-11 -42q0 -14 -2 -24.5t-2 -22.5h-184q41 98 81.5 197t63.5 203q-18 5 -37 6.5t-39 1.5q-32 0 -64 -2t-61 -2z"/>
            <glyph glyph-name="I" unicode="I" horiz-adv-x="348"
                   d="M262 2h-186q9 16 15.5 29t13.5 30q7 15 20.5 50t30 82.5t35.5 105t38.5 117t38 118t34 109.5t26.5 90t16 60v16v21q26 -3 53.5 -4.5t55.5 -3.5q22 2 41.5 3t38.5 1q-6 -13 -13 -23t-12 -24q-25 -64 -52 -142t-54 -158.5t-51 -156.5t-43 -136.5t-30.5 -98.5t-11.5 -42z
"/>
            <glyph glyph-name="J" unicode="J" horiz-adv-x="307"
                   d="M94 29q7 15 20 51t30 85.5t37 109t40 121t39.5 122t35.5 113t27.5 93t16.5 61.5v16v29q19 0 39.5 -1t40.5 -3q28 2 53 3t48 3q-5 -14 -12.5 -24.5t-12.5 -24.5q-25 -64 -50 -142.5t-50.5 -161.5t-50.5 -165t-48.5 -152.5t-45 -124t-40.5 -80.5q-26 -36 -55 -59
t-59.5 -36.5t-60 -18.5t-56.5 -5q-23 0 -42 2.5t-33 5.5q-17 4 -30 8v21q15 -3 28.5 -4.5t28.5 -1.5q27 0 49 9t41 28t36.5 49.5t35.5 73.5z"/>
            <glyph glyph-name="K" unicode="K" horiz-adv-x="553"
                   d="M350 404q-10 -32 -22.5 -74t-27.5 -90t-31 -98.5t-33 -98.5q-5 -12 -5.5 -22.5t-0.5 -24.5q-32 2 -64.5 3t-67.5 1h-53q0 2 11 22.5t20 40.5q7 15 20 49.5t29.5 81.5t35.5 104t38.5 116.5t37.5 118t33.5 109t26.5 89.5t16 60v16q0 10 -1 15.5t-1 11.5q26 -3 53.5 -4.5
t55.5 -3.5q22 2 41.5 3t38.5 1q-43 -94 -77 -192.5t-60 -198.5q14 3 34 6t52 20q26 13 44 39t31.5 58t24 67.5t21 69t22.5 61.5t29 45q17 14 47 19.5t59 5.5q14 0 26 -0.5t20 -1.5q10 -1 18 -2q-14 -13 -26 -24t-23 -29q-21 -39 -35.5 -76t-27.5 -71.5t-27 -66.5t-35 -63
q-9 -14 -26.5 -24.5t-38.5 -18.5t-43 -13.5t-40 -9t-30 -5t-13 -1.5q52 0 92 -11q17 -5 34 -12t30 -17.5t21 -25.5t8 -34q0 -32 -10.5 -66.5t-22.5 -70t-22.5 -69t-10.5 -61.5q0 -17 4 -25.5t11 -13t15.5 -8t16.5 -10.5q-11 -2 -25 -3q-24 -3 -61 -3q-23 0 -46 3t-41 11.5
t-29.5 22.5t-10.5 37q1 32 16 66.5t33.5 70.5t35 73t20.5 74q1 16 -10.5 26t-29.5 16t-39.5 8t-39.5 2h-15z"/>
            <glyph glyph-name="L" unicode="L" horiz-adv-x="523"
                   d="M248 41q8 0 19 -1q17 -1 47 -3q19 1 40 2.5t41.5 5.5t39 10t32.5 15q16 12 33 35t32 51t28 57.5t23 54t15.5 40.5l5.5 16q3 -3 6 -9q2 -5 4 -14t1 -22q-3 -42 -13.5 -88.5t-25 -86.5t-32 -67.5t-34.5 -30.5q-34 -5 -87.5 -6.5t-115.5 -2t-128.5 -0.5t-125.5 -1
q8 19 14 34t15 34q10 20 29 73.5t42.5 124.5t48.5 152t46.5 155t37.5 133.5t21 88.5q2 15 2 21.5v17.5h189q-8 -13 -15 -26t-12 -27q-18 -48 -37.5 -105.5t-38.5 -118t-37.5 -122t-34.5 -118.5q-39 -134 -75 -272z"/>
            <glyph glyph-name="M" unicode="M" horiz-adv-x="746"
                   d="M764 656q-57 -83 -109.5 -166t-104.5 -167t-106 -168.5t-114 -168.5q-9 71 -12.5 153.5t-3.5 171.5q0 91 2.5 179.5t5.5 169.5q-27 -78 -55 -157.5t-54.5 -159.5t-49 -160.5t-38.5 -162.5q2 -6 2 -11.5v-10.5q-14 2 -25.5 2h-25.5h-25t-26 -2q12 23 23 43.5t18 40.5
q44 114 88.5 227.5t80.5 208.5t58.5 160.5t22.5 83.5q0 11 -5 22t-11 20q-7 11 -15 20q26 -2 50.5 -3t49.5 -3q22 2 44 3t46 3l-14 -554q22 31 53 76t65 96t68 105.5t64 104.5t52 93.5t32 72.5q45 0 89.5 1t90.5 1q-6 -13 -13.5 -23t-12.5 -24q-68 -186 -124.5 -374
t-103.5 -379q2 -9 2 -16v-16q-26 2 -56 3t-62 3q-20 -2 -41 -2t-39 -2q11 18 21.5 33t17.5 36q23 66 41 117.5t33 96t28.5 85t27.5 85t31 96t39 117.5z"/>
            <glyph glyph-name="N" unicode="N" horiz-adv-x="574"
                   d="M820 824q-48 -101 -86.5 -205.5t-75 -210t-73 -211.5t-79.5 -209q-22 30 -40 76t-33.5 102.5t-28.5 120t-25.5 127.5t-25 125.5t-25.5 114.5q-27 -77 -51.5 -148.5t-47 -142.5t-43 -144t-40.5 -153q0 -3 -1 -12t-2 -19.5t-1.5 -20.5t-0.5 -14h-100q12 22 22 42t19 42
q45 115 86 224t72 200t49.5 157t17.5 95q0 11 -6.5 22.5t-14.5 20.5q-9 11 -20 21l99 -6q23 2 44 3t40 1l112 -595q26 70 49.5 137t43.5 135.5t36.5 139t28.5 148.5v8q0 9 -1 15t-1 14h31t41 -2q12 2 20 2h11z"/>
            <glyph glyph-name="O" unicode="O" horiz-adv-x="543"
                   d="M512 777q-14 -16 -36 -50t-46.5 -80.5t-49 -102.5t-44 -114.5t-32 -117.5t-11.5 -111q0 -32 8 -55.5t20 -39.5t27 -24.5t29 -9.5q32 -2 63.5 32t59.5 90.5t52 128.5t42 146.5t28.5 145t12.5 123.5q0 15 -3 29t-9.5 25.5t-16.5 18.5t-24 7t-32 -9t-38 -32zM459 811
q22 10 51 19.5t58 9.5q26 0 49.5 -8.5t41.5 -29.5t29 -55.5t11 -86.5q1 -70 -16.5 -147t-48.5 -151.5t-73 -142t-90 -119t-99 -82.5t-101 -32q-19 0 -45 11t-50 37t-40.5 67.5t-16.5 103.5q0 47 10.5 103.5t30.5 115.5t49.5 117t67.5 109.5t83.5 93t98.5 67.5z"/>
            <glyph glyph-name="P" unicode="P" horiz-adv-x="508"
                   d="M330 332q34 0 63 3.5t54 18.5q23 14 43.5 44t37.5 67t31 78.5t24 79.5t15.5 69t6.5 48q1 18 -5.5 29.5t-17.5 18t-24.5 9t-26.5 2.5q-10 0 -18 -0.5t-14 -1.5q-7 -1 -13 -2zM236 51q-5 -14 -6 -25t-1 -30q-27 1 -49.5 1.5t-43 0.5h-40h-41.5q79 190 143 384t124 391
q0 3 1 6t1 8q0 12 -5 20.5t-5 16.5h38q57 0 115 1t115 1q47 0 79 -3.5t51.5 -13.5t28 -29t7.5 -50q-1 -58 -16.5 -120.5t-45 -119t-72 -100t-96.5 -62.5q-27 -11 -66.5 -18t-84.5 -9q-11 2 -23 2t-24 2q-23 -66 -41 -121q-8 -23 -15.5 -46t-13.5 -41.5t-9.5 -30.5t-4.5 -15z
"/>
            <glyph glyph-name="Q" unicode="Q" horiz-adv-x="537"
                   d="M344 141q-15 2 -21.5 -6.5t-11.5 -17.5q6 -9 11 -19.5t11 -19.5t14.5 -15.5t21.5 -7.5q5 2 8 3t8 1q-1 9 -4.5 22.5t-9 27t-12.5 23t-15 9.5zM635 744q0 15 -3 29.5t-9.5 26t-16.5 19t-24 7.5t-32 -10.5t-38 -34.5q-15 -16 -37 -50.5t-46.5 -81t-49 -102t-44 -114.5
t-31 -117.5t-9.5 -110.5q0 -23 3.5 -40.5t6.5 -31.5q19 14 34 14.5t26 2.5q21 1 42 -16t29 -42q20 16 42.5 55.5t44 94t41.5 120t35 132.5t24.5 131.5t11.5 118.5zM391 23q-50 -31 -98 -31q-36 0 -66 18t-51 49t-33 72.5t-12 87.5q0 48 10.5 104t30.5 114t49 115t66 107
t81 90.5t95 64.5q20 9 45 16.5t51 7.5q25 0 49 -8.5t42.5 -30.5t30 -58.5t12.5 -92.5q1 -70 -12.5 -137.5t-35 -128t-49.5 -113t-55.5 -94t-52.5 -69.5t-41 -40q4 -21 9.5 -46.5t15.5 -48t26.5 -39t42.5 -20.5q14 -2 29.5 5t29.5 15q16 10 31 23q0 -5 -11.5 -26t-30.5 -44
t-45 -42t-54 -19q-35 0 -52 22t-25 53t-11.5 65t-10.5 59z"/>
            <glyph glyph-name="R" unicode="R" horiz-adv-x="570"
                   d="M354 408q-31 -96 -55 -173q-11 -33 -20.5 -65t-17.5 -58t-13 -43t-6 -20q-3 -15 -3.5 -22.5t-2.5 -12.5q2 -5 2 -8.5v-11.5q-22 3 -45 3.5t-48 2.5q-26 -2 -49 -2t-45 -2q42 92 77 188t66 193.5t60 195.5t59 195q0 2 0.5 6t0.5 9q0 14 -3.5 24t-3.5 19h37q57 0 115 1
t115 1q46 0 77.5 -3.5t50.5 -14t26.5 -29t5.5 -49.5q-2 -26 -9.5 -65t-26 -79.5t-52 -76t-87.5 -54.5q-18 -6 -43.5 -12t-49.5 -10.5t-41.5 -7.5t-18.5 -3h32q22 0 52 -3.5t57 -14.5t46 -32t20 -56q1 -39 -8 -71t-20.5 -62t-22 -61.5t-11.5 -70.5q-1 -14 4.5 -23.5
t13.5 -16.5q8 -8 19 -13q-11 -2 -23 -3q-21 -3 -55 -3q-22 0 -44.5 3t-40.5 12t-29.5 24t-10.5 39q2 42 18 79.5t35 72t34 67.5t16 66q0 17 -8.5 27.5t-22 16t-29.5 7.5t-32 2t-28.5 -1t-13.5 -1zM365 439q38 3 71 13t56 32q21 18 38.5 49.5t31 69t22.5 76.5t14 73
q1 15 -4.5 25t-15.5 16t-23 8t-26 2q-9 0 -17 -0.5t-14 -1.5l-14 -2z"/>
            <glyph glyph-name="S" unicode="S" horiz-adv-x="512"
                   d="M232 582q0 55 24.5 100.5t65 78.5t92.5 51t107 18q23 0 47 -5t43.5 -13.5t31.5 -20.5t11 -27q-10 -72 -24 -110.5t-28 -56.5q-16 -21 -34 -25q1 2 5 16t8 34t7 42.5t2 42.5q0 18 -1.5 36t-8 32.5t-21 23t-39.5 8.5q-27 0 -50.5 -12t-40.5 -31.5t-26.5 -45t-9.5 -52.5
q0 -39 13 -73.5t33 -67.5t43.5 -66t43.5 -67.5t34 -72t16 -79.5q1 -56 -27.5 -101t-73 -77.5t-98.5 -50t-104 -17.5h-3q-27 1 -57 4t-55 11.5t-40.5 23.5t-13.5 41q3 76 14.5 120.5t24.5 68t24 30t13 6.5q-1 -2 -4 -16t-6.5 -35t-6.5 -45t-3 -45q0 -71 31.5 -104t81.5 -33
q30 0 54.5 12.5t42.5 33.5t28 47.5t10 55.5q0 34 -13 67.5t-32.5 67.5t-42 68t-42 68.5t-33 69.5t-13.5 71z"/>
            <glyph glyph-name="T" unicode="T" horiz-adv-x="484"
                   d="M428 787q-2 0 -6 1q-3 0 -7 0.5t-9 0.5q-11 0 -26 -3.5t-31.5 -13.5t-33.5 -28.5t-32 -48.5q-10 -20 -19.5 -45t-17 -47.5t-12 -38.5t-4.5 -17q-4 5 -8 12q-3 6 -5.5 14t-1.5 19q1 12 8 42t18 64t24.5 64t25.5 43q11 10 43.5 13.5t71.5 3.5h51t47 -2h20.5t18.5 -2
q34 0 63.5 1t51.5 1q29 0 45 -5t16 -24q0 -25 -5 -52.5t-13 -55.5t-18.5 -54.5t-22.5 -48.5q-11 -22 -19 -25t-14 -6q9 29 17 60q7 26 12.5 58t5.5 62q0 19 -7 31t-17 18.5t-21.5 8.5t-20.5 2h-16q-65 -186 -122 -372t-104 -378q-2 -14 -3 -24.5t-1 -22.5q-45 5 -87.5 5.5
t-86.5 0.5q75 193 136 390.5t116 398.5z"/>
            <glyph glyph-name="U" unicode="U" horiz-adv-x="650"
                   d="M209 570q0 5 -3 12.5t-3 15.5q0 9 8 30.5t23 47.5t35.5 54.5t45 51.5t53 37.5t58.5 14.5q31 -2 54 -24t20 -56q-4 -40 -20 -86t-38 -96.5t-47 -103.5t-47 -106.5t-38.5 -106t-20.5 -101.5q-2 -17 6.5 -33.5t30.5 -18.5q18 2 41.5 16.5t54.5 51.5q45 53 81.5 130t70 165.5
t65 181.5t66.5 179h38.5t39.5 -2q21 2 40 2t38 2q-11 -21 -28.5 -62.5t-38 -95t-42.5 -115t-42.5 -124t-38.5 -121.5t-30.5 -107.5t-17.5 -81.5t0 -43q2 -5 4.5 -6.5t5.5 -3.5q9 1 20 14.5t22 33t21.5 41t18.5 38.5q13 29 19.5 54t11.5 56q3 -8 7.5 -14.5t4.5 -17.5v-3
q-4 -33 -16.5 -67t-31.5 -65t-41.5 -57.5t-45.5 -46t-43.5 -30.5t-36.5 -10q-20 1 -33 9.5t-21 22.5t-11.5 32t-4.5 38q1 30 6 60t11 55q7 28 16 55q0 -1 -12 -22t-33.5 -51.5t-51 -66t-64 -66t-72 -50.5t-74.5 -20q-18 0 -35 6t-30.5 18.5t-22 32t-7.5 47.5q1 43 19 96.5
t44 111.5t56.5 118.5t57 118.5t45.5 111.5t22 97.5q0 15 -2 21t-10 6t-18 -7.5t-20 -18.5t-18.5 -23t-13.5 -21q-11 -18 -21 -41t-18 -44q-10 -25 -18 -50z"/>
            <glyph glyph-name="V" unicode="V" horiz-adv-x="484"
                   d="M414 828q-5 -47 -7.5 -102t-4.5 -117q2 -96 6.5 -195.5t9.5 -192.5q41 55 76.5 125.5t63 150.5t46 167.5t25.5 177.5q16 -9 28 -20q11 -10 19.5 -24.5t7.5 -33.5q-5 -72 -36 -158.5t-74 -175t-92 -171.5t-91 -147.5t-69.5 -103.5t-28.5 -39q-11 106 -19 204t-13.5 194
t-9 193.5t-5.5 203.5q-2 3 -6 12.5t-9 20t-9.5 19.5t-6.5 12h199z"/>
            <glyph glyph-name="W" unicode="W" horiz-adv-x="781"
                   d="M275 -12q-11 73 -16 150.5t-7.5 154t-2.5 150t-1 138.5t-3 118.5t-9 89.5q-2 11 -8 23t-9 20h197q-16 -37 -21.5 -104t-7.5 -152q2 -76 5 -162t4 -170q37 79 69 141t54.5 115.5t35.5 102.5t13 102q0 34 -4.5 64t-16.5 61h183q-7 -15 -12 -42.5t-8 -64.5t-4.5 -80.5
t-2.5 -89.5q1 -48 2.5 -95.5t3 -90t3 -78t3.5 -59.5q80 148 131 294.5t70 307.5q17 -7 29 -18q11 -9 19.5 -23t6.5 -33q-6 -71 -35.5 -156t-70.5 -170.5t-88 -165.5t-87 -142t-66.5 -99t-27.5 -37q-15 59 -21.5 119t-8.5 120.5t-2 121t-3 122.5q-20 -38 -43.5 -83t-49 -92
t-51.5 -94t-51 -88t-48.5 -74t-42.5 -52z"/>
            <glyph glyph-name="X" unicode="X" horiz-adv-x="467"
                   d="M426 512q26 39 46.5 70.5t41 67t43 80t52.5 108.5q1 -2 6.5 -4.5t12 -7.5t11.5 -14t4 -23q-3 -37 -27 -82.5t-56.5 -91t-67.5 -86t-60 -66.5q10 -118 30.5 -232t43.5 -229h-86h-44t-42 -2v4t-2 4q2 10 3 20t1 21q-2 22 -4.5 55.5t-6 71t-7.5 76t-9 70.5
q-52 -82 -99 -165.5t-99 -166.5q-9 6 -16 14q-6 7 -10.5 17t-2.5 24q3 33 27 75.5t58 87.5t70.5 88t65.5 77l-6 48t-9.5 71.5t-12.5 83t-14 83t-14 71t-13 47.5q-8 28 -19 49h31t31 -2q34 2 66 3.5t63 4.5q0 -12 -4 -21t-6 -26q2 -2 2 -6q3 -42 7 -76t8 -65.5t7.5 -61.5
t5.5 -64z"/>
            <glyph glyph-name="Y" unicode="Y" horiz-adv-x="461"
                   d="M664 842q25 -21 32 -37.5t7 -27.5v-9q-8 -36 -27.5 -72.5t-46 -76.5t-57.5 -84.5t-62 -95.5q-52 -85 -91.5 -183t-63.5 -195q-1 -11 -1 -18.5t-2 -13.5q2 -8 2 -13.5v-17.5q-24 2 -46 3t-44 1q-24 0 -47.5 -1t-48.5 -3q8 9 12.5 16t7.5 13t5 12t6 14q25 61 42.5 112
t28 97t15 87.5t4.5 82.5q0 38 -3.5 76.5t-9 80.5t-13 88.5t-15.5 99.5q-2 15 -7.5 25.5t-10.5 23.5h45t41 -2q24 2 45.5 2h46.5q-3 -13 -5.5 -23.5t-2.5 -27.5q2 -29 5.5 -67.5t7.5 -80t8.5 -82.5t8 -75t6 -57t3.5 -28q43 59 75 114.5t58 110.5t48 112t44 120z"/>
            <glyph glyph-name="Z" unicode="Z" horiz-adv-x="547"
                   d="M191 617q2 26 9.5 55.5t18.5 57t25 49t29 32.5q23 13 44.5 15t47.5 2h289q-91 -199 -185 -393t-190 -390q14 -2 27.5 -3t27.5 -3q71 3 135 43q21 14 38 37t30 49.5t22 53t14.5 49t8 37t2.5 16.5q1 -2 4 -2t6 -3.5t6 -13t4 -30.5q0 -43 -11 -87t-25.5 -80t-29.5 -60.5
t-22 -29.5q-17 -11 -28 -15.5t-31 -4.5h-375q99 204 199 403t203 400q-10 0 -21.5 1t-23.5 1q-33 0 -62 -8.5t-55 -28.5q-27 -21 -48.5 -54t-37 -65.5t-23.5 -56.5t-8 -27q-8 13 -11 22.5t-5 19.5q2 5 2 7.5v4.5z"/>
            <glyph glyph-name="bracketleft" unicode="[" horiz-adv-x="287"
                   d="M-27 -158q41 115 82.5 239.5t81.5 252t77 254t69 246.5q26 0 53.5 -2t54.5 -2h11t12 -2q28 2 55 3t52 1l-11 -37h-37q-19 0 -37 -2t-33 -8t-26 -18t-16 -33l-246 -789q-3 -10 -4.5 -17.5t-3.5 -15.5q0 -19 13.5 -25t33.5 -6q14 0 27.5 1t27.5 1h16l-12 -39q-25 0 -51 1
t-55 3q-5 -2 -11 -2h-12q-28 0 -55.5 -2t-55.5 -2z"/>
            <glyph glyph-name="backslash" unicode="\" horiz-adv-x="408"
                   d="M352 426q8 -42 20.5 -88.5t24.5 -92.5t20.5 -88t8.5 -75q0 -12 -1 -22.5t-3 -18.5q-4 -9 -10.5 -18.5t-13.5 -17.5q-8 -10 -17 -19q-2 62 -4 109.5t-5.5 94t-11 99.5t-20.5 125q-6 33 -19 71.5t-26.5 79.5t-23.5 82.5t-11 79.5q2 17 3.5 32t6.5 28q5 15 10 23t8.5 11.5
t6 4.5t2.5 2q6 -59 10.5 -104t10 -89.5t13 -93.5t21.5 -115z"/>
            <glyph glyph-name="bracketright" unicode="]" horiz-adv-x="293"
                   d="M521 834q-41 -116 -82.5 -240.5t-81.5 -251.5t-77.5 -253.5t-68.5 -246.5q-26 0 -53.5 2t-53.5 2h-12t-14 2q-26 -2 -53 -3t-52 -1l11 37h36q18 0 36 2t33.5 8t27 18t16.5 32l246 789q6 21 6 34q0 19 -12.5 25t-34.5 6q-12 0 -25.5 -1t-27.5 -1h-15l11 39q25 0 51.5 -1
t52.5 -3q8 2 13.5 2h11.5q28 0 55.5 2t55.5 2z"/>
            <glyph glyph-name="asciicircum" unicode="^" horiz-adv-x="293"
                   d="M285 705q-6 28 5 48.5t30.5 35.5t44 25.5t47.5 17.5q25 -14 44 -30q17 -14 30.5 -30.5t13.5 -33.5q0 -10 -3.5 -17t-8.5 -16q-14 32 -33 61.5t-41 57.5q-43 -26 -70.5 -57t-58.5 -62z"/>
            <glyph glyph-name="underscore" unicode="_" horiz-adv-x="689"
                   d="M6 -150h711v-16h-711v16z"/>
            <glyph glyph-name="grave" unicode="`" horiz-adv-x="223"
                   d="M426 727q-1 0 -18 3.5t-38 11t-38.5 20.5t-18.5 31q0 14 2 20.5t7 14.5z"/>
            <glyph glyph-name="a" unicode="a"
                   d="M545 645q-22 0 -41 -2.5t-39 -13.5q-35 -19 -72.5 -67.5t-68 -112.5t-49.5 -136t-17 -139q0 -37 11.5 -53t17.5 -14q34 11 66.5 55t61.5 103.5t53 126.5t41.5 123t27 93t8.5 37zM693 662q0 -1 -5.5 -16.5t-15 -41t-21.5 -59t-24.5 -69.5t-24.5 -71.5t-22 -66.5
q-9 -29 -20.5 -64.5t-22.5 -70t-18.5 -65.5t-8.5 -52q3 -23 17 -23q7 0 17.5 11t22 27.5t22 37t16.5 39.5q11 31 19 56t13 57l8 -10l6 -10t3 -9q-12 -60 -38.5 -109.5t-59 -85.5t-66 -55.5t-60.5 -19.5q-14 0 -22 8t-12 22t-6 32t-3 38q-1 15 1.5 35t5.5 37q4 20 8 41
q-42 -60 -82 -108q-17 -20 -36 -39.5t-37.5 -34.5t-36 -24t-32.5 -9q-30 1 -46.5 17t-24 38t-8.5 46.5t-1 43.5q-2 64 16.5 137.5t52 141t80 121.5t101.5 80q25 12 48 21.5t45.5 15.5t46.5 9t53 3z"/>
            <glyph glyph-name="b" unicode="b" horiz-adv-x="506"
                   d="M465 578q-13 8 -34.5 -11t-47 -56.5t-51.5 -89.5t-48 -109.5t-38 -116.5t-21 -111q-2 -23 1 -36.5t9 -20.5t13 -9t12 -2q21 0 46.5 24t51 63.5t49 90.5t42 106t29.5 109.5t12 100.5q0 22 -3 39.5t-22 28.5zM453 830q-35 -97 -68.5 -194.5t-62.5 -196.5l10.5 18t29 44.5
t42.5 56t51.5 54.5t56.5 40.5t56 11.5q40 -5 54.5 -36t12.5 -87q-3 -63 -20 -127t-44.5 -123.5t-65 -111.5t-80 -91t-89 -62.5t-92.5 -25.5q-17 0 -41 3t-46 15t-38 35.5t-17 65.5q2 5 2 8v6q2 37 17.5 103.5t38 143.5t48 156.5t48 144.5t37.5 106t16 41z"/>
            <glyph glyph-name="c" unicode="c" horiz-adv-x="412"
                   d="M111 166q0 38 10.5 89.5t31.5 107.5t53 111.5t75 101.5q40 45 76.5 69.5t81.5 26.5q27 0 42.5 -13t23 -30.5t9.5 -36t2 -29.5v-6q0 -49 -8 -75.5t-18 -39.5q-11 -15 -25 -18q9 32 16 62q6 26 11.5 51.5t5.5 42.5q0 29 -5 50t-24 20q-14 -1 -35 -22t-44 -57t-46 -84
t-41.5 -101.5t-30.5 -110t-14 -109.5q-1 -21 1.5 -43.5t9.5 -40.5t20 -29.5t33 -11.5q17 0 31.5 11t27 28.5t23 40t19.5 46.5q19 55 34 126q3 -5 6 -8.5t5.5 -7t4 -9t0.5 -14.5q-1 -13 -7.5 -37.5t-19.5 -54.5t-33 -61t-46 -56.5t-59.5 -41.5t-73.5 -15q-33 0 -56.5 13.5
t-38.5 37.5t-21.5 56.5t-6.5 70.5z"/>
            <glyph glyph-name="d" unicode="d" horiz-adv-x="574"
                   d="M543 641q-37 -2 -59 -7.5t-43 -20.5q-38 -27 -72 -79t-59.5 -113.5t-41 -125t-16.5 -113.5q0 -13 1 -25.5t4.5 -22.5t10 -16.5t17.5 -6.5q24 0 49 27.5t48.5 70t44.5 93t36 96.5q13 40 24.5 69.5t21 55.5t18 53.5t16.5 64.5zM613 828h149q-1 -2 -10.5 -23.5t-24 -56
t-32.5 -79t-36 -92.5t-34.5 -97t-28.5 -93q-10 -36 -23.5 -79.5t-25.5 -85.5t-21 -78.5t-10 -59.5q3 -23 13 -23q9 0 20 11t22 28t21.5 36.5t18.5 37.5q14 31 21.5 56.5t10.5 60.5q3 -8 7 -15q2 -7 4.5 -14t1.5 -12q-7 -46 -32 -93.5t-58 -85.5t-68.5 -61.5t-63.5 -21.5
q-15 1 -24.5 8t-15.5 18t-8.5 24.5t-2.5 25.5q-1 24 3 51.5t9 51.5t9.5 41t5.5 21q-4 -5 -15 -24t-28 -45t-39 -55t-47.5 -54t-52.5 -41t-54 -16q-37 0 -57 39t-15 108q3 67 17.5 132t37.5 121.5t54.5 101.5t69.5 74q66 50 129.5 71t144.5 21z"/>
            <glyph glyph-name="e" unicode="e" horiz-adv-x="445"
                   d="M467 648q-15 -3 -31.5 -19t-32.5 -39.5t-31 -51.5t-26.5 -53.5t-20 -47t-11.5 -31.5q43 -4 74 19t51 57t30 71.5t10 63.5q0 2 -0.5 8t-2 11.5t-3.5 9t-6 2.5zM266 168q-2 -21 2 -43.5t13 -40.5t23.5 -29.5t35.5 -11.5q18 0 33.5 11t29 29t25 40.5t20.5 45.5q22 55 38 124
q3 -6 6 -9.5t6 -7.5t4.5 -9.5t1.5 -14.5q0 -15 -8.5 -40t-24.5 -54t-40 -58.5t-53.5 -53.5t-65 -39.5t-74.5 -16.5q-33 0 -57 12.5t-39.5 34.5t-23 53t-7.5 68q0 39 10 92t31 110t54.5 112.5t80.5 99.5q62 57 120.5 75.5t104.5 18.5q29 0 45.5 -8t24 -19.5t9 -23t1.5 -17.5
q-3 -56 -27 -96t-62.5 -65.5t-88 -37.5t-103.5 -10q-10 -20 -19 -51q-8 -26 -15.5 -68t-10.5 -102z"/>
            <glyph glyph-name="f" unicode="f" horiz-adv-x="311"
                   d="M230 635h51q11 61 36.5 99t57 59t65 28t62.5 7q23 0 40 -2t24 -4l-3 -23q-8 2 -16 3t-16 1q-24 0 -42 -13.5t-31.5 -36.5t-23.5 -53.5t-18 -64.5h47l-8 -28h-53q-48 -162 -80.5 -281t-55.5 -204.5t-40 -142.5t-33 -94q-8 -17 -36 -25.5t-58 -13.5q-35 -5 -78 -6
q63 193 125 383t125 382h-50z"/>
            <glyph glyph-name="g" unicode="g" horiz-adv-x="531"
                   d="M264 -98q17 10 32.5 28t29.5 41t26 48.5t22 50.5q24 59 42 127q-43 -55 -84 -98q-18 -18 -37 -36t-37.5 -32t-36.5 -23t-33 -10q-24 -1 -40.5 16t-26 41.5t-13.5 51t-4 45.5q0 64 19.5 134t54 133.5t81.5 114.5t102 77q34 16 64 25.5t58 15t55.5 7t57.5 1.5h119
q0 -2 -11 -36.5t-27.5 -84.5t-36 -107t-35.5 -102q-23 -66 -41 -127.5t-37.5 -116t-43.5 -99.5t-59 -78.5t-84.5 -54t-120.5 -24.5q-16 -1 -40 3t-51 12t-54.5 19t-50.5 25l4 27q34 -17 69.5 -27t69.5 -10q58 0 98 23zM572 641h-17q-21 0 -39 -4t-37 -12q-19 -9 -42.5 -32.5
t-47.5 -57t-46.5 -75t-40 -87t-27.5 -92.5t-9 -92q0 -18 1 -33.5t5 -26t11 -15t18 -1.5q33 9 66.5 51t64 101t56.5 124.5t45 121.5t29.5 92.5t9.5 37.5z"/>
            <glyph glyph-name="h" unicode="h" horiz-adv-x="564"
                   d="M342 502q5 6 28 32t54.5 54.5t67 50t65.5 19.5q32 -2 44 -19t12 -43q0 -14 -2.5 -28t-5.5 -29q-11 -55 -26 -109t-29.5 -108.5t-26.5 -109.5t-17 -110q2 -18 5 -29.5t10 -11.5q11 0 23.5 14t24.5 35.5t23 46t19 46t12.5 35.5t3.5 14q3 -5 6.5 -9.5t3.5 -15.5
q0 -46 -25 -88t-59.5 -74t-70.5 -51t-58 -18q-7 0 -17.5 2.5t-20.5 10t-17.5 22t-7.5 37.5q0 22 8.5 60.5t22 84.5t28.5 96l28.5 95t22 81t8.5 56q0 8 -7 21.5t-21 15.5q-13 1 -32 -15.5t-37.5 -38t-35 -42.5t-24.5 -29q-34 -115 -71.5 -227.5t-72.5 -227.5q-17 2 -33 2h-34
h-33.5t-32.5 -2q65 209 133.5 416.5t134.5 413.5h138q-28 -82 -57 -163.5t-52 -162.5z"/>
            <glyph glyph-name="i" unicode="i" horiz-adv-x="336"
                   d="M344 662q26 1 45 -19t19 -49q0 -36 -9 -71.5t-21 -70t-25 -68.5t-21 -68q-7 -28 -15 -56.5t-15 -55t-11.5 -49.5t-3.5 -38q0 -6 1 -14t3.5 -15t6.5 -11.5t11 -4.5q10 0 20.5 15t20.5 37.5t18.5 49t15 49t9.5 37.5l3 15q2 -5 6 -9t4 -16q0 -30 -9.5 -60t-25.5 -58
t-36 -52.5t-40.5 -42.5t-40 -28.5t-33.5 -10.5q-18 0 -32.5 9.5t-25 25.5t-16.5 36.5t-6 43.5q0 22 11 58t27 80t35 91.5t35 92.5t26 84t8 65q0 8 -5 14t-10 7q-6 1 -13.5 -5.5t-15 -18.5t-15 -28t-14.5 -32q-16 -39 -32 -89q0 2 -5 3t-7 6l2 4v2q9 40 27 77.5t41 67.5
t51 49t57 21zM303 754q-1 17 8 30.5t22.5 22.5t30 14t31.5 5q26 0 45 -13.5t19 -37.5q-2 -32 -29 -53.5t-61 -18.5q-23 2 -43.5 14t-22.5 37z"/>
            <glyph glyph-name="j" unicode="j" horiz-adv-x="297"
                   d="M447 662q-8 -25 -16 -45t-19 -43q-28 -67 -50.5 -137.5t-43 -139.5t-41.5 -134t-46.5 -119.5t-58 -96t-76.5 -64.5q-52 -26 -98.5 -34.5t-81.5 -8.5q-32 0 -51 3t-21 3l4 15q36 0 68.5 3.5t58.5 24.5q40 33 69.5 79t53.5 101.5t45 117.5t43 127q17 51 32.5 92.5
t29.5 81.5t27 81.5t26 92.5h146zM324 750q-1 18 8.5 33.5t24 26t31.5 16.5t32 6q13 0 26.5 -4.5t24 -12t17 -18t6.5 -22.5q-1 -17 -9.5 -31.5t-22.5 -25t-31.5 -16t-35.5 -5.5q-24 0 -46.5 14t-24.5 39z"/>
            <glyph glyph-name="k" unicode="k" horiz-adv-x="527"
                   d="M340 488q4 6 14 22.5t25 36.5t35 41.5t45 38.5t55 27t64 8q12 -1 24.5 -4.5t22 -10.5t15 -17.5t5.5 -25.5q-3 -41 -16 -71.5t-33 -53.5t-45 -38.5t-50 -25.5q-60 -24 -134 -28q2 0 26.5 -2.5t52.5 -12t51 -29.5t23 -54q0 -28 -5.5 -55t-12 -51t-12 -45t-4.5 -36
q0 -11 4 -23.5t16 -12.5q7 0 17.5 15t22.5 38t23 49.5t20 49.5t14 38t4 15q2 -4 4 -6.5t2 -14.5q0 -48 -25 -94t-59.5 -82t-70.5 -58t-58 -22q-17 0 -30 6t-22 15t-13 20t-3 22q1 25 12 57.5t23.5 68t23 70t11.5 63.5q0 24 -9.5 37.5t-24 21t-30.5 10t-29 4.5
q-29 -99 -59 -196.5t-57 -196.5q-25 2 -50 3t-51 1h-41q65 208 132 412t130 412h136q-19 -55 -32 -94.5t-24.5 -76t-23.5 -75t-29 -90.5zM322 404q17 2 39.5 1t44.5 7q27 10 47.5 31t34 46t20.5 51t8 46q0 14 -6.5 25.5t-21.5 11.5q-21 -1 -41 -15t-37.5 -36t-32.5 -48
t-26.5 -50t-19 -43.5t-9.5 -26.5z"/>
            <glyph glyph-name="l" unicode="l" horiz-adv-x="311"
                   d="M486 826q-22 -56 -47 -124.5t-50 -140.5t-48.5 -143.5t-41.5 -133t-30.5 -109t-14.5 -71.5q0 -11 1.5 -22.5t12.5 -11.5q10 0 22.5 15.5t25 38.5t24 49.5t20 49.5t13.5 38.5t4 15.5q3 -7 6.5 -13t3.5 -18q-2 -26 -14.5 -54.5t-31.5 -56.5t-43 -53.5t-48 -44.5t-47 -30
t-39 -9q-18 1 -27.5 11t-14 23.5t-5 28.5t-0.5 27q-2 27 9.5 79t31 118t44 141t50 148t49.5 138.5t41 113.5h144z"/>
            <glyph glyph-name="m" unicode="m" horiz-adv-x="883"
                   d="M541 563q2 11 -5.5 21t-21.5 10q-21 0 -42 -19t-40.5 -48.5t-35.5 -65.5t-27 -70q-9 -26 -19 -57t-20.5 -63.5l-21 -65t-20.5 -62.5q-24 -70 -48 -143h-140q0 1 5.5 17t15 42t21.5 59.5t25 69.5t25.5 71.5t22.5 66.5q12 37 24 76t21.5 75t15 65t5.5 46q0 11 -1 15t-7 4
h-2q-12 -6 -28 -27.5t-31 -50.5t-27.5 -62t-18.5 -61q-4 5 -7 10l-4 10t-1 10q11 51 35.5 94t54 74t58.5 48.5t50 17.5q32 0 44 -23t12 -57q0 -23 -4.5 -47.5t-8.5 -40.5q34 47 69 85q15 16 32 31t35 27t37 19t37 6q38 -2 51.5 -29.5t13.5 -64.5q0 -23 -3.5 -46.5
t-8.5 -41.5q33 52 70 92q16 17 34 33.5t38 29t41 20t42 7.5q29 0 49 -21.5t17 -58.5q-5 -61 -19.5 -119.5t-32.5 -116.5t-35.5 -116t-27.5 -117v-3.5t-2 -6.5q2 -11 7.5 -23t14.5 -12q12 0 24.5 16t24 40t21.5 51.5t17.5 51.5t12 40t3.5 16q3 -8 8.5 -13.5t5.5 -15.5
q-7 -53 -32.5 -101t-59 -84.5t-69 -58t-60.5 -20.5q-68 0 -68 72q0 21 10 58t25.5 82t33.5 95t33.5 97.5t25.5 89t10 69.5q0 11 -5.5 25t-19.5 14q-16 0 -39.5 -19.5t-48 -53t-46.5 -78.5t-36 -95q-15 -54 -33 -115t-34 -115q-18 -62 -37 -124q-35 0 -70 1t-70 1l9.5 27
t24.5 72t33 103.5t35.5 120.5t33 124t24.5 114z"/>
            <glyph glyph-name="n" unicode="n" horiz-adv-x="617"
                   d="M102 2l5 16t14 42.5t20 60t23 70t23.5 72.5t21.5 67q9 29 20.5 64.5t21.5 70t17 64.5t7 49q0 27 -11 27q-8 1 -23 -19t-31.5 -49.5t-29.5 -63t-16 -59.5q-3 5 -6 9l-4.5 9t-3.5 11l2 4v2q14 54 42 95.5t59.5 69.5t61 41.5t46.5 12.5q26 -2 35.5 -25t9.5 -55
q0 -29 -6 -60.5t-11 -48.5q38 54 77 96q16 18 34.5 35t37.5 30.5t38 21.5t37 8q15 -1 28.5 -6.5t24 -15.5t16 -24t4.5 -32q-7 -61 -22 -116t-33 -110t-35.5 -113.5t-27.5 -125.5v-7.5t-2 -10.5q2 -16 7.5 -28.5t16.5 -12.5q10 0 22 16.5t23.5 40.5t22 51.5t18.5 51t13 39.5
t4 16q3 -6 6.5 -9.5t3.5 -13.5q0 -46 -25 -93.5t-59.5 -86.5t-70.5 -63.5t-58 -24.5q-35 0 -53.5 25.5t-18.5 60.5q0 21 10 56.5t24.5 78.5t32 89.5t32 91.5t24.5 83.5t10 65.5q0 5 -1 13.5t-3.5 16.5t-6.5 13.5t-11 5.5q-16 0 -39.5 -18t-47.5 -46.5t-45.5 -64t-33.5 -70.5
q-17 -53 -37.5 -121t-38.5 -130q-21 -72 -43 -146q-35 0 -70 2t-70 2z"/>
            <glyph glyph-name="o" unicode="o" horiz-adv-x="455"
                   d="M422 615q-24 -29 -51 -77t-50.5 -107.5t-39.5 -127.5t-19 -135q0 -51 20 -80t42 -31l4 2q20 0 43.5 28t46.5 73t44 102t36 116.5t23 117t6 102.5q-2 23 -11 42.5t-30 19.5q-25 0 -64 -45zM379 650q19 9 43.5 16.5t50.5 7.5q21 0 40 -7t34 -24.5t25 -46.5t12 -73
q2 -57 -12.5 -118.5t-41 -121t-62.5 -113t-77 -94t-84.5 -64t-83.5 -24.5q-16 0 -36 8.5t-38 29t-30 55t-12 85.5q0 59 17.5 130.5t52 139.5t85.5 125t117 89z"/>
            <glyph glyph-name="p" unicode="p" horiz-adv-x="555"
                   d="M236 18q13 1 25 2t24 3.5t25 8t28 15.5q28 17 54 56.5t49 90t42.5 106t34 106t23 90t10.5 57.5q1 6 -0.5 13.5t-5.5 15t-10 12.5t-14 6q-19 2 -39.5 -17t-45.5 -50q-30 -38 -58.5 -101t-54 -135.5t-47.5 -146.5t-40 -132zM422 664q-3 -47 -14.5 -92t-24.5 -90l8 14.5
t23 35.5t35.5 45t45.5 44.5t54 33t60 11.5q27 -1 43.5 -11t26 -25t13 -31.5t3.5 -30.5v-11q-8 -71 -26 -149t-47 -150t-70.5 -129.5t-96.5 -85.5q-28 -15 -51.5 -24.5t-45 -15t-43.5 -7.5t-47 -2h-39q-6 -17 -11.5 -40.5t-13.5 -47t-21.5 -42.5t-34.5 -28q-17 -8 -39 -10
t-43 -2q-20 0 -34 1t-16 1q4 13 18 52t33 95.5t42.5 125t46 139.5t43.5 140.5t36.5 127.5t23 99.5t3.5 58.5h160z"/>
            <glyph glyph-name="q" unicode="q" horiz-adv-x="555"
                   d="M564 631q-8 2 -17.5 2h-21.5q-19 0 -37 -3t-29 -11q-27 -18 -63 -63.5t-68 -106t-54.5 -131.5t-23.5 -140q0 -12 0.5 -25t4.5 -23.5t13 -17.5t27 -8q21 -2 44 19.5t45.5 58t45 84t42 97t36.5 97.5t29.5 85.5t19.5 61t7 24.5zM283 -174q34 90 67.5 178.5t55.5 181.5
q0 -1 -11 -15.5t-29.5 -36.5t-42 -47.5t-49 -46.5t-50.5 -34.5t-46 -11.5q-24 2 -40.5 15t-26 32.5t-13 45t-2.5 52.5q1 43 11.5 98.5t33 113t58.5 113t89 99t124 70.5t164 29q34 0 66.5 -1.5t70.5 -10.5q-74 -206 -143 -410.5t-142 -411.5z"/>
            <glyph glyph-name="r" unicode="r" horiz-adv-x="379"
                   d="M381 406q-9 -26 -19 -57t-19.5 -64.5t-19.5 -67.5t-19 -65q-21 -74 -42 -150q-21 0 -42 1t-44 1q-17 0 -32.5 -1t-32.5 -1l5 17t13.5 44.5t19.5 63t23 73t23.5 74.5t21.5 68q9 29 20 65t20.5 71t16.5 66t7 50q0 23 -10 23q-8 0 -23 -23t-30.5 -55.5t-28 -66.5t-13.5 -56
q-3 7 -6 15q-2 6 -4 13.5t-2 12.5q2 35 23.5 74.5t49.5 72.5t57.5 54t47.5 20t30 -9.5t18.5 -22.5t9 -32.5t2.5 -39.5q0 -26 -3 -51.5t-4 -45.5q11 28 29 66t41 71t50.5 52t56.5 8l-39 -98q-20 4 -42 -8t-42 -36t-38 -56.5t-30 -69.5z"/>
            <glyph glyph-name="s" unicode="s" horiz-adv-x="449"
                   d="M225 492q0 44 20 77t53 55.5t74.5 34t84.5 11.5q19 0 42 -5t42 -14t31 -21t10 -25q-10 -59 -22 -95t-23 -56q-13 -24 -27 -34q1 1 5.5 14.5t8.5 33t7.5 41.5t3.5 40q0 15 -3.5 33t-12 33t-23 25t-35.5 10q-22 0 -39 -10t-29 -26.5t-18 -38t-6 -44.5q0 -48 17.5 -93
t39.5 -88.5t40 -86t20 -85.5q1 -45 -22.5 -79.5t-61 -58t-83 -35t-87.5 -11.5q-27 0 -56.5 7.5t-54 20t-40 30t-13.5 38.5q6 58 22 96t33 60.5t31 31.5t16 9q-2 0 -10 -16.5t-18 -40.5t-17.5 -52.5t-7.5 -52.5q0 -59 27.5 -85t72.5 -26q24 0 45.5 12t38 31.5t26 45t9.5 51.5
q0 42 -17.5 83.5t-38.5 83t-38.5 84t-16.5 87.5z"/>
            <glyph glyph-name="t" unicode="t" horiz-adv-x="328"
                   d="M285 637l41 111h141l-43 -111h51l-8 -28h-55q-12 -36 -20.5 -63t-18.5 -64q-16 -54 -35.5 -114t-36 -113.5t-27.5 -94.5t-10 -56q0 -8 3.5 -19t11.5 -11q10 0 22.5 15.5t24.5 38.5t23 49.5t20 49t14 37.5t4 15q3 -8 6 -14t3 -17q-2 -39 -28 -83.5t-61 -82t-72 -61
t-61 -21.5q-16 1 -26 8.5t-16 19t-8 26.5t-3 30q2 8 2 12.5v8.5q0 25 8.5 62.5t23 85.5t34 105t41.5 122q6 18 10.5 32t9 27.5t9.5 30t12 39.5h-44l15 28h43z"/>
            <glyph glyph-name="u" unicode="u" horiz-adv-x="586"
                   d="M715 664q0 -1 -5 -16.5t-13.5 -41t-20 -59t-23.5 -69.5t-24 -71.5t-22 -66.5q-9 -29 -19 -64t-19 -69.5t-15 -65.5t-7 -51q2 -12 4 -18t8 -6q7 1 15 8.5t15.5 18.5t14.5 24.5t13 25.5q15 31 28.5 62t18.5 70q4 -5 7 -10q2 -5 4 -9.5t1 -9.5q-11 -51 -40 -98.5t-62.5 -83
t-65 -56t-49.5 -18.5q-26 5 -38 24t-15 58q-1 15 1.5 38.5t5.5 45.5q4 26 9 53q-39 -63 -79 -111q-17 -21 -35.5 -40.5t-38 -34t-38.5 -23t-36 -6.5q-15 1 -29 7.5t-25.5 17.5t-18 26.5t-5.5 34.5q1 40 9.5 73t21 63t27 60.5t28.5 65.5q11 28 25.5 57t28 59t23 60.5
t9.5 61.5q0 12 -2 20.5t-8 10.5q-10 1 -22 -11.5t-24.5 -32.5t-24.5 -44t-21.5 -45t-15.5 -36t-7 -16h2q-3 6 -8.5 9t-3.5 14q5 31 27 70t51 72.5t60.5 56.5t55.5 22q32 -2 50 -16t18 -49q0 -21 -11 -57.5t-27.5 -81.5t-36 -94.5t-36 -96.5t-28 -87.5t-11.5 -68.5
q4 -11 7 -19t20 -8q16 0 38 18t44.5 46.5t42 64t31.5 70.5q17 52 38 116t40 120q22 65 45 131q24 3 47.5 5.5t46.5 0.5h49z"/>
            <glyph glyph-name="v" unicode="v" horiz-adv-x="480"
                   d="M533 393q7 32 12.5 60t9.5 55t6 53.5t2 55.5v47q15 -9 27 -24q10 -13 18.5 -34t8.5 -53q0 -66 -18 -133.5t-48 -130t-69.5 -117.5t-82.5 -95.5t-86.5 -63.5t-82.5 -23q-17 0 -37 8t-36.5 23.5t-27.5 37.5t-10 50q0 29 13 70.5t32.5 88.5t41.5 96t41 92t31.5 77.5
t12.5 52.5q0 8 -7 13t-14 5t-15.5 -8t-17.5 -21.5t-18 -30t-17 -34.5q-20 -41 -40 -94q-3 5 -8.5 6.5t-3.5 9.5q7 49 30 91t53.5 73.5t64.5 50.5t63 21q26 0 42.5 -15.5t16.5 -41.5q0 -30 -7.5 -59.5t-18.5 -58t-22.5 -56.5t-19.5 -56q-11 -34 -22.5 -70.5t-21.5 -69.5
t-16 -60t-5 -42q2 -26 12 -47t41 -26q28 -3 58 27.5t56.5 79.5t47.5 108t31 112z"/>
            <glyph glyph-name="w" unicode="w" horiz-adv-x="764"
                   d="M609 64q19 -2 40 12t41.5 39.5t40 60t35.5 72.5t28.5 77.5t19.5 74.5q7 39 14.5 71.5t13.5 63.5t9 63.5t3 71.5q15 -9 27 -23q10 -12 18.5 -30.5t6.5 -44.5q-4 -72 -25 -144t-54 -137.5t-74.5 -122t-86.5 -97.5t-90 -63t-84 -20q-23 1 -37.5 14.5t-23 32t-11.5 39.5
t-4 39q2 22 3 32q1 6 1 11q-35 -48 -71 -85q-32 -32 -69.5 -57.5t-74.5 -23.5q-48 3 -78 29.5t-25 72.5q3 28 9 50t13.5 42t16.5 40t19 44q16 36 36.5 81t39 86.5t32 74.5t15.5 47v19q0 14 -4 22.5t-17 8.5q-10 0 -22 -14.5t-24 -36t-23 -47t-19 -47t-12.5 -36t-3.5 -14.5
q-3 6 -9 11t-4 13q3 32 25.5 72.5t52.5 76t63 59t58 22.5q64 -3 64 -72q0 -22 -10 -58.5t-25.5 -80.5t-34.5 -92.5t-36 -94t-30 -86t-16 -67.5q-2 -17 1 -28.5t9 -18.5t13.5 -10t15.5 -3q16 0 38.5 21t46 53.5t44.5 72t33 77.5q8 26 18 56t21 61l22 62t22 60l50 134
q16 2 28.5 3.5t23 2.5t21 1.5t23.5 0.5h48q-1 -1 -7.5 -19t-17.5 -46.5t-25 -65.5t-28 -75.5t-27 -76t-22 -68.5q-34 -117 -37 -182q3 -60 39 -63z"/>
            <glyph glyph-name="x" unicode="x" horiz-adv-x="400"
                   d="M35 12q-4 2 -7 6t-5 10t-2 17q1 18 22 43t52.5 55t68.5 62.5t70 65.5q11 42 23.5 87.5t23.5 87.5t18.5 78t9.5 60v2q0 8 -5 13.5t-11 5.5q-6 1 -14 -6.5t-16.5 -20.5t-17.5 -29.5t-17 -34.5q-19 -42 -40 -96q-2 8 -6 14.5t-4 14.5q2 30 22 67.5t49.5 70.5t63 55.5
t62.5 23.5q29 0 45.5 -23.5t13.5 -52.5q-2 -18 -5 -37.5t-7 -38t-9 -34.5t-9 -27q48 49 86 103.5t80 105.5q6 -9 7 -17.5t1 -13.5q-2 -21 -25 -50.5t-52.5 -59.5t-59 -56.5t-45.5 -42.5q-10 -34 -19.5 -78.5t-16.5 -88t-11.5 -79.5t-4.5 -51q0 -8 0.5 -17t3 -16.5t7 -12.5
t12.5 -5q10 0 22 16t23.5 39.5t22.5 51t19 51t13 39.5t4 16q2 -8 5.5 -13t3.5 -14v-6q-22 -78 -51.5 -128t-59.5 -79t-56 -40t-40 -11q-10 0 -24 4.5t-26 14t-20.5 25t-7.5 38.5q0 17 3.5 37t8.5 41.5t10.5 42.5t9.5 41q-48 -57 -96 -113t-96 -113z"/>
            <glyph glyph-name="y" unicode="y" horiz-adv-x="566"
                   d="M439 219q-5 -8 -19.5 -27t-34.5 -43.5t-44.5 -51t-51 -47.5t-53 -34t-50.5 -10q-23 2 -38.5 12t-24.5 25t-12.5 32.5t-1.5 35.5q4 41 12 69t18 51.5t22.5 48.5t27.5 60q13 32 29.5 66t30 64.5t22.5 55.5t8 40q-2 14 -4 28.5t-13 14.5q-10 -1 -22 -15t-24 -35t-23 -45.5
t-19.5 -45t-13 -34.5l-4.5 -14q-2 5 -6 8t-5 11q0 2 0.5 2.5t0.5 1.5v2q3 21 13.5 45.5t26 49.5t34.5 47.5t39.5 40t41 27.5t37.5 9q32 -2 51 -16.5t19 -49.5q0 -22 -10.5 -57.5t-26.5 -79.5t-34.5 -92t-34.5 -93.5t-26.5 -85.5t-11.5 -67q4 -5 4.5 -11t1.5 -12t5 -10t16 -4
q16 0 40.5 20.5t49.5 52t48 68.5t36 70q35 88 64.5 180.5t48.5 186.5h149q-9 -25 -18.5 -45.5t-17.5 -42.5q-38 -115 -66 -214t-54 -181t-53 -145.5t-63.5 -107.5t-85.5 -67.5t-119 -26.5q-55 -2 -94 7t-64 21t-38 22.5t-15 11.5l10 20q37 -20 72.5 -30.5t67.5 -12.5
q43 -2 76 16t58.5 48t44 68.5t32 77.5t23 75t16.5 61z"/>
            <glyph glyph-name="z" unicode="z" horiz-adv-x="506"
                   d="M174 443q0 21 8.5 52.5t20.5 61.5t25 54t22 32q17 13 41.5 18t52.5 5h252q-86 -155 -164 -311t-147 -318q12 -2 23.5 -3t23.5 -3q71 3 115 35q10 8 20.5 22.5t20.5 33t19 39.5t17 41q18 48 35 103h2q4 0 9.5 -7.5t5.5 -33.5q0 -29 -11.5 -69t-26.5 -77t-30 -64.5
t-22 -33.5q-10 -8 -27 -12t-33 -4h-322q78 159 159 315.5t159 315.5q-11 2 -20.5 2h-20.5q-26 0 -49.5 -6t-42.5 -20q-26 -20 -44.5 -54t-30.5 -67.5t-17.5 -58.5t-5.5 -27q-2 3 -9.5 14t-7.5 25z"/>
            <glyph glyph-name="braceleft" unicode="{" horiz-adv-x="307"
                   d="M109 420q9 3 16.5 5t16.5 5t20.5 7t28.5 10q37 15 58.5 51.5t37 83t30 97t38.5 92.5q14 23 35.5 41t52.5 18h129q-11 -6 -18.5 -8.5t-14.5 -6.5t-16 -12.5t-23 -27.5q-29 -39 -42.5 -78.5t-26 -77.5t-30 -74t-53.5 -68q-17 -15 -46.5 -26t-58.5 -18t-51 -10t-24 -3
q47 -2 84 -11q16 -4 31 -9.5t27 -14t19 -19.5t7 -26q0 -32 -11 -64t-25.5 -67t-28.5 -73t-19 -81q-2 -17 2 -26t11.5 -15t17 -10.5t18.5 -11.5h-72q-21 0 -43 4t-39.5 13t-29 24t-12.5 37q-1 25 15.5 62.5t37 78t38 79t17.5 67.5q-1 21 -14.5 32t-31.5 17t-34.5 8.5
t-23.5 5.5z"/>
            <glyph glyph-name="bar" unicode="|" horiz-adv-x="387"
                   d="M354 830v-998v-2h-86v998v2h86z"/>
            <glyph glyph-name="braceright" unicode="}" horiz-adv-x="314"
                   d="M469 400q-9 -3 -16.5 -4.5t-16.5 -4t-20.5 -6t-28.5 -10.5q-38 -15 -59 -51.5t-36.5 -83t-30 -97t-38.5 -92.5q-14 -23 -35.5 -42t-50.5 -19h-131q11 7 18.5 10t14.5 7t16 12.5t23 27.5q28 39 42 78.5t27 77.5t30.5 74.5t52.5 68.5q17 15 46.5 25.5t59 17t52 10t24.5 3.5
q-1 0 -13 0.5t-30.5 3t-40 7.5t-40 13.5t-30.5 22t-12 33.5q0 31 11 63.5t25 67.5t27.5 73t18.5 82q2 17 -2 26t-12 14.5t-18 9.5t-19 10h73q21 0 42.5 -3.5t39.5 -12.5t29.5 -23.5t13.5 -36.5q1 -24 -15.5 -60.5t-37 -76.5t-37.5 -79.5t-18 -68.5l2 -2q0 -21 13 -32t30 -17
t33.5 -9t23.5 -7z"/>
            <glyph glyph-name="asciitilde" unicode="~" horiz-adv-x="242"
                   d="M326 799q-6 -1 -13.5 -9t-13.5 -17.5t-10 -17.5t-4 -9q4 22 12 40q7 15 18 27.5t29 12.5q15 0 25 -8.5t18.5 -19t17.5 -19t21 -8.5q9 0 17.5 8.5t14.5 18.5t9.5 18.5t3.5 9.5q0 -2 -1 -15t-6.5 -28.5t-18 -28t-35.5 -12.5q-15 0 -26 9.5t-20.5 20.5t-18.5 19.5t-19 7.5z
"/>
            <glyph glyph-name="Adieresis" unicode="&#xc4;" horiz-adv-x="506"
                   d="M619 984q20 0 33.5 -13t13.5 -33q-2 -29 -22 -50t-48 -21q-18 0 -32.5 14t-14.5 33q0 13 5.5 25.5t15.5 22t22.5 15.5t26.5 7zM480 984q18 0 32.5 -13t14.5 -33q-2 -29 -22 -50t-48 -21q-19 0 -33 14t-14 33q0 13 5.5 25.5t15.5 22t22.5 15.5t26.5 7zM387 338
q6 39 10.5 69t8 55.5t6 50t5.5 52.5t6.5 63.5t8.5 82.5q-32 -53 -56 -95.5t-45 -84.5t-43 -87.5t-50 -103.5zM-18 0q0 1 6 7.5t14.5 16.5t17 20.5t13.5 19.5q33 56 68.5 121t71.5 133t71.5 134t68 124t62 103.5t53.5 72.5q20 23 47.5 38.5t52.5 25.5q29 11 60 18
q-13 -146 -25 -287q-5 -60 -11 -124.5t-12.5 -127.5t-12.5 -122t-11 -107q-1 -9 0 -20t3 -22l4 -24h-197q23 72 35 147t20 158h-160q-19 -42 -39.5 -83.5t-37.5 -81t-29 -75t-15 -65.5h-118z"/>
            <glyph glyph-name="Aring" unicode="&#xc5;" horiz-adv-x="506"
                   d="M555 982q22 0 41 -9t19 -35q0 -16 -8 -28.5t-20.5 -21.5t-27.5 -14t-30 -5q-9 0 -19 4t-18.5 10.5t-13.5 15.5t-5 19q0 21 8 34t20 19.5t26.5 8.5t27.5 2zM555 975q-24 0 -39.5 -13.5t-15.5 -41.5q0 -17 12.5 -29t28.5 -12q10 -1 18.5 4.5t14.5 14t9.5 19t4.5 21.5
q0 13 -9.5 25t-23.5 12zM387 338q6 39 10.5 69t8 55.5t6 50t5.5 52.5t6.5 63.5t8.5 82.5q-32 -53 -56 -95.5t-45 -84.5t-43 -87.5t-50 -103.5zM-18 0q0 1 6 7.5t14.5 16.5t17 20.5t13.5 19.5q33 56 68.5 121t71.5 133t71.5 134t68 124t62 103.5t53.5 72.5q20 23 47.5 38.5
t52.5 25.5q29 11 60 18q-13 -146 -25 -287q-5 -60 -11 -124.5t-12.5 -127.5t-12.5 -122t-11 -107q-1 -9 0 -20t3 -22l4 -24h-197q23 72 35 147t20 158h-160q-19 -42 -39.5 -83.5t-37.5 -81t-29 -75t-15 -65.5h-118z"/>
            <glyph glyph-name="Ccedilla" unicode="&#xc7;" horiz-adv-x="516"
                   d="M232 -45q1 0 5.5 3t12 6.5t17 6.5t18.5 2q15 -1 22.5 -5.5t11.5 -11t4.5 -13.5t0.5 -13q0 -41 -27 -68.5t-65 -27.5q-13 0 -27 10t-14 33q0 19 8.5 27.5l11.5 11.5h6q-4 -4 -7 -10q-7 -12 -7 -31q0 -14 5.5 -22.5t16.5 -8.5q11 -1 21 7t18 20.5t13 28t6 30.5
q0 14 -7.5 17.5t-15.5 3.5q-6 1 -13.5 -1t-13.5 -5l-14 -8l2 12l19 59q-23 8 -44 27t-37 48.5t-26 68t-10 84.5q0 48 13 109t41 126.5t70.5 131t102.5 122.5q53 51 117 77t121 26q31 0 53 -5.5t36 -13.5t20 -17.5t6 -16.5q0 -26 -10 -58.5t-22.5 -60.5t-23.5 -47t-12 -19
l-20 -6q9 26 17 52q7 23 12.5 48.5t5.5 47.5q0 34 -18.5 60t-49.5 26q-32 0 -66 -26.5t-66 -71.5t-61 -105t-51 -126.5t-36 -136.5t-17 -135q-2 -27 2.5 -54.5t15.5 -50t29.5 -37t44.5 -14.5q21 0 40.5 11.5t36.5 30.5t32.5 43t27.5 50q29 60 52 136q5 -12 10.5 -21.5
t5.5 -23.5q0 -17 -14 -47.5t-38 -66.5t-56.5 -71.5t-69 -61.5t-76.5 -37.5t-78 1.5z"/>
            <glyph glyph-name="Eacute" unicode="&#xc9;" horiz-adv-x="527"
                   d="M576 941q-1 -17 -18.5 -29.5t-38 -20.5t-38 -12t-18.5 -4l105 104q2 -6 5 -12t3 -20v-6zM234 43h12q6 0 14 -0.5t19 -1.5q22 1 48.5 2.5t53 5.5t50 11t38.5 18q14 10 29 31.5t28.5 48t25.5 54t21 51t14 38t5 15.5q3 -3 6 -7q2 -5 4.5 -12t2.5 -20q-1 -39 -10 -79
t-22.5 -75t-30 -62t-34.5 -40q-9 -6 -29.5 -10.5t-49.5 -6.5t-64.5 -3t-73.5 -1q-63 0 -126 -1t-126 -1q0 1 3.5 7.5t9 16.5t11 21t9.5 20q9 19 28 71.5t43.5 123t51 150t49.5 152.5t40.5 130.5t22.5 84.5v6q0 12 -1 24t-1 23q31 0 55.5 -1t55.5 -1h24.5t26.5 -2h94
q33 0 63 -1.5t52 -6.5t34 -13.5t11 -23.5q-10 -75 -23.5 -116.5t-27 -61t-24.5 -24t-15 -5.5q8 20 15 43q5 20 10 45.5t6 54.5q1 27 -10 44t-28.5 26t-39.5 12.5t-43 3.5q-13 0 -24 -0.5t-19 -1.5q-10 -1 -18 -2l-117 -346h10.5t11.5 -2q22 2 41 6.5t39 15.5q20 9 36.5 34.5
t28.5 51.5q14 31 25 68q5 -8 9 -14t4 -19v-8q-3 -31 -15.5 -76.5t-29 -92.5t-34 -89.5t-30.5 -67.5q-6 -11 -16 -14t-15 -6q9 24 16 48q6 20 11.5 42.5t5.5 40.5q0 15 -7.5 25t-19 15t-25.5 7t-26 2q-8 0 -13.5 -0.5t-9.5 -0.5q-4 -1 -8 -1z"/>
            <glyph glyph-name="Ntilde" unicode="&#xd1;" horiz-adv-x="574"
                   d="M549 916q-6 -1 -13 -9t-13.5 -18t-10.5 -18.5t-4 -9.5q0 1 2.5 14t9 28t18 27.5t28.5 12.5q15 0 25 -8.5t19 -18.5t17.5 -18.5t20.5 -8.5q11 0 19.5 8t14.5 18q7 11 13 26q0 -1 -1 -14t-7 -28t-18.5 -28t-35.5 -14q-15 0 -25.5 10t-20 21t-18.5 20t-20 8zM820 824
q-48 -101 -86.5 -205.5t-75 -210t-73 -211.5t-79.5 -209q-22 30 -40 76t-33.5 102.5t-28.5 120t-25.5 127.5t-25 125.5t-25.5 114.5q-27 -77 -51.5 -148.5t-47 -142.5t-43 -144t-40.5 -153q0 -3 -1 -12t-2 -19.5t-1.5 -20.5t-0.5 -14h-100q12 22 22 42t19 42q45 115 86 224
t72 200t49.5 157t17.5 95q0 11 -6.5 22.5t-14.5 20.5q-9 11 -20 21l99 -6q23 2 44 3t40 1l112 -595q26 70 49.5 137t43.5 135.5t36.5 139t28.5 148.5v8q0 9 -1 15t-1 14h31t41 -2q12 2 20 2h11z"/>
            <glyph glyph-name="Odieresis" unicode="&#xd6;" horiz-adv-x="543"
                   d="M680 984q19 0 33 -13t14 -33q-2 -29 -22.5 -50t-48.5 -21q-17 0 -32 14t-15 33q0 13 6 25.5t15.5 22t22.5 15.5t27 7zM541 984q17 0 32 -13t15 -33q-2 -29 -22 -50t-48 -21q-20 0 -33.5 14t-13.5 33q0 13 5.5 25.5t15.5 22t22.5 15.5t26.5 7zM512 777q-14 -16 -36 -50
t-46.5 -80.5t-49 -102.5t-44 -114.5t-32 -117.5t-11.5 -111q0 -32 8 -55.5t20 -39.5t27 -24.5t29 -9.5q32 -2 63.5 32t59.5 90.5t52 128.5t42 146.5t28.5 145t12.5 123.5q0 15 -3 29t-9.5 25.5t-16.5 18.5t-24 7t-32 -9t-38 -32zM459 811q22 10 51 19.5t58 9.5
q26 0 49.5 -8.5t41.5 -29.5t29 -55.5t11 -86.5q1 -70 -16.5 -147t-48.5 -151.5t-73 -142t-90 -119t-99 -82.5t-101 -32q-19 0 -45 11t-50 37t-40.5 67.5t-16.5 103.5q0 47 10.5 103.5t30.5 115.5t49.5 117t67.5 109.5t83.5 93t98.5 67.5z"/>
            <glyph glyph-name="Udieresis" unicode="&#xdc;" horiz-adv-x="650"
                   d="M703 980q20 0 33.5 -13t13.5 -33q-2 -29 -22 -50t-48 -21q-18 0 -32.5 14t-14.5 33q0 13 5.5 25.5t15.5 22t22.5 16t26.5 6.5zM564 980q18 0 32.5 -13t14.5 -33q-2 -29 -22 -50t-48 -21q-19 0 -33 14t-14 33q0 13 5.5 25.5t15.5 22t22.5 16t26.5 6.5zM209 570
q0 5 -3 12.5t-3 15.5q0 9 8 30.5t23 47.5t35.5 54.5t45 51.5t53 37.5t58.5 14.5q31 -2 54 -24t20 -56q-4 -40 -20 -86t-38 -96.5t-47 -103.5t-47 -106.5t-38.5 -106t-20.5 -101.5q-2 -17 6.5 -33.5t30.5 -18.5q18 2 41.5 16.5t54.5 51.5q45 53 81.5 130t70 165.5t65 181.5
t66.5 179h38.5t39.5 -2q21 2 40 2t38 2q-11 -21 -28.5 -62.5t-38 -95t-42.5 -115t-42.5 -124t-38.5 -121.5t-30.5 -107.5t-17.5 -81.5t0 -43q2 -5 4.5 -6.5t5.5 -3.5q9 1 20 14.5t22 33t21.5 41t18.5 38.5q13 29 19.5 54t11.5 56q3 -8 7.5 -14.5t4.5 -17.5v-3
q-4 -33 -16.5 -67t-31.5 -65t-41.5 -57.5t-45.5 -46t-43.5 -30.5t-36.5 -10q-20 1 -33 9.5t-21 22.5t-11.5 32t-4.5 38q1 30 6 60t11 55q7 28 16 55q0 -1 -12 -22t-33.5 -51.5t-51 -66t-64 -66t-72 -50.5t-74.5 -20q-18 0 -35 6t-30.5 18.5t-22 32t-7.5 47.5q1 43 19 96.5
t44 111.5t56.5 118.5t57 118.5t45.5 111.5t22 97.5q0 15 -2 21t-10 6t-18 -7.5t-20 -18.5t-18.5 -23t-13.5 -21q-11 -18 -21 -41t-18 -44q-10 -25 -18 -50z"/>
            <glyph glyph-name="aacute" unicode="&#xe1;"
                   d="M607 768q-1 -18 -18.5 -30.5t-38 -20.5t-38 -12t-18.5 -4l106 104q2 -6 4.5 -12t2.5 -20v-5zM545 645q-22 0 -41 -2.5t-39 -13.5q-35 -19 -72.5 -67.5t-68 -112.5t-49.5 -136t-17 -139q0 -37 11.5 -53t17.5 -14q34 11 66.5 55t61.5 103.5t53 126.5t41.5 123t27 93t8.5 37
zM693 662q0 -1 -5.5 -16.5t-15 -41t-21.5 -59t-24.5 -69.5t-24.5 -71.5t-22 -66.5q-9 -29 -20.5 -64.5t-22.5 -70t-18.5 -65.5t-8.5 -52q3 -23 17 -23q7 0 17.5 11t22 27.5t22 37t16.5 39.5q11 31 19 56t13 57l8 -10l6 -10t3 -9q-12 -60 -38.5 -109.5t-59 -85.5t-66 -55.5
t-60.5 -19.5q-14 0 -22 8t-12 22t-6 32t-3 38q-1 15 1.5 35t5.5 37q4 20 8 41q-42 -60 -82 -108q-17 -20 -36 -39.5t-37.5 -34.5t-36 -24t-32.5 -9q-30 1 -46.5 17t-24 38t-8.5 46.5t-1 43.5q-2 64 16.5 137.5t52 141t80 121.5t101.5 80q25 12 48 21.5t45.5 15.5t46.5 9
t53 3z"/>
            <glyph glyph-name="agrave" unicode="&#xe0;"
                   d="M617 707q-1 0 -18 3.5t-37.5 11.5t-38.5 20.5t-19 30.5q0 14 2.5 21t7.5 15zM545 645q-22 0 -41 -2.5t-39 -13.5q-35 -19 -72.5 -67.5t-68 -112.5t-49.5 -136t-17 -139q0 -37 11.5 -53t17.5 -14q34 11 66.5 55t61.5 103.5t53 126.5t41.5 123t27 93t8.5 37zM693 662
q0 -1 -5.5 -16.5t-15 -41t-21.5 -59t-24.5 -69.5t-24.5 -71.5t-22 -66.5q-9 -29 -20.5 -64.5t-22.5 -70t-18.5 -65.5t-8.5 -52q3 -23 17 -23q7 0 17.5 11t22 27.5t22 37t16.5 39.5q11 31 19 56t13 57l8 -10l6 -10t3 -9q-12 -60 -38.5 -109.5t-59 -85.5t-66 -55.5
t-60.5 -19.5q-14 0 -22 8t-12 22t-6 32t-3 38q-1 15 1.5 35t5.5 37q4 20 8 41q-42 -60 -82 -108q-17 -20 -36 -39.5t-37.5 -34.5t-36 -24t-32.5 -9q-30 1 -46.5 17t-24 38t-8.5 46.5t-1 43.5q-2 64 16.5 137.5t52 141t80 121.5t101.5 80q25 12 48 21.5t45.5 15.5t46.5 9
t53 3z"/>
            <glyph glyph-name="acircumflex" unicode="&#xe2;"
                   d="M438 691q0 6 -1 12t-3 14q2 4 2 8q1 11 10.5 23.5t26.5 25t40 24t50 20.5q25 -14 44 -29q17 -14 31 -30.5t14 -33.5q0 -11 -3.5 -18t-7.5 -16q-15 32 -33.5 61.5t-41.5 58.5q-36 -24 -67.5 -56t-60.5 -64zM545 645q-22 0 -41 -2.5t-39 -13.5q-35 -19 -72.5 -67.5
t-68 -112.5t-49.5 -136t-17 -139q0 -37 11.5 -53t17.5 -14q34 11 66.5 55t61.5 103.5t53 126.5t41.5 123t27 93t8.5 37zM693 662q0 -1 -5.5 -16.5t-15 -41t-21.5 -59t-24.5 -69.5t-24.5 -71.5t-22 -66.5q-9 -29 -20.5 -64.5t-22.5 -70t-18.5 -65.5t-8.5 -52q3 -23 17 -23
q7 0 17.5 11t22 27.5t22 37t16.5 39.5q11 31 19 56t13 57l8 -10l6 -10t3 -9q-12 -60 -38.5 -109.5t-59 -85.5t-66 -55.5t-60.5 -19.5q-14 0 -22 8t-12 22t-6 32t-3 38q-1 15 1.5 35t5.5 37q4 20 8 41q-42 -60 -82 -108q-17 -20 -36 -39.5t-37.5 -34.5t-36 -24t-32.5 -9
q-30 1 -46.5 17t-24 38t-8.5 46.5t-1 43.5q-2 64 16.5 137.5t52 141t80 121.5t101.5 80q25 12 48 21.5t45.5 15.5t46.5 9t53 3z"/>
            <glyph glyph-name="adieresis" unicode="&#xe4;"
                   d="M637 826q19 0 33 -13t14 -34q-2 -28 -22.5 -49t-48.5 -21q-17 0 -32 13.5t-15 33.5q0 13 6 25.5t15.5 22t22.5 15.5t27 7zM498 826q17 0 32 -13t15 -34q-2 -28 -22 -49t-48 -21q-20 0 -33.5 13.5t-13.5 33.5q0 13 5.5 25.5t15.5 22t22.5 15.5t26.5 7zM545 645
q-22 0 -41 -2.5t-39 -13.5q-35 -19 -72.5 -67.5t-68 -112.5t-49.5 -136t-17 -139q0 -37 11.5 -53t17.5 -14q34 11 66.5 55t61.5 103.5t53 126.5t41.5 123t27 93t8.5 37zM693 662q0 -1 -5.5 -16.5t-15 -41t-21.5 -59t-24.5 -69.5t-24.5 -71.5t-22 -66.5q-9 -29 -20.5 -64.5
t-22.5 -70t-18.5 -65.5t-8.5 -52q3 -23 17 -23q7 0 17.5 11t22 27.5t22 37t16.5 39.5q11 31 19 56t13 57l8 -10l6 -10t3 -9q-12 -60 -38.5 -109.5t-59 -85.5t-66 -55.5t-60.5 -19.5q-14 0 -22 8t-12 22t-6 32t-3 38q-1 15 1.5 35t5.5 37q4 20 8 41q-42 -60 -82 -108
q-17 -20 -36 -39.5t-37.5 -34.5t-36 -24t-32.5 -9q-30 1 -46.5 17t-24 38t-8.5 46.5t-1 43.5q-2 64 16.5 137.5t52 141t80 121.5t101.5 80q25 12 48 21.5t45.5 15.5t46.5 9t53 3z"/>
            <glyph glyph-name="atilde" unicode="&#xe3;"
                   d="M506 785q-6 -1 -13 -9t-13.5 -18t-10.5 -18.5t-4 -9.5q0 1 2.5 14t9 28.5t18 28t28.5 12.5q15 0 25.5 -8.5t19 -19t17 -19t20.5 -8.5q11 0 19.5 8t14.5 18q7 11 13 27q0 -1 -1 -14t-7 -28t-18.5 -28t-35.5 -14q-15 0 -25.5 9.5t-20 21t-18.5 20t-20 7.5zM545 645
q-22 0 -41 -2.5t-39 -13.5q-35 -19 -72.5 -67.5t-68 -112.5t-49.5 -136t-17 -139q0 -37 11.5 -53t17.5 -14q34 11 66.5 55t61.5 103.5t53 126.5t41.5 123t27 93t8.5 37zM693 662q0 -1 -5.5 -16.5t-15 -41t-21.5 -59t-24.5 -69.5t-24.5 -71.5t-22 -66.5q-9 -29 -20.5 -64.5
t-22.5 -70t-18.5 -65.5t-8.5 -52q3 -23 17 -23q7 0 17.5 11t22 27.5t22 37t16.5 39.5q11 31 19 56t13 57l8 -10l6 -10t3 -9q-12 -60 -38.5 -109.5t-59 -85.5t-66 -55.5t-60.5 -19.5q-14 0 -22 8t-12 22t-6 32t-3 38q-1 15 1.5 35t5.5 37q4 20 8 41q-42 -60 -82 -108
q-17 -20 -36 -39.5t-37.5 -34.5t-36 -24t-32.5 -9q-30 1 -46.5 17t-24 38t-8.5 46.5t-1 43.5q-2 64 16.5 137.5t52 141t80 121.5t101.5 80q25 12 48 21.5t45.5 15.5t46.5 9t53 3z"/>
            <glyph glyph-name="aring" unicode="&#xe5;"
                   d="M561 824q22 0 41 -9.5t19 -35.5q0 -15 -8 -27.5t-20.5 -21.5t-27.5 -14t-30 -5q-19 0 -37.5 14t-18.5 35t8 33.5t20 19.5t26.5 9t27.5 2zM561 816q-24 0 -39.5 -13t-15.5 -41q0 -17 12 -29t29 -12q10 -1 18.5 4.5t14.5 14t9.5 19t4.5 20.5q0 14 -9.5 25.5t-23.5 11.5z
M545 645q-22 0 -41 -2.5t-39 -13.5q-35 -19 -72.5 -67.5t-68 -112.5t-49.5 -136t-17 -139q0 -37 11.5 -53t17.5 -14q34 11 66.5 55t61.5 103.5t53 126.5t41.5 123t27 93t8.5 37zM693 662q0 -1 -5.5 -16.5t-15 -41t-21.5 -59t-24.5 -69.5t-24.5 -71.5t-22 -66.5
q-9 -29 -20.5 -64.5t-22.5 -70t-18.5 -65.5t-8.5 -52q3 -23 17 -23q7 0 17.5 11t22 27.5t22 37t16.5 39.5q11 31 19 56t13 57l8 -10l6 -10t3 -9q-12 -60 -38.5 -109.5t-59 -85.5t-66 -55.5t-60.5 -19.5q-14 0 -22 8t-12 22t-6 32t-3 38q-1 15 1.5 35t5.5 37q4 20 8 41
q-42 -60 -82 -108q-17 -20 -36 -39.5t-37.5 -34.5t-36 -24t-32.5 -9q-30 1 -46.5 17t-24 38t-8.5 46.5t-1 43.5q-2 64 16.5 137.5t52 141t80 121.5t101.5 80q25 12 48 21.5t45.5 15.5t46.5 9t53 3z"/>
            <glyph glyph-name="ccedilla" unicode="&#xe7;" horiz-adv-x="404"
                   d="M109 164q0 38 10.5 89.5t32 107.5t54 112t75.5 103q40 43 76.5 68.5t81.5 27.5q27 0 42.5 -13t23 -30.5t9.5 -36t2 -29.5v-6q0 -49 -8 -75.5t-18 -39.5q-11 -15 -25 -18q9 32 16 61q6 25 11.5 51.5t5.5 43.5q0 29 -5 49.5t-24 20.5q-14 -1 -35 -22t-44 -57t-46 -84
t-41.5 -101.5t-30.5 -110t-14 -109.5q-1 -22 1.5 -44.5t9.5 -41t20 -30t33 -11.5q17 0 31.5 11t27 28.5t23 40.5t19.5 47q19 55 34 127q3 -6 6 -9.5t5 -7.5t3.5 -9.5t1.5 -14.5q-1 -12 -8 -37t-21 -55t-34 -62t-47 -57.5t-59.5 -41t-71.5 -13.5l-13 -39q7 6 16 10
q8 4 17 6.5t18 1.5q15 -1 22.5 -5.5t11.5 -11t4.5 -13.5t0.5 -13q0 -42 -26.5 -69t-63.5 -27q-14 0 -28.5 9t-14.5 34q0 20 8 28l11 11h6q-4 -4 -7 -10q-2 -5 -4 -12.5t-2 -18.5q0 -13 5 -23t16 -10t21 8.5t18.5 21t13.5 28t6 30.5q0 14 -6.5 17.5t-15.5 3.5q-7 1 -14 -1.5
t-13 -4.5l-14 -7v11l14 45q-17 1 -36 9t-35.5 27.5t-27.5 53.5t-11 88z"/>
            <glyph glyph-name="eacute" unicode="&#xe9;" horiz-adv-x="445"
                   d="M547 777q-1 -18 -18.5 -30.5t-38 -20.5t-38 -11.5t-18.5 -3.5l105 103q2 -5 5 -11t3 -20v-6zM467 648q-15 -3 -31.5 -19t-32.5 -39.5t-31 -51.5t-26.5 -53.5t-20 -47t-11.5 -31.5q43 -4 74 19t51 57t30 71.5t10 63.5q0 2 -0.5 8t-2 11.5t-3.5 9t-6 2.5zM266 168
q-2 -21 2 -43.5t13 -40.5t23.5 -29.5t35.5 -11.5q18 0 33.5 11t29 29t25 40.5t20.5 45.5q22 55 38 124q3 -6 6 -9.5t6 -7.5t4.5 -9.5t1.5 -14.5q0 -15 -8.5 -40t-24.5 -54t-40 -58.5t-53.5 -53.5t-65 -39.5t-74.5 -16.5q-33 0 -57 12.5t-39.5 34.5t-23 53t-7.5 68
q0 39 10 92t31 110t54.5 112.5t80.5 99.5q62 57 120.5 75.5t104.5 18.5q29 0 45.5 -8t24 -19.5t9 -23t1.5 -17.5q-3 -56 -27 -96t-62.5 -65.5t-88 -37.5t-103.5 -10q-10 -20 -19 -51q-8 -26 -15.5 -68t-10.5 -102z"/>
            <glyph glyph-name="egrave" unicode="&#xe8;" horiz-adv-x="447"
                   d="M566 721q-1 0 -18 3.5t-37.5 11t-38.5 20.5t-19 31q0 14 2.5 21t7.5 14zM467 648q-15 -3 -31.5 -19t-32.5 -39.5t-31 -51.5t-26.5 -53.5t-20 -47t-11.5 -31.5q43 -4 74 19t51 57t30 71.5t10 63.5q0 2 -0.5 8t-2 11.5t-3.5 9t-6 2.5zM266 168q-2 -21 2 -43.5t13 -40.5
t23.5 -29.5t35.5 -11.5q18 0 33.5 11t29 29t25 40.5t20.5 45.5q22 55 38 124q3 -6 6 -9.5t6 -7.5t4.5 -9.5t1.5 -14.5q0 -15 -8.5 -40t-24.5 -54t-40 -58.5t-53.5 -53.5t-65 -39.5t-74.5 -16.5q-33 0 -57 12.5t-39.5 34.5t-23 53t-7.5 68q0 39 10 92t31 110t54.5 112.5
t80.5 99.5q62 57 120.5 75.5t104.5 18.5q29 0 45.5 -8t24 -19.5t9 -23t1.5 -17.5q-3 -56 -27 -96t-62.5 -65.5t-88 -37.5t-103.5 -10q-10 -20 -19 -51q-8 -26 -15.5 -68t-10.5 -102z"/>
            <glyph glyph-name="ecircumflex" unicode="&#xea;" horiz-adv-x="445"
                   d="M369 691q0 6 -1 12t-3 14q2 4 2 8q1 11 10.5 23.5t26.5 25t40 24t50 20.5q25 -14 45 -29q17 -14 31 -30.5t14 -33.5q0 -11 -3.5 -18t-8.5 -16q-14 32 -33 61.5t-41 58.5q-37 -24 -68.5 -56t-60.5 -64zM467 648q-15 -3 -31.5 -19t-32.5 -39.5t-31 -51.5t-26.5 -53.5
t-20 -47t-11.5 -31.5q43 -4 74 19t51 57t30 71.5t10 63.5q0 2 -0.5 8t-2 11.5t-3.5 9t-6 2.5zM266 168q-2 -21 2 -43.5t13 -40.5t23.5 -29.5t35.5 -11.5q18 0 33.5 11t29 29t25 40.5t20.5 45.5q22 55 38 124q3 -6 6 -9.5t6 -7.5t4.5 -9.5t1.5 -14.5q0 -15 -8.5 -40
t-24.5 -54t-40 -58.5t-53.5 -53.5t-65 -39.5t-74.5 -16.5q-33 0 -57 12.5t-39.5 34.5t-23 53t-7.5 68q0 39 10 92t31 110t54.5 112.5t80.5 99.5q62 57 120.5 75.5t104.5 18.5q29 0 45.5 -8t24 -19.5t9 -23t1.5 -17.5q-3 -56 -27 -96t-62.5 -65.5t-88 -37.5t-103.5 -10
q-10 -20 -19 -51q-8 -26 -15.5 -68t-10.5 -102z"/>
            <glyph glyph-name="edieresis" unicode="&#xeb;" horiz-adv-x="445"
                   d="M559 822q19 0 32.5 -13t13.5 -34q-1 -28 -21.5 -49t-48.5 -21q-17 0 -32 14t-15 33q0 13 5.5 25.5t15.5 22t23 15.5t27 7zM420 822q17 0 32 -13t15 -34q-2 -28 -22 -49t-49 -21q-19 0 -32.5 14t-13.5 33q0 13 5.5 25.5t15.5 22t22.5 15.5t26.5 7zM467 648
q-15 -3 -31.5 -19t-32.5 -39.5t-31 -51.5t-26.5 -53.5t-20 -47t-11.5 -31.5q43 -4 74 19t51 57t30 71.5t10 63.5q0 2 -0.5 8t-2 11.5t-3.5 9t-6 2.5zM266 168q-2 -21 2 -43.5t13 -40.5t23.5 -29.5t35.5 -11.5q18 0 33.5 11t29 29t25 40.5t20.5 45.5q22 55 38 124
q3 -6 6 -9.5t6 -7.5t4.5 -9.5t1.5 -14.5q0 -15 -8.5 -40t-24.5 -54t-40 -58.5t-53.5 -53.5t-65 -39.5t-74.5 -16.5q-33 0 -57 12.5t-39.5 34.5t-23 53t-7.5 68q0 39 10 92t31 110t54.5 112.5t80.5 99.5q62 57 120.5 75.5t104.5 18.5q29 0 45.5 -8t24 -19.5t9 -23t1.5 -17.5
q-3 -56 -27 -96t-62.5 -65.5t-88 -37.5t-103.5 -10q-10 -20 -19 -51q-8 -26 -15.5 -68t-10.5 -102z"/>
            <glyph glyph-name="iacute" unicode="&#xed;" horiz-adv-x="336"
                   d="M424 785q-1 -18 -18.5 -30.5t-38 -20.5t-38 -11.5t-18.5 -3.5l105 103q2 -6 5 -11.5t3 -19.5v-6zM340 662q26 1 45 -19t19 -49q0 -36 -9 -71.5t-21 -70t-25 -68.5t-21 -68q-6 -28 -14.5 -56.5t-15.5 -55t-11.5 -49.5t-3.5 -38q0 -6 1 -14t3.5 -15t6.5 -11.5t11 -4.5
q10 0 21 15t20.5 37.5t18.5 49t15.5 49t9.5 37.5l3 15q2 -5 5.5 -9t3.5 -16q0 -30 -9.5 -60t-25.5 -58t-36 -52.5t-40.5 -42.5t-39.5 -28.5t-34 -10.5q-18 0 -32.5 9.5t-25 25.5t-16.5 36.5t-6 43.5q0 22 11 58t27 80t35 91.5t35 92.5t25.5 84t8.5 65q0 8 -5 14t-10 7
q-6 1 -13.5 -5.5t-15 -18.5t-15 -28t-14.5 -32q-16 -39 -32 -89q-2 3 -7 5t-3 10q9 40 27 77.5t41 67.5t51 49t57 21z"/>
            <glyph glyph-name="igrave" unicode="&#xec;" horiz-adv-x="336"
                   d="M451 732q-1 0 -18 3.5t-37.5 11.5t-38.5 21t-19 31q0 13 2.5 20t7.5 15zM340 662q26 1 45 -19t19 -49q0 -36 -9 -71.5t-21 -70t-25 -68.5t-21 -68q-6 -28 -14.5 -56.5t-15.5 -55t-11.5 -49.5t-3.5 -38q0 -6 1 -14t3.5 -15t6.5 -11.5t11 -4.5q10 0 21 15t20.5 37.5
t18.5 49t15.5 49t9.5 37.5l3 15q2 -5 5.5 -9t3.5 -16q0 -30 -9.5 -60t-25.5 -58t-36 -52.5t-40.5 -42.5t-39.5 -28.5t-34 -10.5q-18 0 -32.5 9.5t-25 25.5t-16.5 36.5t-6 43.5q0 22 11 58t27 80t35 91.5t35 92.5t25.5 84t8.5 65q0 8 -5 14t-10 7q-6 1 -13.5 -5.5t-15 -18.5
t-15 -28t-14.5 -32q-16 -39 -32 -89q-2 3 -7 5t-3 10q9 40 27 77.5t41 67.5t51 49t57 21z"/>
            <glyph glyph-name="icircumflex" unicode="&#xee;" horiz-adv-x="336"
                   d="M262 695q0 6 -1 12t-3 14q2 4 2 8q1 11 10.5 23.5t26.5 25t40 24t50 20.5q25 -14 45 -29q17 -14 31 -30.5t14 -33.5q0 -11 -3.5 -18t-8.5 -16q-15 32 -33.5 61.5t-40.5 57.5q-37 -23 -68.5 -55t-60.5 -64zM340 662q26 1 45 -19t19 -49q0 -36 -9 -71.5t-21 -70t-25 -68.5
t-21 -68q-6 -28 -14.5 -56.5t-15.5 -55t-11.5 -49.5t-3.5 -38q0 -6 1 -14t3.5 -15t6.5 -11.5t11 -4.5q10 0 21 15t20.5 37.5t18.5 49t15.5 49t9.5 37.5l3 15q2 -5 5.5 -9t3.5 -16q0 -30 -9.5 -60t-25.5 -58t-36 -52.5t-40.5 -42.5t-39.5 -28.5t-34 -10.5q-18 0 -32.5 9.5
t-25 25.5t-16.5 36.5t-6 43.5q0 22 11 58t27 80t35 91.5t35 92.5t25.5 84t8.5 65q0 8 -5 14t-10 7q-6 1 -13.5 -5.5t-15 -18.5t-15 -28t-14.5 -32q-16 -39 -32 -89q-2 3 -7 5t-3 10q9 40 27 77.5t41 67.5t51 49t57 21z"/>
            <glyph glyph-name="idieresis" unicode="&#xef;" horiz-adv-x="336"
                   d="M465 830q19 0 33 -13t14 -34q-2 -28 -22 -49t-49 -21q-17 0 -31.5 13.5t-14.5 33.5q0 13 5.5 25.5t15.5 22t22.5 15.5t26.5 7zM326 830q18 0 32.5 -13t14.5 -34q-2 -28 -22 -49t-48 -21q-20 0 -33.5 13.5t-13.5 33.5q0 13 5.5 25.5t15.5 22t22.5 15.5t26.5 7zM340 662
q26 1 45 -19t19 -49q0 -36 -9 -71.5t-21 -70t-25 -68.5t-21 -68q-6 -28 -14.5 -56.5t-15.5 -55t-11.5 -49.5t-3.5 -38q0 -6 1 -14t3.5 -15t6.5 -11.5t11 -4.5q10 0 21 15t20.5 37.5t18.5 49t15.5 49t9.5 37.5l3 15q2 -5 5.5 -9t3.5 -16q0 -30 -9.5 -60t-25.5 -58t-36 -52.5
t-40.5 -42.5t-39.5 -28.5t-34 -10.5q-18 0 -32.5 9.5t-25 25.5t-16.5 36.5t-6 43.5q0 22 11 58t27 80t35 91.5t35 92.5t25.5 84t8.5 65q0 8 -5 14t-10 7q-6 1 -13.5 -5.5t-15 -18.5t-15 -28t-14.5 -32q-16 -39 -32 -89q-2 3 -7 5t-3 10q9 40 27 77.5t41 67.5t51 49t57 21z
"/>
            <glyph glyph-name="ntilde" unicode="&#xf1;" horiz-adv-x="617"
                   d="M461 801q-6 -1 -13 -9t-13.5 -18t-10.5 -18.5t-4 -9.5q0 1 2.5 14t9.5 28t18 27.5t29 12.5q15 0 25 -8.5t18.5 -19t17.5 -19t21 -8.5q10 0 18.5 8t14.5 18q7 11 13 27q0 -1 -1 -14t-7 -28t-18.5 -28t-35.5 -14q-15 0 -25.5 10t-20 21t-18.5 20t-20 8zM102 2l5 16t14 42.5
t20 60t23 70t23.5 72.5t21.5 67q9 29 20.5 64.5t21.5 70t17 64.5t7 49q0 27 -11 27q-8 1 -23 -19t-31.5 -49.5t-29.5 -63t-16 -59.5q-3 5 -6 9l-4.5 9t-3.5 11l2 4v2q14 54 42 95.5t59.5 69.5t61 41.5t46.5 12.5q26 -2 35.5 -25t9.5 -55q0 -29 -6 -60.5t-11 -48.5
q38 54 77 96q16 18 34.5 35t37.5 30.5t38 21.5t37 8q15 -1 28.5 -6.5t24 -15.5t16 -24t4.5 -32q-7 -61 -22 -116t-33 -110t-35.5 -113.5t-27.5 -125.5v-7.5t-2 -10.5q2 -16 7.5 -28.5t16.5 -12.5q10 0 22 16.5t23.5 40.5t22 51.5t18.5 51t13 39.5t4 16q3 -6 6.5 -9.5
t3.5 -13.5q0 -46 -25 -93.5t-59.5 -86.5t-70.5 -63.5t-58 -24.5q-35 0 -53.5 25.5t-18.5 60.5q0 21 10 56.5t24.5 78.5t32 89.5t32 91.5t24.5 83.5t10 65.5q0 5 -1 13.5t-3.5 16.5t-6.5 13.5t-11 5.5q-16 0 -39.5 -18t-47.5 -46.5t-45.5 -64t-33.5 -70.5q-17 -53 -37.5 -121
t-38.5 -130q-21 -72 -43 -146q-35 0 -70 2t-70 2z"/>
            <glyph glyph-name="oacute" unicode="&#xf3;" horiz-adv-x="455"
                   d="M553 795q-1 -18 -18.5 -30.5t-38.5 -20.5t-38.5 -11.5t-18.5 -3.5l106 103q2 -6 5 -12t3 -19v-6zM422 615q-24 -29 -51 -77t-50.5 -107.5t-39.5 -127.5t-19 -135q0 -51 20 -80t42 -31l4 2q20 0 43.5 28t46.5 73t44 102t36 116.5t23 117t6 102.5q-2 23 -11 42.5t-30 19.5
q-25 0 -64 -45zM379 650q19 9 43.5 16.5t50.5 7.5q21 0 40 -7t34 -24.5t25 -46.5t12 -73q2 -57 -12.5 -118.5t-41 -121t-62.5 -113t-77 -94t-84.5 -64t-83.5 -24.5q-16 0 -36 8.5t-38 29t-30 55t-12 85.5q0 59 17.5 130.5t52 139.5t85.5 125t117 89z"/>
            <glyph glyph-name="ograve" unicode="&#xf2;" horiz-adv-x="455"
                   d="M570 723q-1 0 -18 3.5t-37.5 11t-38.5 20.5t-19 31q0 14 2.5 20.5t7.5 14.5zM422 615q-24 -29 -51 -77t-50.5 -107.5t-39.5 -127.5t-19 -135q0 -51 20 -80t42 -31l4 2q20 0 43.5 28t46.5 73t44 102t36 116.5t23 117t6 102.5q-2 23 -11 42.5t-30 19.5q-25 0 -64 -45z
M379 650q19 9 43.5 16.5t50.5 7.5q21 0 40 -7t34 -24.5t25 -46.5t12 -73q2 -57 -12.5 -118.5t-41 -121t-62.5 -113t-77 -94t-84.5 -64t-83.5 -24.5q-16 0 -36 8.5t-38 29t-30 55t-12 85.5q0 59 17.5 130.5t52 139.5t85.5 125t117 89z"/>
            <glyph glyph-name="ocircumflex" unicode="&#xf4;" horiz-adv-x="455"
                   d="M373 703q0 6 -1 12t-3 14q2 3 2 7q1 11 10.5 24t26.5 25.5t40 24t50 20.5q25 -13 45 -29q17 -14 31 -31t14 -34q0 -10 -3.5 -17t-8.5 -16q-14 32 -33 61.5t-41 57.5q-37 -23 -68.5 -55t-60.5 -64zM422 615q-24 -29 -51 -77t-50.5 -107.5t-39.5 -127.5t-19 -135
q0 -51 20 -80t42 -31l4 2q20 0 43.5 28t46.5 73t44 102t36 116.5t23 117t6 102.5q-2 23 -11 42.5t-30 19.5q-25 0 -64 -45zM379 650q19 9 43.5 16.5t50.5 7.5q21 0 40 -7t34 -24.5t25 -46.5t12 -73q2 -57 -12.5 -118.5t-41 -121t-62.5 -113t-77 -94t-84.5 -64t-83.5 -24.5
q-16 0 -36 8.5t-38 29t-30 55t-12 85.5q0 59 17.5 130.5t52 139.5t85.5 125t117 89z"/>
            <glyph glyph-name="odieresis" unicode="&#xf6;" horiz-adv-x="455"
                   d="M578 828q20 0 33.5 -13t13.5 -34q-2 -28 -22 -49t-48 -21q-18 0 -32.5 13.5t-14.5 33.5q0 13 5.5 25.5t15.5 22t22.5 15.5t26.5 7zM439 828q18 0 32.5 -13t14.5 -34q-2 -28 -22 -49t-48 -21q-19 0 -33 13.5t-14 33.5q0 13 5.5 25.5t15.5 22t22.5 15.5t26.5 7zM422 615
q-24 -29 -51 -77t-50.5 -107.5t-39.5 -127.5t-19 -135q0 -51 20 -80t42 -31l4 2q20 0 43.5 28t46.5 73t44 102t36 116.5t23 117t6 102.5q-2 23 -11 42.5t-30 19.5q-25 0 -64 -45zM379 650q19 9 43.5 16.5t50.5 7.5q21 0 40 -7t34 -24.5t25 -46.5t12 -73q2 -57 -12.5 -118.5
t-41 -121t-62.5 -113t-77 -94t-84.5 -64t-83.5 -24.5q-16 0 -36 8.5t-38 29t-30 55t-12 85.5q0 59 17.5 130.5t52 139.5t85.5 125t117 89z"/>
            <glyph glyph-name="otilde" unicode="&#xf5;" horiz-adv-x="455"
                   d="M438 797q-6 -1 -13.5 -9t-13.5 -18t-10.5 -18.5t-4.5 -9.5q0 1 2.5 14t9.5 28t18 27.5t29 12.5q15 0 25 -8.5t19 -18.5t17.5 -18.5t20.5 -8.5q10 0 19 8t15 18q7 11 13 26q0 -1 -1 -14t-7 -28t-18.5 -28t-36.5 -14q-15 0 -25.5 10t-19.5 21t-18 20t-20 8zM422 615
q-24 -29 -51 -77t-50.5 -107.5t-39.5 -127.5t-19 -135q0 -51 20 -80t42 -31l4 2q20 0 43.5 28t46.5 73t44 102t36 116.5t23 117t6 102.5q-2 23 -11 42.5t-30 19.5q-25 0 -64 -45zM379 650q19 9 43.5 16.5t50.5 7.5q21 0 40 -7t34 -24.5t25 -46.5t12 -73q2 -57 -12.5 -118.5
t-41 -121t-62.5 -113t-77 -94t-84.5 -64t-83.5 -24.5q-16 0 -36 8.5t-38 29t-30 55t-12 85.5q0 59 17.5 130.5t52 139.5t85.5 125t117 89z"/>
            <glyph glyph-name="uacute" unicode="&#xfa;" horiz-adv-x="586"
                   d="M580 797q-1 -18 -18.5 -30.5t-38 -20.5t-38 -12t-18.5 -4l105 104q2 -6 5 -12t3 -19v-6zM715 664q0 -1 -5 -16.5t-13.5 -41t-20 -59t-23.5 -69.5t-24 -71.5t-22 -66.5q-9 -29 -19 -64t-19 -69.5t-15 -65.5t-7 -51q2 -12 4 -18t8 -6q7 1 15 8.5t15.5 18.5t14.5 24.5
t13 25.5q15 31 28.5 62t18.5 70q4 -5 7 -10q2 -5 4 -9.5t1 -9.5q-11 -51 -40 -98.5t-62.5 -83t-65 -56t-49.5 -18.5q-26 5 -38 24t-15 58q-1 15 1.5 38.5t5.5 45.5q4 26 9 53q-39 -63 -79 -111q-17 -21 -35.5 -40.5t-38 -34t-38.5 -23t-36 -6.5q-15 1 -29 7.5t-25.5 17.5
t-18 26.5t-5.5 34.5q1 40 9.5 73t21 63t27 60.5t28.5 65.5q11 28 25.5 57t28 59t23 60.5t9.5 61.5q0 12 -2 20.5t-8 10.5q-10 1 -22 -11.5t-24.5 -32.5t-24.5 -44t-21.5 -45t-15.5 -36t-7 -16h2q-3 6 -8.5 9t-3.5 14q5 31 27 70t51 72.5t60.5 56.5t55.5 22q32 -2 50 -16
t18 -49q0 -21 -11 -57.5t-27.5 -81.5t-36 -94.5t-36 -96.5t-28 -87.5t-11.5 -68.5q4 -11 7 -19t20 -8q16 0 38 18t44.5 46.5t42 64t31.5 70.5q17 52 38 116t40 120q22 65 45 131q24 3 47.5 5.5t46.5 0.5h49z"/>
            <glyph glyph-name="ugrave" unicode="&#xf9;" horiz-adv-x="586"
                   d="M602 729q-1 0 -18 3.5t-38 11t-39 20.5t-19 31q0 14 2.5 20.5t7.5 14.5zM715 664q0 -1 -5 -16.5t-13.5 -41t-20 -59t-23.5 -69.5t-24 -71.5t-22 -66.5q-9 -29 -19 -64t-19 -69.5t-15 -65.5t-7 -51q2 -12 4 -18t8 -6q7 1 15 8.5t15.5 18.5t14.5 24.5t13 25.5
q15 31 28.5 62t18.5 70q4 -5 7 -10q2 -5 4 -9.5t1 -9.5q-11 -51 -40 -98.5t-62.5 -83t-65 -56t-49.5 -18.5q-26 5 -38 24t-15 58q-1 15 1.5 38.5t5.5 45.5q4 26 9 53q-39 -63 -79 -111q-17 -21 -35.5 -40.5t-38 -34t-38.5 -23t-36 -6.5q-15 1 -29 7.5t-25.5 17.5t-18 26.5
t-5.5 34.5q1 40 9.5 73t21 63t27 60.5t28.5 65.5q11 28 25.5 57t28 59t23 60.5t9.5 61.5q0 12 -2 20.5t-8 10.5q-10 1 -22 -11.5t-24.5 -32.5t-24.5 -44t-21.5 -45t-15.5 -36t-7 -16h2q-3 6 -8.5 9t-3.5 14q5 31 27 70t51 72.5t60.5 56.5t55.5 22q32 -2 50 -16t18 -49
q0 -21 -11 -57.5t-27.5 -81.5t-36 -94.5t-36 -96.5t-28 -87.5t-11.5 -68.5q4 -11 7 -19t20 -8q16 0 38 18t44.5 46.5t42 64t31.5 70.5q17 52 38 116t40 120q22 65 45 131q24 3 47.5 5.5t46.5 0.5h49z"/>
            <glyph glyph-name="ucircumflex" unicode="&#xfb;" horiz-adv-x="584"
                   d="M412 703q0 6 -1 12t-3 14q2 3 2 7q1 11 10.5 24t26.5 25.5t40 24t50 20.5q25 -13 45 -29q17 -14 31 -31t14 -34q0 -10 -3.5 -17t-8.5 -16q-14 32 -33 61.5t-41 57.5q-37 -23 -68.5 -55t-60.5 -64zM715 664q0 -1 -5 -16.5t-13.5 -41t-20 -59t-23.5 -69.5t-24 -71.5
t-22 -66.5q-9 -29 -19 -64t-19 -69.5t-15 -65.5t-7 -51q2 -12 4 -18t8 -6q7 1 15 8.5t15.5 18.5t14.5 24.5t13 25.5q15 31 28.5 62t18.5 70q4 -5 7 -10q2 -5 4 -9.5t1 -9.5q-11 -51 -40 -98.5t-62.5 -83t-65 -56t-49.5 -18.5q-26 5 -38 24t-15 58q-1 15 1.5 38.5t5.5 45.5
q4 26 9 53q-39 -63 -79 -111q-17 -21 -35.5 -40.5t-38 -34t-38.5 -23t-36 -6.5q-15 1 -29 7.5t-25.5 17.5t-18 26.5t-5.5 34.5q1 40 9.5 73t21 63t27 60.5t28.5 65.5q11 28 25.5 57t28 59t23 60.5t9.5 61.5q0 12 -2 20.5t-8 10.5q-10 1 -22 -11.5t-24.5 -32.5t-24.5 -44
t-21.5 -45t-15.5 -36t-7 -16h2q-3 6 -8.5 9t-3.5 14q5 31 27 70t51 72.5t60.5 56.5t55.5 22q32 -2 50 -16t18 -49q0 -21 -11 -57.5t-27.5 -81.5t-36 -94.5t-36 -96.5t-28 -87.5t-11.5 -68.5q4 -11 7 -19t20 -8q16 0 38 18t44.5 46.5t42 64t31.5 70.5q17 52 38 116t40 120
q22 65 45 131q24 3 47.5 5.5t46.5 0.5h49z"/>
            <glyph glyph-name="udieresis" unicode="&#xfc;" horiz-adv-x="584"
                   d="M607 828q20 0 33.5 -13t13.5 -34q-2 -28 -22 -49t-48 -21q-17 0 -32 13.5t-15 33.5q0 13 5.5 25.5t15.5 22t22.5 15.5t26.5 7zM469 828q17 0 32 -13t15 -34q-2 -28 -22.5 -49t-48.5 -21q-19 0 -33 13.5t-14 33.5q0 13 6 25.5t15.5 22t22.5 15.5t27 7zM715 664
q0 -1 -5 -16.5t-13.5 -41t-20 -59t-23.5 -69.5t-24 -71.5t-22 -66.5q-9 -29 -19 -64t-19 -69.5t-15 -65.5t-7 -51q2 -12 4 -18t8 -6q7 1 15 8.5t15.5 18.5t14.5 24.5t13 25.5q15 31 28.5 62t18.5 70q4 -5 7 -10q2 -5 4 -9.5t1 -9.5q-11 -51 -40 -98.5t-62.5 -83t-65 -56
t-49.5 -18.5q-26 5 -38 24t-15 58q-1 15 1.5 38.5t5.5 45.5q4 26 9 53q-39 -63 -79 -111q-17 -21 -35.5 -40.5t-38 -34t-38.5 -23t-36 -6.5q-15 1 -29 7.5t-25.5 17.5t-18 26.5t-5.5 34.5q1 40 9.5 73t21 63t27 60.5t28.5 65.5q11 28 25.5 57t28 59t23 60.5t9.5 61.5
q0 12 -2 20.5t-8 10.5q-10 1 -22 -11.5t-24.5 -32.5t-24.5 -44t-21.5 -45t-15.5 -36t-7 -16h2q-3 6 -8.5 9t-3.5 14q5 31 27 70t51 72.5t60.5 56.5t55.5 22q32 -2 50 -16t18 -49q0 -21 -11 -57.5t-27.5 -81.5t-36 -94.5t-36 -96.5t-28 -87.5t-11.5 -68.5q4 -11 7 -19t20 -8
q16 0 38 18t44.5 46.5t42 64t31.5 70.5q17 52 38 116t40 120q22 65 45 131q24 3 47.5 5.5t46.5 0.5h49z"/>
            <glyph glyph-name="dagger" unicode="&#x2020;" horiz-adv-x="568"
                   d="M244 0q45 115 83.5 236t76.5 241h-61.5t-48.5 -1t-48.5 -3t-61.5 -6q10 22 19 47.5t12 48.5q18 -2 30.5 -3.5t22 -3t19 -2t22.5 -1.5q17 2 43 2h72q22 65 40 139.5t34 139.5q2 0 15.5 -1t33.5 -3q13 1 25.5 1.5t23.5 1.5q12 1 23 1q-15 -35 -26.5 -63.5t-23.5 -59.5
t-25.5 -67.5t-31.5 -88.5h64t43 -2q24 1 37.5 1.5t23.5 2t20.5 3t28.5 3.5q-9 -24 -17.5 -43t-14.5 -53q-34 3 -57.5 5t-45.5 3t-47 1.5t-61 0.5q-21 -62 -37.5 -113.5t-32.5 -104.5t-33 -114.5t-39 -144.5h-100z"/>
            <glyph glyph-name="cent" unicode="&#xa2;" horiz-adv-x="436"
                   d="M316 273q65 127 116 257t82 269q-14 -7 -32 -28.5t-36.5 -51t-36 -64t-30.5 -67.5q-19 -48 -31 -86t-19 -74t-9.5 -73t-3.5 -82zM168 322q1 41 11.5 92.5t31.5 105.5t52.5 108t74.5 101q35 38 74 65.5t86 27.5h22q1 5 1 12t1 13t4 10t11 4q9 0 11.5 -10t2.5 -25v-27
q8 -12 12 -25t6 -25t2.5 -22.5t0.5 -17.5q0 -46 -7 -72t-16 -39t-17.5 -17t-11.5 -5q4 26 9.5 47.5t11 39.5t9 35t3.5 34q0 22 -6 45q-5 -34 -19.5 -72t-32 -74.5t-35 -70.5t-28.5 -60q-21 -51 -35.5 -86.5t-25.5 -65.5t-20 -58.5l-21 -66.5q5 -9 15 -20.5t32 -11.5
q17 0 31.5 11t27 28.5t23 40.5t19.5 47q19 55 34 127q3 -5 6.5 -8t6 -6.5t4 -9t0.5 -15.5q-1 -13 -7.5 -37t-19 -53t-31.5 -59.5t-44 -56t-56 -42.5t-68 -19l-18 -65q-9 18 -13 30t-6 27q2 5 2 6.5v3.5q-30 4 -49 21t-30.5 42t-16 55.5t-4.5 62.5z"/>
            <glyph glyph-name="sterling" unicode="&#xa3;" horiz-adv-x="514"
                   d="M414 -6q-25 1 -43 12.5t-35.5 25t-37.5 24.5t-48 10q-29 -1 -63 -11t-63.5 -22t-49.5 -21.5t-21 -9.5q48 97 86.5 198.5t63.5 207.5l-64 4l7 29h65q14 80 40 150q11 30 26.5 60.5t35.5 58.5t44.5 50.5t54.5 36.5q20 9 37.5 16t35 11t36 5.5t40.5 0.5q35 -1 59 -6
t38.5 -12t20.5 -15t5 -14q-12 -76 -28.5 -119t-32 -64.5t-27 -26.5t-12.5 -5q13 33 24 66q9 28 16.5 59.5t6.5 56.5q0 22 -12.5 40.5t-40.5 18.5q-31 -1 -54.5 -19t-42.5 -46.5t-34.5 -63.5t-30.5 -69q-10 -23 -18.5 -52.5t-16.5 -56.5q-9 -32 -16 -64h61l-10 -34l-62 4
q-8 -35 -18 -68q-8 -29 -20 -60.5t-25 -56.5q-9 -19 -24 -40t-29 -39t-24 -30.5t-11 -13.5q29 16 57 29q24 11 50.5 20t46.5 9q18 0 32.5 -5.5t28.5 -12t28.5 -12t32.5 -5.5q27 -1 45 22.5t29.5 52t16 52.5t4.5 25q2 -3 6 -7t4 -12v-2q-5 -31 -12.5 -52.5t-20.5 -49.5
q-13 -26 -26 -54.5t-28.5 -51.5t-35.5 -38t-47 -14z"/>
            <glyph glyph-name="section" unicode="&#xa7;" horiz-adv-x="557"
                   d="M547 291q16 26 16 55q0 25 -15 46.5t-50 33.5l-187 66q-18 -14 -31 -24t-22.5 -21.5t-16.5 -27t-14 -40.5q-8 -27 14.5 -48.5t62 -40t89 -36t97.5 -35.5q10 9 17 17t13 16t12.5 17.5t14.5 21.5zM281 508q-19 14 -26 33.5t-9 36.5q7 58 36.5 111t74 94t99.5 65.5t114 26.5
q26 1 46 -1t39 -6.5t38.5 -11.5t44.5 -16q-17 -43 -33 -83.5t-33 -90.5h-35l23 96q-11 15 -26.5 25.5t-33.5 17t-36.5 9t-36.5 2.5q-35 0 -68.5 -12.5t-60.5 -35t-45.5 -53t-22.5 -65.5q1 -26 21 -43t54.5 -32t82 -31t102.5 -40q37 -17 51.5 -42t14.5 -56q0 -35 -13 -64
t-34 -54t-47 -45.5t-52 -37.5q23 -20 34 -39.5t11 -42.5q0 -11 -2.5 -22t-7.5 -25q-15 -44 -54 -87t-89.5 -78t-107 -58t-106.5 -27q-13 -1 -33.5 1t-44.5 8t-48.5 16.5t-45.5 25.5l72 176h33l-19 -63q-2 -5 -2 -8.5t-2 -8.5q1 -27 15.5 -43.5t35.5 -25.5t45 -12t44 -3
q37 0 71 7.5t62 24t49.5 44t34.5 66.5q8 24 1.5 43.5t-23.5 34.5t-42 27t-52.5 22.5t-56 20.5t-52.5 20q-29 13 -47.5 26.5t-29.5 27t-15 26.5t-5 26q4 34 18 63t33.5 53.5t44.5 46t52 40.5z"/>
            <glyph glyph-name="paragraph" unicode="&#xb6;" horiz-adv-x="660"
                   d="M545 787h-16q-39 0 -73 -17.5t-59.5 -45.5t-41 -63.5t-19.5 -72.5q2 -45 30 -79.5t81 -39.5zM525 -76v-4.5t-2 -5.5q3 -15 13.5 -22.5t25 -10.5t30 -3t27.5 -1l-10 -31q-59 0 -116 2t-116 2q-60 0 -121 -2t-121 -2l10 33q20 3 41 5t40 8t33.5 18t21.5 35l149 479
q-15 -1 -36 3t-43 11.5t-44 18t-39 23.5q-26 18 -40.5 49t-16.5 71q3 56 30 101.5t69 77t95 47.5t107 12q26 -2 56.5 -3.5t60 -3t56 -2.5t45.5 -1q49 0 98 2t100 2l-12 -35q-23 0 -45.5 -2.5t-41 -10t-33 -23t-21.5 -40.5zM633 789l-281 -896h74l283 896h-76z"/>
            <glyph glyph-name="germandbls" unicode="&#xdf;" horiz-adv-x="484"
                   d="M145 -123q-9 -8 -23.5 -13t-31.5 -7.5t-34.5 -3.5t-32.5 -1h-27q31 92 63 184q13 39 28 82l30 86t29.5 85t27.5 80q16 46 31.5 97.5t33 101.5t38.5 95.5t49 79.5t64.5 54t84.5 19q20 0 36 -2t36 -7l-4 -18h-31q-14 0 -25 -2t-24 -8q-19 -9 -34.5 -40t-27.5 -66
q-14 -40 -26 -89q20 23 44 41q20 15 45.5 27.5t53.5 11.5q15 -1 28 -5t23.5 -12t16.5 -21.5t6 -33.5q-1 -40 -13.5 -68.5t-31 -48t-40.5 -31.5t-42.5 -19.5t-36 -10.5t-20.5 -6q13 -2 39.5 -3.5t52 -9t44 -25.5t15.5 -54q-7 -85 -36 -144t-68 -96t-82 -54t-78 -18
q-14 2 -24 4.5t-19 5.5l8 29q36 2 67.5 34t55 77t36.5 94t13 86q0 18 -6 29t-15.5 17t-20.5 8.5t-21 2.5q-5 0 -10 -0.5t-8 -0.5q-4 -1 -7 -1l8 29q7 3 25.5 8.5t38 21t35 44t16.5 78.5q0 24 -8 30.5t-21 6.5q-24 -1 -46 -29.5t-42 -75.5t-39 -107.5t-37 -125t-34.5 -128.5
t-32.5 -118t-31.5 -93t-30.5 -53z"/>
            <glyph glyph-name="registered" unicode="&#xae;" horiz-adv-x="912"
                   d="M557 432q28 -2 59 6t57 24t43.5 40.5t17.5 56.5q0 17 -6.5 28.5t-17.5 18.5t-25 10t-29 3q-22 0 -40 -3.5t-30 -8.5l-115 -363q-2 -8 -3 -12.5t-3 -10.5q2 -9 8.5 -11.5t20.5 -2.5l24 -2l-6 -19q-23 0 -44.5 2.5t-43.5 2.5q-23 0 -47 -2.5t-47 -2.5l6 21l19 2q9 1 17 1
t15 3t12.5 10t10.5 21l108 342q3 12 3 19q0 11 -9.5 14.5t-34.5 3.5h-8l6 20q23 0 45.5 -1t45.5 -1q32 0 66.5 1t68.5 3q18 0 36.5 -3t34.5 -10.5t26 -20t11 -31.5q1 -35 -15 -62.5t-42 -47.5t-57.5 -33.5t-59.5 -20.5l88 -191q5 -12 10 -15t13 -5q4 2 6 2l-6 -19h-66h-11
t-11 -2l-107 236zM711 787q-75 0 -142 -21.5t-123 -58.5t-101 -86t-76.5 -103.5t-48.5 -112.5t-17 -112q1 -51 17 -96.5t49.5 -79t85 -53t122.5 -19.5q76 0 143.5 21.5t124 58.5t101 85.5t76 103.5t48 112t16.5 111q0 52 -16 97.5t-50 79.5t-85.5 53.5t-123.5 19.5zM463 0
q-80 0 -137.5 22t-95 59.5t-55.5 88t-19 107.5q0 61 19 126t54 126.5t85.5 116.5t113.5 96.5t138 65.5t159 24q80 0 138.5 -22t96 -60t55.5 -88.5t18 -108.5q0 -61 -18.5 -125t-53.5 -125.5t-85.5 -116.5t-113.5 -96.5t-138.5 -65.5t-160.5 -24z"/>
            <glyph glyph-name="copyright" unicode="&#xa9;" horiz-adv-x="910"
                   d="M719 623q-3 0 -18 2t-35 2q-50 0 -92 -19.5t-75 -52.5t-55 -75.5t-32 -88.5q-2 -9 -2 -19t-2 -20q2 -61 39.5 -101t99.5 -40q25 -1 46 1.5t40 8t38 13t40 16.5l4 -8l-20 -27q-41 -17 -81.5 -29t-80.5 -10q-94 2 -144.5 43t-52.5 115q2 14 3 25.5t3 23.5q12 58 42.5 107
t74 85t97 56.5t112.5 20.5q45 0 83.5 -8t80.5 -23l-45 -98h-17q2 14 6.5 25.5t4.5 21.5q0 17 -12.5 29t-49.5 24zM711 787q-75 0 -142 -21.5t-123 -58.5t-101 -86t-76.5 -103.5t-48.5 -112.5t-17 -112q1 -51 17 -96.5t49.5 -79t85 -53t122.5 -19.5q76 0 143.5 21.5t124 58.5
t101 85.5t76 103.5t48 112t16.5 111q0 52 -16 97.5t-50 79.5t-85.5 53.5t-123.5 19.5zM463 0q-80 0 -137.5 22t-95 59.5t-55.5 88t-19 107.5q0 61 19 126t54 126.5t85.5 116.5t113.5 96.5t138 65.5t159 24q80 0 138.5 -22t96 -60t55.5 -88.5t18 -108.5q0 -61 -18.5 -125
t-53.5 -125.5t-85.5 -116.5t-113.5 -96.5t-138.5 -65.5t-160.5 -24z"/>
            <glyph glyph-name="trademark" unicode="&#x2122;" horiz-adv-x="924"
                   d="M697 738q-9 -33 -21.5 -72.5t-25.5 -78.5t-24.5 -74.5t-18.5 -59.5v-4.5t-2 -5.5q2 -8 7 -14.5t11 -6.5q9 -2 18.5 -2h12.5l-6 -18h-142l6 18q17 0 36.5 4.5t25.5 24.5q4 11 11 33t16 50t18.5 60t19.5 63t19 58.5t16 46.5q2 6 2 9v6q0 8 -2 10q-5 6 -18.5 7t-26.5 1l6 20
h21.5t31.5 -2q13 2 27 2h33l53 -327q48 60 83 103.5t64.5 80t55 70t53.5 73.5h113l-6 -18h-8q-25 0 -37.5 -4t-20.5 -29l-96 -307q-2 -5 -2 -8t-2 -8q3 -17 33 -17l16 -2l-6 -18h-168l6 18l17 2q21 0 30.5 6t16.5 25l90 285l-267 -342h-12zM398 402q-22 0 -37.5 1t-32.5 1
q-19 0 -39.5 -1t-54.5 -1l6 18q10 1 20 1.5t18.5 3.5t15.5 9.5t11 18.5l105 328h-12.5t-14.5 -2h-65q-11 0 -18.5 -6.5t-12.5 -16t-9 -20t-8 -19.5h-18l27 96q51 0 86.5 -1t66.5 -3q22 1 42.5 1.5t42.5 1t46.5 1t53.5 0.5l-37 -98h-16q2 8 5 19.5t3 23.5q0 14 -7 18.5
t-24 4.5h-78l-104 -328q0 -3 -1 -6t-3 -8q0 -11 10 -15t24 -6q5 2 8.5 2h6.5z"/>
            <glyph glyph-name="acute" unicode="&#xb4;" horiz-adv-x="168"
                   d="M389 791q-1 -18 -18.5 -30.5t-38.5 -20.5t-38.5 -11.5t-18.5 -3.5l106 103q2 -6 5 -12t3 -19v-6z"/>
            <glyph glyph-name="dieresis" unicode="&#xa8;" horiz-adv-x="332"
                   d="M500 828q19 0 33 -13t14 -34q-2 -28 -22 -49t-48 -21q-18 0 -32.5 13.5t-14.5 33.5q0 13 5.5 25.5t15.5 22t22.5 15.5t26.5 7zM361 828q18 0 32.5 -13t14.5 -34q-2 -28 -22 -49t-48 -21q-19 0 -33 13.5t-14 33.5q0 13 5.5 25.5t15.5 22t22.5 15.5t26.5 7z"/>
            <glyph glyph-name="AE" unicode="&#xc6;" horiz-adv-x="826"
                   d="M592 770q0 14 -1 29t-1 29q66 0 132 -2t132 -2q32 0 60.5 -1.5t50 -6.5t33 -13.5t10.5 -23.5q-11 -75 -25 -116.5t-27.5 -61t-24.5 -24t-15 -5.5q8 20 15 43q6 20 11 45.5t7 54.5q1 27 -10 44t-28.5 26t-39.5 12.5t-43 3.5q-13 0 -23.5 -0.5t-18.5 -1.5q-10 -1 -18 -2
l-120 -346h10.5t11.5 -2q22 2 41 6.5t39 15.5q20 9 37.5 34.5t29.5 51.5q14 31 25 68q5 -11 10 -17.5t3 -23.5q-3 -31 -16.5 -76.5t-30 -92.5t-34.5 -89.5t-30 -67.5q-5 -11 -15 -14t-16 -6q1 0 6.5 14t12 34t11.5 42.5t5 40.5q0 15 -7.5 25t-19.5 15t-26 7t-27 2
q-7 0 -12.5 -0.5t-9.5 -0.5q-5 -1 -9 -1q-31 -99 -56 -179q-11 -34 -21 -67t-17.5 -60l-12.5 -45t-5 -22q0 -5 13.5 -7.5t35.5 -4.5q21 1 45 4t48 9t46 15t37 21q14 11 28.5 33t28.5 48t26.5 53t21.5 49.5t14.5 37.5l5.5 15q4 -3 8 -7q3 -5 5 -12t1 -20q-2 -39 -10.5 -79.5
t-22 -75.5t-30 -61.5t-33.5 -39.5q-9 -6 -30 -10.5t-49.5 -6.5t-64 -3t-73.5 -1q-63 0 -126 -1t-126 -1q37 77 64.5 149.5t52.5 155.5h-166q-53 -75 -100 -147.5t-81 -157.5h-115q43 41 90.5 101.5t98 130.5t103.5 145.5t107 147.5t108 136t106 111zM453 338q32 93 61 186
t60 187q-76 -88 -142 -180t-129 -191z"/>
            <glyph glyph-name="Oslash" unicode="&#xd8;" horiz-adv-x="529"
                   d="M172 37q-32 26 -44.5 72t-10.5 96q1 47 12 103.5t31 115.5t49 117t66.5 109.5t82.5 93t97 67.5q29 13 56.5 21t52.5 8q53 0 86 -33l41 64q10 -8 10 -31q0 -18 -7 -40.5t-12 -41.5q4 -14 6.5 -25t3.5 -22t1.5 -23t1.5 -28q1 -64 -15.5 -138t-46.5 -149t-71.5 -144.5
t-88.5 -123t-97.5 -85.5t-100.5 -32q-39 0 -70 20l-29 -63q-6 15 -10 27t-6 26q3 18 12 39zM291 176q8 -51 32 -77.5t52 -28.5q32 -2 62.5 31.5t57 87t49.5 121t40 134.5t28.5 127t14.5 99q-23 -35 -45.5 -63t-45 -55.5t-45 -56t-46.5 -63.5t-43.5 -67t-37.5 -62.5
t-35.5 -61.5t-37.5 -65zM287 236q97 127 181 259.5t161 272.5q-3 22 -16 36t-33 14q-14 0 -32.5 -9t-37.5 -32q-20 -22 -43.5 -59t-47 -82.5t-46 -97t-40.5 -104.5t-30.5 -104t-15.5 -94z"/>
            <glyph glyph-name="plusminus" unicode="&#xb1;" horiz-adv-x="539"
                   d="M49 43h465l-14 -45h-467zM436 602h54l-64 -204h203l-18 -56h-205l-64 -203h-53l63 203h-204l20 56h203z"/>
            <glyph glyph-name="yen" unicode="&#xa5;" horiz-adv-x="477"
                   d="M506 281l-10 -33l-64 4q-27 -66 -45 -125.5t-18 -128.5q-22 2 -43.5 3t-44.5 1q-25 0 -49.5 -1t-49.5 -3q18 31 31.5 61t24.5 61t20.5 63.5t18.5 70.5l-58 2l8 29h62q5 43 7.5 82.5t2.5 77.5q0 94 -13 192.5t-42 188.5h176q-2 -13 -4 -23.5t-2 -27.5q1 -29 4.5 -68
t7.5 -80.5t8.5 -83t8 -75t6.5 -55.5t4 -26q20 28 36 53t31 49.5t29 50.5t29 58q17 34 34.5 75.5t31.5 78.5t23 62.5t9 27.5q12 -9 22 -20q8 -9 14.5 -21.5t4.5 -27.5q-5 -44 -31 -88t-65 -99.5t-86 -129.5t-92 -177z"/>
            <glyph glyph-name="mu" unicode="&#xb5;" horiz-adv-x="672"
                   d="M361 605l-134 -419q-3 -11 -4.5 -22.5t-3.5 -22.5q2 -35 21 -59.5t57 -24.5q22 0 51.5 10.5t58 28t51 40.5t30.5 48l133 421h100l-149 -474q-3 -11 -4.5 -22t-3.5 -23q2 -25 13 -41.5t36 -11.5q19 4 32.5 12.5t23.5 19.5t18.5 25t17.5 29h22q-9 -26 -28 -52.5t-45 -47.5
t-58.5 -33t-68.5 -9q-10 1 -22.5 6.5t-24 16t-19 26.5t-8.5 37q2 8 3 16t3 17q-25 -19 -54 -39.5t-59 -37t-59 -27t-53 -10.5q-12 0 -29 4t-33.5 12.5t-31.5 21.5t-23 31q-8 -28 -15.5 -53.5t-7.5 -54.5v-52q0 -21 -4.5 -48.5t-15 -52t-29.5 -41.5t-47 -17q-17 0 -27 13.5
t-10 33.5q0 27 10.5 50.5t25.5 46.5t30.5 45t25.5 46q3 9 6 15.5t7 17.5l192 607z"/>
            <glyph glyph-name="mu" unicode="&#x3bc;" horiz-adv-x="672"
                   d="M361 605l-134 -419q-3 -11 -4.5 -22.5t-3.5 -22.5q2 -35 21 -59.5t57 -24.5q22 0 51.5 10.5t58 28t51 40.5t30.5 48l133 421h100l-149 -474q-3 -11 -4.5 -22t-3.5 -23q2 -25 13 -41.5t36 -11.5q19 4 32.5 12.5t23.5 19.5t18.5 25t17.5 29h22q-9 -26 -28 -52.5t-45 -47.5
t-58.5 -33t-68.5 -9q-10 1 -22.5 6.5t-24 16t-19 26.5t-8.5 37q2 8 3 16t3 17q-25 -19 -54 -39.5t-59 -37t-59 -27t-53 -10.5q-12 0 -29 4t-33.5 12.5t-31.5 21.5t-23 31q-8 -28 -15.5 -53.5t-7.5 -54.5v-52q0 -21 -4.5 -48.5t-15 -52t-29.5 -41.5t-47 -17q-17 0 -27 13.5
t-10 33.5q0 27 10.5 50.5t25.5 46.5t30.5 45t25.5 46q3 9 6 15.5t7 17.5l192 607z"/>
            <glyph glyph-name="ordfeminine" unicode="&#xaa;" horiz-adv-x="297"
                   d="M223 484h207l-30 -64h-209zM324 564q14 3 31 25.5t34.5 59t33.5 84t28 99.5q-23 0 -39 -8q-18 -9 -36.5 -33.5t-34 -56.5t-25 -68t-7.5 -70q0 -18 5 -25.5t10 -6.5zM525 842q-11 -30 -22 -59q-9 -25 -18.5 -52.5t-15.5 -50.5q-5 -15 -10 -32.5t-10 -35.5t-8.5 -34
t-4.5 -27q3 -12 7 -12t9.5 5.5t11 14t10.5 19t8 20.5q6 16 10.5 28.5t7.5 29.5q1 -1 3 -4q1 -2 2 -5t1 -6q0 -18 -10 -41.5t-25.5 -44.5t-35.5 -35.5t-40 -15.5q-14 0 -16 15.5t-4 35.5q0 8 0.5 18t2.5 18q1 10 3 20q-21 -30 -41 -53q-17 -20 -36.5 -36.5t-33.5 -15.5
q-15 0 -23.5 7t-12.5 17.5t-4.5 23t-0.5 22.5q0 31 9.5 67.5t26.5 70t40 61t50 41.5q37 18 66.5 21t64.5 3q11 2 21 2h18z"/>
            <glyph glyph-name="ordmasculine" unicode="&#xba;" horiz-adv-x="266"
                   d="M227 484h150l-29 -64h-153zM396 818q-8 -9 -21.5 -33.5t-27 -57t-23.5 -69t-10 -68.5q0 -26 11.5 -39.5t22.5 -13.5q15 1 33.5 30.5t33.5 71.5t24.5 88t7.5 80q0 10 -5 19.5t-16 9.5q-12 0 -30 -18zM375 832q9 5 21 8.5t26 3.5q20 0 36.5 -15t18.5 -59q3 -44 -13.5 -91
t-43 -86.5t-59.5 -65t-64 -25.5q-8 0 -18.5 4.5t-19.5 14.5t-15 27t-6 42q0 30 9 65.5t26.5 69.5t43 62.5t58.5 44.5z"/>
            <glyph glyph-name="ae" unicode="&#xe6;" horiz-adv-x="740"
                   d="M406 207q-42 -60 -82 -108q-17 -20 -36 -39.5t-37.5 -34.5t-36 -24t-32.5 -9q-30 1 -46.5 16.5t-24 37.5t-8.5 47t-1 44q-1 63 13 126.5t40.5 122.5t65 110t88 89t109 59.5t127.5 21.5h154l-8 -25q14 8 45 16.5t78 8.5q29 0 45 -8t24 -18.5t10 -22t2 -17.5
q-3 -68 -34 -108.5t-86 -71.5q-20 -11 -47.5 -17t-53 -8.5t-44 -3t-19.5 -0.5q-9 -20 -17 -51q-7 -26 -14 -68t-12 -102q-2 -21 1.5 -43.5t12.5 -40.5t23 -29.5t34 -11.5q18 0 33.5 11t29 29t25.5 40.5t21 45.5q22 55 37 124q3 -5 6.5 -8.5t6.5 -7t5 -9.5t2 -16
q0 -15 -8.5 -40t-24.5 -54t-40 -58.5t-53.5 -53.5t-65 -40t-74.5 -16q-66 0 -100.5 45t-34.5 121zM670 541q-12 -22 -28 -52.5t-31 -82.5q26 2 47.5 7t40.5 23q10 9 23 26.5t25 41.5t20.5 53.5t9.5 63.5q0 17 -4 22t-9 5q-11 -1 -23.5 -11.5t-25 -25.5t-24.5 -33.5
t-21 -36.5zM549 646q-22 0 -41 -2t-39 -13q-35 -19 -72.5 -67.5t-68 -112.5t-49.5 -136t-17 -139q0 -37 11.5 -53t17.5 -14q26 8 50.5 35.5t47.5 66.5t44 86.5t39 96t32.5 94t24.5 80.5t15 56.5z"/>
            <glyph glyph-name="oslash" unicode="&#xf8;" horiz-adv-x="455"
                   d="M523 537q0 6 -5 6q-9 0 -26.5 -23t-38 -55t-42 -66.5t-38.5 -56.5q-18 -25 -32 -47t-27 -43.5t-26.5 -43.5t-29.5 -48q0 -8 3 -25.5t11 -35t21 -30.5t33 -12q20 0 44.5 25t49 65t46.5 91t37 104t21 104t-1 91zM521 617q-11 39 -39 39q-13 0 -28.5 -10.5t-31.5 -28.5
q-27 -30 -54.5 -80t-50 -108t-38 -117.5t-19.5 -108.5q73 99 140 201.5t121 212.5zM563 688q1 0 5 -7t4 -25q0 -11 -3.5 -22.5t-5.5 -22.5q3 -11 6 -18.5t5 -16.5t3.5 -21.5t2.5 -33.5q2 -61 -13 -124t-42.5 -122.5t-64 -112t-77 -91.5t-82 -62t-78.5 -23q-28 0 -47 12
l-26 -51q-3 8 -6 15q-5 13 -5 26q0 4 -2 8q2 11 5 17.5t3 13.5q-7 10 -13.5 21t-11.5 26.5t-8.5 37t-4.5 52.5q-1 58 17 129t52.5 140t85.5 127t117 90q49 24 92 24q41 0 68 -24z"/>
            <glyph glyph-name="questiondown" unicode="&#xbf;" horiz-adv-x="467"
                   d="M205 -174q-34 0 -65.5 7.5t-56 25t-39.5 47t-15 73.5q0 56 25.5 103.5t63.5 84.5t83.5 64t85.5 42q57 22 89 50t48 52q18 28 23 57h18q-6 -26 -11 -51.5t-11.5 -49t-15.5 -43t-23 -34.5q-27 -29 -65.5 -60t-74.5 -68.5t-61 -82t-25 -98.5q0 -39 21 -66t55 -27
q23 0 42.5 8t36 21.5t30.5 31t28 36.5q15 22 27.5 47.5t20.5 46.5q10 25 18 49q6 -15 10 -27.5t4 -29.5q0 -8 -6 -27t-19 -42.5t-33.5 -48.5t-50 -45.5t-68.5 -33.5t-89 -12zM494 525q-13 -1 -26.5 3t-24 11.5t-17 18t-6.5 22.5q2 35 29 58.5t61 23.5q28 0 50 -16.5
t22 -41.5q0 -34 -26.5 -55.5t-61.5 -23.5z"/>
            <glyph glyph-name="exclamdown" unicode="&#xa1;" horiz-adv-x="297"
                   d="M316 436v-4q0 -7 -5.5 -23t-12.5 -40t-14 -56t-11 -69q-4 -43 -7.5 -79t-8 -69.5t-11 -67t-16.5 -71.5q-17 -72 -53 -103.5t-75 -33.5q-18 0 -31.5 9t-22.5 22t-13.5 28.5t-3.5 28.5q2 44 23 92t49.5 95t58.5 90t51 77q29 49 45 82.5t25 54.5t13.5 30t10.5 9q3 0 5 -1
t4 -1zM346 525q-42 2 -58.5 18.5t-14.5 42.5q1 18 9.5 31.5t22 23t29.5 14t31 3.5q12 -1 25.5 -4t24 -9t17 -16t6.5 -25q-2 -31 -27.5 -55t-64.5 -24z"/>
            <glyph glyph-name="logicalnot" unicode="&#xac;" horiz-adv-x="918"
                   d="M139 291l19 63h834l-109 -354h-70l91 291h-765z"/>
            <glyph glyph-name="florin" unicode="&#x192;" horiz-adv-x="545"
                   d="M699 871q-15 11 -30.5 -10t-32.5 -57.5t-35 -80.5t-37 -80l-21 -38h115l-21 -48h-121l-180 -346q-15 -28 -37 -68t-49.5 -82.5t-58 -82.5t-63 -70t-64.5 -44.5t-62 -4.5q-9 3 -15.5 11.5t-6.5 20.5q0 13 7 24.5t18.5 19.5t24.5 13t25 5q9 0 12 -4t4.5 -9.5t3 -10.5
t9.5 -7q15 -5 35 17.5t41 58.5t42.5 79l39.5 79l207 403h-127l18 48h142l24 43q26 51 57.5 103t65.5 94t69 68t70 26q16 0 29.5 -9t13.5 -26q0 -13 -8.5 -24t-21.5 -19t-27 -12.5t-25 -4.5q-14 0 -18 9.5t-12 15.5z"/>
            <glyph glyph-name="guillemotleft" unicode="&#xab;" horiz-adv-x="613"
                   d="M781 586l-37 -117l-213 -125l131 -119l-39 -123l-180 187l36 119zM475 588l-37 -119l-211 -123l128 -119l-39 -125l-177 187l37 119z"/>
            <glyph glyph-name="guillemotright" unicode="&#xbb;" horiz-adv-x="613"
                   d="M418 418l-37 -119l-299 -188l39 123l209 120l-137 125l37 117zM723 416l-37 -119l-299 -188l39 125l207 120l-133 123l37 119z"/>
            <glyph glyph-name="ellipsis" unicode="&#x2026;" horiz-adv-x="672"
                   d="M611 111q21 0 39 -14.5t18 -33.5q0 -14 -7.5 -26t-19 -20.5t-25.5 -13.5t-28 -5q-22 0 -39.5 14.5t-17.5 34.5q0 13 7 24.5t18.5 20t25.5 13.5t29 6zM166 111q10 0 20 -4t18.5 -10.5t13.5 -15.5t5 -18q0 -14 -7.5 -26t-19 -20.5t-25.5 -13.5t-28 -5q-23 0 -40 14.5
t-17 34.5q0 13 7 24.5t18.5 20t25.5 13.5t29 6zM387 111q22 0 40 -14.5t18 -33.5q-1 -14 -8.5 -26t-19 -20.5t-25.5 -13.5t-27 -5q-22 0 -40 14.5t-18 34.5q0 13 7 24.5t18.5 20t25.5 13.5t29 6z"/>
            <glyph glyph-name="Agrave" unicode="&#xc0;" horiz-adv-x="506"
                   d="M604 877q-1 0 -18 3.5t-38 11.5t-39 20.5t-19 30.5q0 14 2.5 21t7.5 15zM387 338q6 39 10.5 69t8 55.5t6 50t5.5 52.5t6.5 63.5t8.5 82.5q-32 -53 -56 -95.5t-45 -84.5t-43 -87.5t-50 -103.5zM-18 0q0 1 6 7.5t14.5 16.5t17 20.5t13.5 19.5q33 56 68.5 121t71.5 133
t71.5 134t68 124t62 103.5t53.5 72.5q20 23 47.5 38.5t52.5 25.5q29 11 60 18q-13 -146 -25 -287q-5 -60 -11 -124.5t-12.5 -127.5t-12.5 -122t-11 -107q-1 -9 0 -20t3 -22l4 -24h-197q23 72 35 147t20 158h-160q-19 -42 -39.5 -83.5t-37.5 -81t-29 -75t-15 -65.5h-118z"/>
            <glyph glyph-name="Atilde" unicode="&#xc3;" horiz-adv-x="506"
                   d="M496 932q-6 -1 -13 -9t-13.5 -18t-10.5 -18.5t-4 -9.5q0 1 2.5 14t9.5 28t18 27.5t29 12.5q15 0 25 -8.5t18.5 -19t17.5 -19t21 -8.5q10 0 19 8t15 18q7 11 13 27q0 -1 -1 -14t-7 -28t-18.5 -28t-36.5 -14q-15 0 -25.5 10t-20 21t-18.5 20t-20 8zM387 338q6 39 10.5 69
t8 55.5t6 50t5.5 52.5t6.5 63.5t8.5 82.5q-32 -53 -56 -95.5t-45 -84.5t-43 -87.5t-50 -103.5zM-18 0q0 1 6 7.5t14.5 16.5t17 20.5t13.5 19.5q33 56 68.5 121t71.5 133t71.5 134t68 124t62 103.5t53.5 72.5q20 23 47.5 38.5t52.5 25.5q29 11 60 18q-13 -146 -25 -287
q-5 -60 -11 -124.5t-12.5 -127.5t-12.5 -122t-11 -107q-1 -9 0 -20t3 -22l4 -24h-197q23 72 35 147t20 158h-160q-19 -42 -39.5 -83.5t-37.5 -81t-29 -75t-15 -65.5h-118z"/>
            <glyph glyph-name="Otilde" unicode="&#xd5;" horiz-adv-x="543"
                   d="M527 934q-6 -1 -13 -9t-13 -18t-10.5 -18.5t-4.5 -9.5q0 1 2.5 14t9.5 28t18 27.5t29 12.5q15 0 25 -8.5t19 -19t17.5 -19t20.5 -8.5q10 0 19 8t15 18q7 11 13 27q0 -1 -1 -14t-7 -28t-18.5 -28t-36.5 -14q-15 0 -25.5 10t-20 21t-18.5 20t-20 8zM512 777
q-14 -16 -36 -50t-46.5 -80.5t-49 -102.5t-44 -114.5t-32 -117.5t-11.5 -111q0 -32 8 -55.5t20 -39.5t27 -24.5t29 -9.5q32 -2 63.5 32t59.5 90.5t52 128.5t42 146.5t28.5 145t12.5 123.5q0 15 -3 29t-9.5 25.5t-16.5 18.5t-24 7t-32 -9t-38 -32zM459 811q22 10 51 19.5
t58 9.5q26 0 49.5 -8.5t41.5 -29.5t29 -55.5t11 -86.5q1 -70 -16.5 -147t-48.5 -151.5t-73 -142t-90 -119t-99 -82.5t-101 -32q-19 0 -45 11t-50 37t-40.5 67.5t-16.5 103.5q0 47 10.5 103.5t30.5 115.5t49.5 117t67.5 109.5t83.5 93t98.5 67.5z"/>
            <glyph glyph-name="OE" unicode="&#x152;" horiz-adv-x="889"
                   d="M727 828h144q34 0 65 -1.5t54 -6.5t35.5 -14.5t11.5 -24.5q-9 -75 -23 -116.5t-27.5 -61t-24.5 -24t-15 -5.5q7 20 14 44q5 20 10.5 45.5t7.5 53.5q0 27 -11 44t-29 26t-39.5 12.5t-42.5 3.5q-14 0 -24.5 -0.5t-18.5 -1.5q-10 -1 -17 -2l-119 -346h10t11 -2
q23 2 42.5 6.5t39.5 15.5q20 9 36.5 34.5t28.5 51.5q14 31 25 68q5 -11 10.5 -17.5t3.5 -23.5q-4 -31 -16.5 -76.5t-29 -92.5t-34 -89.5t-30.5 -67.5q-5 -11 -15.5 -14t-15.5 -6q9 24 16 48q6 20 11.5 42.5t5.5 40.5q0 15 -7.5 25t-18.5 15t-25 7t-27 2q-7 0 -12 -0.5
t-10 -0.5q-5 -1 -9 -1q-32 -99 -57 -179q-11 -34 -21 -67.5t-17.5 -60.5l-12.5 -45t-5 -21q0 -5 13 -7.5t36 -4.5q20 1 44 4t48 9t46 15t37 21q21 17 43 55.5t41 78.5t31 70.5t12 31.5q4 -3 7 -7q2 -5 4 -12t1 -20q-2 -39 -10.5 -79t-21.5 -75t-29.5 -62t-34.5 -40
q-9 -6 -29.5 -10.5t-49.5 -7t-64.5 -3.5t-73.5 -2q-41 2 -82 2h-78q-54 -2 -94 -7t-80 -7q-18 -1 -43.5 10t-49.5 37t-40.5 67.5t-16.5 102.5q0 72 23 160.5t66.5 174.5t106 158.5t142.5 112.5q18 9 37 15t35 10t27.5 5.5t15.5 0.5q24 -4 43.5 -6.5t37.5 -4t35 -2.5t37 -1z
M512 777q-14 -16 -36 -50t-46.5 -80.5t-49 -102.5t-44 -114.5t-32 -117.5t-11.5 -111q0 -32 8 -55.5t20 -39.5t27 -24.5t29 -9.5q32 -2 63.5 32t59.5 90.5t52 128.5t42 146.5t28.5 145t12.5 123.5q0 15 -3 29t-9.5 25.5t-16.5 18.5t-24 7t-32 -9t-38 -32z"/>
            <glyph glyph-name="oe" unicode="&#x153;" horiz-adv-x="766"
                   d="M211 -14q-16 1 -35.5 9.5t-37 29t-29 54.5t-11.5 85q0 60 17.5 131.5t52 139t85 124.5t116.5 89q17 8 42.5 17t51.5 9q20 0 38.5 -6.5t33 -23.5t24 -46t11.5 -73q43 48 82 76t73.5 42.5t64 18.5t52.5 4q28 0 44.5 -8t24 -19.5t9.5 -23t2 -17.5q-2 -34 -10.5 -60
t-23.5 -47t-36 -38.5t-47 -32.5q-21 -12 -49 -18t-54 -9t-44 -3.5t-19 -0.5q-9 -19 -17 -50q-7 -26 -14.5 -67.5t-11.5 -101.5q-2 -22 1.5 -44.5t12.5 -40.5t23 -29t35 -11q18 0 34 10.5t29.5 28t25 40t20.5 45.5q21 55 37 124q3 -5 6 -8.5l6 -7t5 -9t3 -14.5
q0 -15 -9 -40.5t-25.5 -54.5t-40 -59t-53.5 -54t-65 -39t-75 -15q-33 0 -56 12t-38 33t-23 50.5t-11 64.5q-11 -16 -35 -45t-55.5 -56.5t-67 -47t-69.5 -17.5zM637 406q28 2 49 7t41 23q9 9 22.5 26.5t25.5 41.5t20.5 53.5t9.5 63.5q0 17 -4.5 22t-9.5 5q-11 -1 -23.5 -11.5
t-25.5 -25.5t-24.5 -33.5t-20.5 -36.5t-19.5 -41t-19.5 -43.5t-15 -35t-6 -15.5zM410 619q-17 -19 -45 -68t-54.5 -113t-46 -135t-18.5 -135q0 -26 6 -46.5t16 -35t22 -21.5t23 -6q20 0 43.5 28t47 73t44 102t36 116.5t23.5 117t5 102.5q-2 23 -11.5 40.5t-29.5 17.5
q-12 0 -26.5 -8.5t-34.5 -28.5z"/>
            <glyph glyph-name="endash" unicode="&#x2013;" horiz-adv-x="691"
                   d="M207 410h582l-57 -131h-586z"/>
            <glyph glyph-name="emdash" unicode="&#x2014;" horiz-adv-x="979"
                   d="M209 410h867l-56 -131h-872z"/>
            <glyph glyph-name="quotedblleft" unicode="&#x201c;" horiz-adv-x="410"
                   d="M535 799q23 -2 42 -17t19 -38q0 -18 -8 -33t-20.5 -26t-29 -17t-34.5 -6q-28 0 -48 18t-20 45q0 22 14.5 41t35 33t43 21.5t39.5 7.5q16 0 22 -6q-18 -2 -32 -8.5t-23 -14.5zM361 799q23 -3 42 -17.5t19 -39.5q0 -17 -8 -31.5t-21 -25.5t-29.5 -17t-33.5 -6
q-28 0 -48 17.5t-20 43.5q0 22 14.5 41t35 33t43.5 21.5t40 7.5t23 -6q-15 0 -30.5 -5t-26.5 -16z"/>
            <glyph glyph-name="quotedblright" unicode="&#x201d;" horiz-adv-x="406"
                   d="M330 691q-23 2 -41.5 17t-18.5 38q0 18 7.5 33t20 26t28.5 17t33 6q28 0 48.5 -17t20.5 -45q0 -23 -15 -42t-36 -32.5t-44 -21t-40 -8.5q-13 3 -20 6q19 4 30 8t27 15zM504 693q-23 0 -42 15t-19 40q0 17 8 31.5t20.5 25.5t29 17t34.5 6q28 0 47.5 -18t19.5 -44
q0 -23 -15 -42t-36 -32.5t-44.5 -21t-41.5 -8.5q-6 2 -11 3t-7 3q15 0 31.5 8.5t25.5 16.5z"/>
            <glyph glyph-name="quoteleft" unicode="&#x2018;" horiz-adv-x="238"
                   d="M363 803q23 -2 42 -17t19 -40q-2 -34 -29 -56t-61 -22q-28 0 -48 17t-20 44q0 22 14 41t34 32t42 20.5t39 7.5t23 -6q-17 0 -30 -6.5t-25 -14.5z"/>
            <glyph glyph-name="quoteright" unicode="&#x2019;" horiz-adv-x="238"
                   d="M332 693q-22 2 -41.5 17t-19.5 38q1 18 8.5 32.5t20.5 25t29 16.5t34 6q26 0 46.5 -17t20.5 -43q0 -23 -14 -42t-34 -32.5t-42.5 -21t-40.5 -8.5q-8 2 -13.5 3.5t-8.5 4.5q13 1 21.5 3t13.5 4.5t9.5 6t10.5 7.5z"/>
            <glyph glyph-name="ydieresis" unicode="&#xff;" horiz-adv-x="539"
                   d="M602 830q19 0 32.5 -13t13.5 -34q-2 -28 -22 -49t-48 -21q-17 0 -32 13.5t-15 33.5q0 13 5.5 25.5t15.5 22t23 15.5t27 7zM463 830q17 0 32 -13t15 -34q-2 -28 -22 -49t-49 -21q-19 0 -32.5 13.5t-13.5 33.5q0 13 5.5 25.5t15.5 22t22.5 15.5t26.5 7zM439 219
q-5 -8 -19.5 -27t-34.5 -43.5t-44.5 -51t-51 -47.5t-53 -34t-50.5 -10q-23 2 -38.5 12t-24.5 25t-12.5 32.5t-1.5 35.5q4 41 12 69t18 51.5t22.5 48.5t27.5 60q13 32 29.5 66t30 64.5t22.5 55.5t8 40q-2 14 -4 28.5t-13 14.5q-10 -1 -22 -15t-24 -35t-23 -45.5t-19.5 -45
t-13 -34.5l-4.5 -14q-2 5 -6 8t-5 11q0 2 0.5 2.5t0.5 1.5v2q3 21 13.5 45.5t26 49.5t34.5 47.5t39.5 40t41 27.5t37.5 9q32 -2 51 -16.5t19 -49.5q0 -22 -10.5 -57.5t-26.5 -79.5t-34.5 -92t-34.5 -93.5t-26.5 -85.5t-11.5 -67q4 -5 4.5 -11t1.5 -12t5 -10t16 -4
q16 0 40.5 20.5t49.5 52t48 68.5t36 70q35 88 64.5 180.5t48.5 186.5h149q-9 -25 -18.5 -45.5t-17.5 -42.5q-38 -115 -66 -214t-54 -181t-53 -145.5t-63.5 -107.5t-85.5 -67.5t-119 -26.5q-55 -2 -94 7t-64 21t-38 22.5t-15 11.5l10 20q37 -20 72.5 -30.5t67.5 -12.5
q43 -2 76 16t58.5 48t44 68.5t32 77.5t23 75t16.5 61z"/>
            <glyph glyph-name="periodcentered" unicode="&#xb7;" horiz-adv-x="359"
                   d="M326 438q17 0 33 -6t29 -16t20.5 -24t7.5 -29q-1 -25 -12.5 -44.5t-30.5 -34t-42.5 -22t-47.5 -8.5q-18 -1 -34.5 5t-30 16.5t-21.5 25t-8 31.5q0 23 12 42.5t31.5 33.5t44 22t49.5 8z"/>
            <glyph glyph-name="periodcentered" unicode="&#x2219;" horiz-adv-x="359"
                   d="M326 438q17 0 33 -6t29 -16t20.5 -24t7.5 -29q-1 -25 -12.5 -44.5t-30.5 -34t-42.5 -22t-47.5 -8.5q-18 -1 -34.5 5t-30 16.5t-21.5 25t-8 31.5q0 23 12 42.5t31.5 33.5t44 22t49.5 8z"/>
            <glyph glyph-name="Acircumflex" unicode="&#xc2;" horiz-adv-x="508"
                   d="M449 865q0 6 -1 12t-3 14q2 4 2 7q1 11 10.5 24t26.5 25.5t40 24t50 20.5q25 -13 45 -29q17 -14 31 -31t14 -34q0 -10 -3.5 -17t-8.5 -16q-14 32 -33 61.5t-41 57.5q-37 -23 -68.5 -55t-60.5 -64zM387 338q6 39 10.5 69t8 55.5t6 50t5.5 52.5t6.5 63.5t8.5 82.5
q-32 -53 -56 -95.5t-45 -84.5t-43 -87.5t-50 -103.5zM-18 0q0 1 6 7.5t14.5 16.5t17 20.5t13.5 19.5q33 56 68.5 121t71.5 133t71.5 134t68 124t62 103.5t53.5 72.5q20 23 47.5 38.5t52.5 25.5q29 11 60 18q-13 -146 -25 -287q-5 -60 -11 -124.5t-12.5 -127.5t-12.5 -122
t-11 -107q-1 -9 0 -20t3 -22l4 -24h-197q23 72 35 147t20 158h-160q-19 -42 -39.5 -83.5t-37.5 -81t-29 -75t-15 -65.5h-118z"/>
            <glyph glyph-name="Ecircumflex" unicode="&#xca;"
                   d="M418 869q0 6 -1 12t-3 14q2 3 2 7q1 11 10.5 24t26.5 25.5t40 24t50 20.5q25 -13 45 -29q17 -14 31 -31t14 -34q0 -10 -3.5 -17t-8.5 -16q-14 32 -33 61.5t-41 57.5q-37 -23 -68.5 -55t-60.5 -64zM234 43h12q6 0 14 -0.5t19 -1.5q22 1 48.5 2.5t53 5.5t50 11t38.5 18
q14 10 29 31.5t28.5 48t25.5 54t21 51t14 38t5 15.5q3 -3 6 -7q2 -5 4.5 -12t2.5 -20q-1 -39 -10 -79t-22.5 -75t-30 -62t-34.5 -40q-9 -6 -29.5 -10.5t-49.5 -6.5t-64.5 -3t-73.5 -1q-63 0 -126 -1t-126 -1q0 1 3.5 7.5t9 16.5t11 21t9.5 20q9 19 28 71.5t43.5 123t51 150
t49.5 152.5t40.5 130.5t22.5 84.5v6q0 12 -1 24t-1 23q31 0 55.5 -1t55.5 -1h24.5t26.5 -2h94q33 0 63 -1.5t52 -6.5t34 -13.5t11 -23.5q-10 -75 -23.5 -116.5t-27 -61t-24.5 -24t-15 -5.5q8 20 15 43q5 20 10 45.5t6 54.5q1 27 -10 44t-28.5 26t-39.5 12.5t-43 3.5
q-13 0 -24 -0.5t-19 -1.5q-10 -1 -18 -2l-117 -346h10.5t11.5 -2q22 2 41 6.5t39 15.5q20 9 36.5 34.5t28.5 51.5q14 31 25 68q5 -8 9 -14t4 -19v-8q-3 -31 -15.5 -76.5t-29 -92.5t-34 -89.5t-30.5 -67.5q-6 -11 -16 -14t-15 -6q9 24 16 48q6 20 11.5 42.5t5.5 40.5
q0 15 -7.5 25t-19 15t-25.5 7t-26 2q-8 0 -13.5 -0.5t-9.5 -0.5q-4 -1 -8 -1z"/>
            <glyph glyph-name="Aacute" unicode="&#xc1;" horiz-adv-x="518"
                   d="M623 941q-1 -17 -18.5 -29.5t-38 -20.5t-38 -12t-18.5 -4l105 104q2 -6 5 -12t3 -20v-6zM387 338q6 39 10.5 69t8 55.5t6 50t5.5 52.5t6.5 63.5t8.5 82.5q-32 -53 -56 -95.5t-45 -84.5t-43 -87.5t-50 -103.5zM-18 0q0 1 6 7.5t14.5 16.5t17 20.5t13.5 19.5
q33 56 68.5 121t71.5 133t71.5 134t68 124t62 103.5t53.5 72.5q20 23 47.5 38.5t52.5 25.5q29 11 60 18q-13 -146 -25 -287q-5 -60 -11 -124.5t-12.5 -127.5t-12.5 -122t-11 -107q-1 -9 0 -20t3 -22l4 -24h-197q23 72 35 147t20 158h-160q-19 -42 -39.5 -83.5t-37.5 -81
t-29 -75t-15 -65.5h-118z"/>
            <glyph glyph-name="Edieresis" unicode="&#xcb;" horiz-adv-x="586"
                   d="M607 984q20 0 33.5 -13t13.5 -33q-2 -29 -22 -50t-48 -21q-17 0 -32 14t-15 33q0 13 5.5 25.5t15.5 22t22.5 15.5t26.5 7zM469 984q17 0 32 -13t15 -33q-2 -29 -22.5 -50t-48.5 -21q-19 0 -33 14t-14 33q0 13 6 25.5t15.5 22t22.5 15.5t27 7zM234 43h12q6 0 14 -0.5
t19 -1.5q22 1 48.5 2.5t53 5.5t50 11t38.5 18q14 10 29 31.5t28.5 48t25.5 54t21 51t14 38t5 15.5q3 -3 6 -7q2 -5 4.5 -12t2.5 -20q-1 -39 -10 -79t-22.5 -75t-30 -62t-34.5 -40q-9 -6 -29.5 -10.5t-49.5 -6.5t-64.5 -3t-73.5 -1q-63 0 -126 -1t-126 -1q0 1 3.5 7.5t9 16.5
t11 21t9.5 20q9 19 28 71.5t43.5 123t51 150t49.5 152.5t40.5 130.5t22.5 84.5v6q0 12 -1 24t-1 23q31 0 55.5 -1t55.5 -1h24.5t26.5 -2h94q33 0 63 -1.5t52 -6.5t34 -13.5t11 -23.5q-10 -75 -23.5 -116.5t-27 -61t-24.5 -24t-15 -5.5q8 20 15 43q5 20 10 45.5t6 54.5
q1 27 -10 44t-28.5 26t-39.5 12.5t-43 3.5q-13 0 -24 -0.5t-19 -1.5q-10 -1 -18 -2l-117 -346h10.5t11.5 -2q22 2 41 6.5t39 15.5q20 9 36.5 34.5t28.5 51.5q14 31 25 68q5 -8 9 -14t4 -19v-8q-3 -31 -15.5 -76.5t-29 -92.5t-34 -89.5t-30.5 -67.5q-6 -11 -16 -14t-15 -6
q9 24 16 48q6 20 11.5 42.5t5.5 40.5q0 15 -7.5 25t-19 15t-25.5 7t-26 2q-8 0 -13.5 -0.5t-9.5 -0.5q-4 -1 -8 -1z"/>
            <glyph glyph-name="Egrave" unicode="&#xc8;" horiz-adv-x="590"
                   d="M572 861q-1 0 -18 3.5t-37.5 11.5t-38.5 21t-19 31q0 13 2.5 20t7.5 15zM234 43h12q6 0 14 -0.5t19 -1.5q22 1 48.5 2.5t53 5.5t50 11t38.5 18q14 10 29 31.5t28.5 48t25.5 54t21 51t14 38t5 15.5q3 -3 6 -7q2 -5 4.5 -12t2.5 -20q-1 -39 -10 -79t-22.5 -75t-30 -62
t-34.5 -40q-9 -6 -29.5 -10.5t-49.5 -6.5t-64.5 -3t-73.5 -1q-63 0 -126 -1t-126 -1q0 1 3.5 7.5t9 16.5t11 21t9.5 20q9 19 28 71.5t43.5 123t51 150t49.5 152.5t40.5 130.5t22.5 84.5v6q0 12 -1 24t-1 23q31 0 55.5 -1t55.5 -1h24.5t26.5 -2h94q33 0 63 -1.5t52 -6.5
t34 -13.5t11 -23.5q-10 -75 -23.5 -116.5t-27 -61t-24.5 -24t-15 -5.5q8 20 15 43q5 20 10 45.5t6 54.5q1 27 -10 44t-28.5 26t-39.5 12.5t-43 3.5q-13 0 -24 -0.5t-19 -1.5q-10 -1 -18 -2l-117 -346h10.5t11.5 -2q22 2 41 6.5t39 15.5q20 9 36.5 34.5t28.5 51.5
q14 31 25 68q5 -8 9 -14t4 -19v-8q-3 -31 -15.5 -76.5t-29 -92.5t-34 -89.5t-30.5 -67.5q-6 -11 -16 -14t-15 -6q9 24 16 48q6 20 11.5 42.5t5.5 40.5q0 15 -7.5 25t-19 15t-25.5 7t-26 2q-8 0 -13.5 -0.5t-9.5 -0.5q-4 -1 -8 -1z"/>
            <glyph glyph-name="Iacute" unicode="&#xcd;" horiz-adv-x="344"
                   d="M523 936q-1 -18 -18.5 -30.5t-38 -20.5t-38 -12t-18.5 -4l106 104q2 -6 4.5 -12t2.5 -20v-5zM262 2h-186q9 16 15.5 29t13.5 30q7 15 20.5 50t30 82.5t35.5 105t38.5 117t38 118t34 109.5t26.5 90t16 60v16v21q26 -3 53.5 -4.5t55.5 -3.5q22 2 41.5 3t38.5 1
q-6 -13 -13 -23t-12 -24q-25 -64 -52 -142t-54 -158.5t-51 -156.5t-43 -136.5t-30.5 -98.5t-11.5 -42z"/>
            <glyph glyph-name="Icircumflex" unicode="&#xce;" horiz-adv-x="344"
                   d="M354 871q0 6 -1 12t-3 13q2 4 2 8q1 11 10.5 24t26.5 25.5t40 24t50 20.5q25 -13 44 -29q17 -14 31 -31t14 -34q0 -10 -3 -17t-8 -16q-29 62 -75 119q-36 -23 -67.5 -55t-60.5 -64zM262 2h-186q9 16 15.5 29t13.5 30q7 15 20.5 50t30 82.5t35.5 105t38.5 117t38 118
t34 109.5t26.5 90t16 60v16v21q26 -3 53.5 -4.5t55.5 -3.5q22 2 41.5 3t38.5 1q-6 -13 -13 -23t-12 -24q-25 -64 -52 -142t-54 -158.5t-51 -156.5t-43 -136.5t-30.5 -98.5t-11.5 -42z"/>
            <glyph glyph-name="Idieresis" unicode="&#xcf;" horiz-adv-x="344"
                   d="M543 992q19 0 33 -13t14 -34q-2 -28 -22 -49t-48 -21q-18 0 -32.5 13.5t-14.5 33.5q0 13 5.5 25.5t15.5 22t22.5 15.5t26.5 7zM404 992q18 0 32.5 -13t14.5 -34q-2 -28 -22 -49t-48 -21q-20 0 -33.5 13.5t-13.5 33.5q0 13 5.5 25.5t15.5 22t22.5 15.5t26.5 7zM262 2h-186
q9 16 15.5 29t13.5 30q7 15 20.5 50t30 82.5t35.5 105t38.5 117t38 118t34 109.5t26.5 90t16 60v16v21q26 -3 53.5 -4.5t55.5 -3.5q22 2 41.5 3t38.5 1q-6 -13 -13 -23t-12 -24q-25 -64 -52 -142t-54 -158.5t-51 -156.5t-43 -136.5t-30.5 -98.5t-11.5 -42z"/>
            <glyph glyph-name="Igrave" unicode="&#xcc;" horiz-adv-x="344"
                   d="M516 875q-1 0 -18 3.5t-38 11.5t-39 20.5t-19 30.5q0 14 2.5 21t7.5 15zM262 2h-186q9 16 15.5 29t13.5 30q7 15 20.5 50t30 82.5t35.5 105t38.5 117t38 118t34 109.5t26.5 90t16 60v16v21q26 -3 53.5 -4.5t55.5 -3.5q22 2 41.5 3t38.5 1q-6 -13 -13 -23t-12 -24
q-25 -64 -52 -142t-54 -158.5t-51 -156.5t-43 -136.5t-30.5 -98.5t-11.5 -42z"/>
            <glyph glyph-name="Oacute" unicode="&#xd3;" horiz-adv-x="543"
                   d="M650 939q-1 -17 -18.5 -29.5t-38 -20.5t-38 -12t-18.5 -4l106 104q2 -6 4.5 -12t2.5 -20v-6zM512 777q-14 -16 -36 -50t-46.5 -80.5t-49 -102.5t-44 -114.5t-32 -117.5t-11.5 -111q0 -32 8 -55.5t20 -39.5t27 -24.5t29 -9.5q32 -2 63.5 32t59.5 90.5t52 128.5t42 146.5
t28.5 145t12.5 123.5q0 15 -3 29t-9.5 25.5t-16.5 18.5t-24 7t-32 -9t-38 -32zM459 811q22 10 51 19.5t58 9.5q26 0 49.5 -8.5t41.5 -29.5t29 -55.5t11 -86.5q1 -70 -16.5 -147t-48.5 -151.5t-73 -142t-90 -119t-99 -82.5t-101 -32q-19 0 -45 11t-50 37t-40.5 67.5
t-16.5 103.5q0 47 10.5 103.5t30.5 115.5t49.5 117t67.5 109.5t83.5 93t98.5 67.5z"/>
            <glyph glyph-name="Ocircumflex" unicode="&#xd4;" horiz-adv-x="543"
                   d="M473 879q0 6 -1 12t-3 13q2 4 2 8q2 22 37 49t90 45q25 -13 45 -29q17 -14 31 -31t14 -34q0 -11 -3.5 -17.5t-8.5 -15.5q-15 32 -33.5 61.5t-40.5 57.5q-37 -23 -68.5 -55t-60.5 -64zM512 777q-14 -16 -36 -50t-46.5 -80.5t-49 -102.5t-44 -114.5t-32 -117.5t-11.5 -111
q0 -32 8 -55.5t20 -39.5t27 -24.5t29 -9.5q32 -2 63.5 32t59.5 90.5t52 128.5t42 146.5t28.5 145t12.5 123.5q0 15 -3 29t-9.5 25.5t-16.5 18.5t-24 7t-32 -9t-38 -32zM459 811q22 10 51 19.5t58 9.5q26 0 49.5 -8.5t41.5 -29.5t29 -55.5t11 -86.5q1 -70 -16.5 -147
t-48.5 -151.5t-73 -142t-90 -119t-99 -82.5t-101 -32q-19 0 -45 11t-50 37t-40.5 67.5t-16.5 103.5q0 47 10.5 103.5t30.5 115.5t49.5 117t67.5 109.5t83.5 93t98.5 67.5z"/>
            <glyph glyph-name="Ograve" unicode="&#xd2;" horiz-adv-x="543"
                   d="M648 871q-1 0 -18 3.5t-37.5 11.5t-38.5 21t-19 31q0 13 2.5 20t7.5 15zM512 777q-14 -16 -36 -50t-46.5 -80.5t-49 -102.5t-44 -114.5t-32 -117.5t-11.5 -111q0 -32 8 -55.5t20 -39.5t27 -24.5t29 -9.5q32 -2 63.5 32t59.5 90.5t52 128.5t42 146.5t28.5 145t12.5 123.5
q0 15 -3 29t-9.5 25.5t-16.5 18.5t-24 7t-32 -9t-38 -32zM459 811q22 10 51 19.5t58 9.5q26 0 49.5 -8.5t41.5 -29.5t29 -55.5t11 -86.5q1 -70 -16.5 -147t-48.5 -151.5t-73 -142t-90 -119t-99 -82.5t-101 -32q-19 0 -45 11t-50 37t-40.5 67.5t-16.5 103.5q0 47 10.5 103.5
t30.5 115.5t49.5 117t67.5 109.5t83.5 93t98.5 67.5z"/>
            <glyph glyph-name="Uacute" unicode="&#xda;" horiz-adv-x="727"
                   d="M693 943q-1 -18 -18.5 -30.5t-38 -20.5t-38 -11.5t-18.5 -3.5l106 103q2 -5 4.5 -11t2.5 -20v-6zM209 570q0 5 -3 12.5t-3 15.5q0 9 8 30.5t23 47.5t35.5 54.5t45 51.5t53 37.5t58.5 14.5q31 -2 54 -24t20 -56q-4 -40 -20 -86t-38 -96.5t-47 -103.5t-47 -106.5
t-38.5 -106t-20.5 -101.5q-2 -17 6.5 -33.5t30.5 -18.5q18 2 41.5 16.5t54.5 51.5q45 53 81.5 130t70 165.5t65 181.5t66.5 179h38.5t39.5 -2q21 2 40 2t38 2q-11 -21 -28.5 -62.5t-38 -95t-42.5 -115t-42.5 -124t-38.5 -121.5t-30.5 -107.5t-17.5 -81.5t0 -43
q2 -5 4.5 -6.5t5.5 -3.5q9 1 20 14.5t22 33t21.5 41t18.5 38.5q13 29 19.5 54t11.5 56q3 -8 7.5 -14.5t4.5 -17.5v-3q-4 -33 -16.5 -67t-31.5 -65t-41.5 -57.5t-45.5 -46t-43.5 -30.5t-36.5 -10q-20 1 -33 9.5t-21 22.5t-11.5 32t-4.5 38q1 30 6 60t11 55q7 28 16 55
q0 -1 -12 -22t-33.5 -51.5t-51 -66t-64 -66t-72 -50.5t-74.5 -20q-18 0 -35 6t-30.5 18.5t-22 32t-7.5 47.5q1 43 19 96.5t44 111.5t56.5 118.5t57 118.5t45.5 111.5t22 97.5q0 15 -2 21t-10 6t-18 -7.5t-20 -18.5t-18.5 -23t-13.5 -21q-11 -18 -21 -41t-18 -44
q-10 -25 -18 -50z"/>
            <glyph glyph-name="Ucircumflex" unicode="&#xdb;" horiz-adv-x="723"
                   d="M506 869q0 6 -1 12t-3 14q2 3 2 7q1 11 10.5 24t26.5 25.5t40 24t50 20.5q25 -13 45 -29q17 -14 31 -31t14 -34q0 -10 -3.5 -17t-8.5 -16q-15 32 -33.5 61.5t-40.5 57.5q-37 -23 -68.5 -55t-60.5 -64zM209 570q0 5 -3 12.5t-3 15.5q0 9 8 30.5t23 47.5t35.5 54.5t45 51.5
t53 37.5t58.5 14.5q31 -2 54 -24t20 -56q-4 -40 -20 -86t-38 -96.5t-47 -103.5t-47 -106.5t-38.5 -106t-20.5 -101.5q-2 -17 6.5 -33.5t30.5 -18.5q18 2 41.5 16.5t54.5 51.5q45 53 81.5 130t70 165.5t65 181.5t66.5 179h38.5t39.5 -2q21 2 40 2t38 2q-11 -21 -28.5 -62.5
t-38 -95t-42.5 -115t-42.5 -124t-38.5 -121.5t-30.5 -107.5t-17.5 -81.5t0 -43q2 -5 4.5 -6.5t5.5 -3.5q9 1 20 14.5t22 33t21.5 41t18.5 38.5q13 29 19.5 54t11.5 56q3 -8 7.5 -14.5t4.5 -17.5v-3q-4 -33 -16.5 -67t-31.5 -65t-41.5 -57.5t-45.5 -46t-43.5 -30.5t-36.5 -10
q-20 1 -33 9.5t-21 22.5t-11.5 32t-4.5 38q1 30 6 60t11 55q7 28 16 55q0 -1 -12 -22t-33.5 -51.5t-51 -66t-64 -66t-72 -50.5t-74.5 -20q-18 0 -35 6t-30.5 18.5t-22 32t-7.5 47.5q1 43 19 96.5t44 111.5t56.5 118.5t57 118.5t45.5 111.5t22 97.5q0 15 -2 21t-10 6
t-18 -7.5t-20 -18.5t-18.5 -23t-13.5 -21q-11 -18 -21 -41t-18 -44q-10 -25 -18 -50z"/>
            <glyph glyph-name="Ugrave" unicode="&#xd9;" horiz-adv-x="725"
                   d="M684 869q-1 0 -18 3.5t-38 11.5t-39 21t-19 31q0 13 2.5 20t7.5 15zM209 570q0 5 -3 12.5t-3 15.5q0 9 8 30.5t23 47.5t35.5 54.5t45 51.5t53 37.5t58.5 14.5q31 -2 54 -24t20 -56q-4 -40 -20 -86t-38 -96.5t-47 -103.5t-47 -106.5t-38.5 -106t-20.5 -101.5
q-2 -17 6.5 -33.5t30.5 -18.5q18 2 41.5 16.5t54.5 51.5q45 53 81.5 130t70 165.5t65 181.5t66.5 179h38.5t39.5 -2q21 2 40 2t38 2q-11 -21 -28.5 -62.5t-38 -95t-42.5 -115t-42.5 -124t-38.5 -121.5t-30.5 -107.5t-17.5 -81.5t0 -43q2 -5 4.5 -6.5t5.5 -3.5q9 1 20 14.5
t22 33t21.5 41t18.5 38.5q13 29 19.5 54t11.5 56q3 -8 7.5 -14.5t4.5 -17.5v-3q-4 -33 -16.5 -67t-31.5 -65t-41.5 -57.5t-45.5 -46t-43.5 -30.5t-36.5 -10q-20 1 -33 9.5t-21 22.5t-11.5 32t-4.5 38q1 30 6 60t11 55q7 28 16 55q0 -1 -12 -22t-33.5 -51.5t-51 -66t-64 -66
t-72 -50.5t-74.5 -20q-18 0 -35 6t-30.5 18.5t-22 32t-7.5 47.5q1 43 19 96.5t44 111.5t56.5 118.5t57 118.5t45.5 111.5t22 97.5q0 15 -2 21t-10 6t-18 -7.5t-20 -18.5t-18.5 -23t-13.5 -21q-11 -18 -21 -41t-18 -44q-10 -25 -18 -50z"/>
            <glyph glyph-name="dotlessi" unicode="&#x131;" horiz-adv-x="428"
                   d="M340 662q26 1 45 -19t19 -49q0 -36 -9 -71.5t-21 -70t-25 -68.5t-21 -68q-6 -28 -14.5 -56.5t-15.5 -55t-11.5 -49.5t-3.5 -38q0 -6 1 -14t3.5 -15t6.5 -11.5t11 -4.5q10 0 21 15t20.5 37.5t18.5 49t15.5 49t9.5 37.5l3 15q2 -5 5.5 -9t3.5 -16q0 -30 -9.5 -60t-25.5 -58
t-36 -52.5t-40.5 -42.5t-39.5 -28.5t-34 -10.5q-18 0 -32.5 9.5t-25 25.5t-16.5 36.5t-6 43.5q0 22 11 58t27 80t35 91.5t35 92.5t25.5 84t8.5 65q0 8 -5 14t-10 7q-6 1 -13.5 -5.5t-15 -18.5t-15 -28t-14.5 -32q-16 -39 -32 -89q-2 3 -7 5t-3 10q9 40 27 77.5t41 67.5
t51 49t57 21z"/>
            <glyph glyph-name="circumflex" unicode="&#x2c6;" horiz-adv-x="691"
                   d="M191 594q0 6 -1 11.5t-2 13.5q1 4 1 8q1 11 10.5 23.5t26.5 25.5t40 24.5t50 20.5q25 -13 45 -29q17 -14 31 -31t14 -34q0 -11 -3.5 -18l-7.5 -15q-29 62 -75 119q-37 -23 -68.5 -55t-60.5 -64z"/>
            <glyph glyph-name="tilde" unicode="&#x2dc;" horiz-adv-x="670"
                   d="M254 609q-6 -1 -13 -9t-13.5 -17.5t-10.5 -18t-4 -9.5q0 1 2.5 14t9 28t18 27.5t28.5 12.5q15 0 25.5 -8.5t19 -19t17.5 -19t21 -8.5q10 0 18.5 8t14.5 18q7 11 13 27q0 -1 -1 -14t-7 -28t-18.5 -28t-35.5 -14q-15 0 -25.5 9.5t-20 21t-18.5 20t-20 7.5z"/>
            <glyph glyph-name="ring" unicode="&#x2da;" horiz-adv-x="641"
                   d="M551 627q22 0 41 -9.5t19 -35.5q0 -15 -8 -27.5t-20.5 -21.5t-27.5 -14t-30 -5q-19 0 -37.5 14t-18.5 35t8 33.5t20.5 19.5t27 9t26.5 2zM551 619q-23 0 -39 -13t-16 -42q0 -16 12.5 -28.5t28.5 -12.5q10 -1 18.5 4.5t14.5 14t9.5 19.5t4.5 21q0 14 -9.5 25.5t-23.5 11.5
z"/>
            <glyph glyph-name="brokenbar" unicode="&#xa6;" horiz-adv-x="90"
                   d="M354 830v-998v-2h-86v998z"/>
            <glyph glyph-name="Yacute" unicode="&#xdd;" horiz-adv-x="748"
                   d="M621 941q-1 -17 -18.5 -29.5t-38 -20.5t-38 -12t-18.5 -4l105 104q2 -6 5 -12t3 -20v-6zM664 842q25 -21 32 -37.5t7 -27.5v-9q-8 -36 -27.5 -72.5t-46 -76.5t-57.5 -84.5t-62 -95.5q-52 -85 -91.5 -183t-63.5 -195q-1 -11 -1 -18.5t-2 -13.5q2 -8 2 -13.5v-17.5
q-24 2 -46 3t-44 1q-24 0 -47.5 -1t-48.5 -3q8 9 12.5 16t7.5 13t5 12t6 14q25 61 42.5 112t28 97t15 87.5t4.5 82.5q0 38 -3.5 76.5t-9 80.5t-13 88.5t-15.5 99.5q-2 15 -7.5 25.5t-10.5 23.5h45t41 -2q24 2 45.5 2h46.5q-3 -13 -5.5 -23.5t-2.5 -27.5q2 -29 5.5 -67.5
t7.5 -80t8.5 -82.5t8 -75t6 -57t3.5 -28q43 59 75 114.5t58 110.5t48 112t44 120z"/>
            <glyph glyph-name="yacute" unicode="&#xfd;" horiz-adv-x="566"
                   d="M604 768q-1 -18 -18.5 -30.5t-38.5 -20.5t-38.5 -12t-18.5 -4l106 104q2 -6 5 -12t3 -20v-5zM439 219q-5 -8 -19.5 -27t-34.5 -43.5t-44.5 -51t-51 -47.5t-53 -34t-50.5 -10q-23 2 -38.5 12t-24.5 25t-12.5 32.5t-1.5 35.5q4 41 12 69t18 51.5t22.5 48.5t27.5 60
q13 32 29.5 66t30 64.5t22.5 55.5t8 40q-2 14 -4 28.5t-13 14.5q-10 -1 -22 -15t-24 -35t-23 -45.5t-19.5 -45t-13 -34.5l-4.5 -14q-2 5 -6 8t-5 11q0 2 0.5 2.5t0.5 1.5v2q3 21 13.5 45.5t26 49.5t34.5 47.5t39.5 40t41 27.5t37.5 9q32 -2 51 -16.5t19 -49.5
q0 -22 -10.5 -57.5t-26.5 -79.5t-34.5 -92t-34.5 -93.5t-26.5 -85.5t-11.5 -67q4 -5 4.5 -11t1.5 -12t5 -10t16 -4q16 0 40.5 20.5t49.5 52t48 68.5t36 70q35 88 64.5 180.5t48.5 186.5h149q-9 -25 -18.5 -45.5t-17.5 -42.5q-38 -115 -66 -214t-54 -181t-53 -145.5
t-63.5 -107.5t-85.5 -67.5t-119 -26.5q-55 -2 -94 7t-64 21t-38 22.5t-15 11.5l10 20q37 -20 72.5 -30.5t67.5 -12.5q43 -2 76 16t58.5 48t44 68.5t32 77.5t23 75t16.5 61z"/>
        </font>
</defs>
</svg>
